<?xml version="1.0" encoding="UTF-8"?>
<svg version="1.1" xmlns="http://www.w3.org/2000/svg" width="474" height="97">
<path d="M0 0 C7.92 0 15.84 0 24 0 C24.01458252 1.84674316 24.02916504 3.69348633 24.04418945 5.59619141 C24.095923 11.71113211 24.1612309 17.82581119 24.23571491 23.94051552 C24.28036274 27.64635653 24.31963077 31.35208903 24.34643555 35.05810547 C24.37252489 38.63744733 24.41296603 42.21637036 24.46318626 45.79545212 C24.47981715 47.15807239 24.49135493 48.52076505 24.49761391 49.88347244 C24.50729531 51.79824651 24.53708538 53.71288645 24.56762695 55.62744141 C24.57873001 56.71554108 24.58983307 57.80364075 24.60127258 58.92471313 C25.18388182 63.4182354 26.69721243 66.81564766 30.0625 69.875 C35.31861307 71.88797947 40.68138693 71.88797947 45.9375 69.875 C49.32991739 66.79098419 50.81083558 63.81271698 51.29205322 59.20132446 C51.4272584 55.66951201 51.46736623 52.14767964 51.4765625 48.61328125 C51.50036253 46.63656352 51.52416676 44.65984584 51.5482235 42.68313122 C51.5781227 39.92636987 51.59461681 37.169588 51.61126709 34.41271973 C51.64289834 29.57524694 51.69390124 24.73795123 51.74765015 19.90068054 C51.77488522 17.32766826 51.79623276 14.75458574 51.81118774 12.18147278 C51.82658096 10.43902534 51.82658096 10.43902534 51.84228516 8.66137695 C51.84878082 7.63800735 51.85527649 6.61463776 51.86196899 5.56025696 C52 3 52 3 53 0 C60.59 0 68.18 0 76 0 C76.19985977 7.33740862 76.38529872 14.67485971 76.54658794 22.0132246 C76.62206241 25.4221112 76.70341856 28.83062888 76.79907227 32.23901367 C76.90921028 36.17331316 76.99222775 40.10797862 77.07421875 44.04296875 C77.11157639 45.24455124 77.14893402 46.44613373 77.18742371 47.68412781 C77.40486985 60.14431668 75.65290463 71.31992482 67.35546875 80.8984375 C59.28879038 88.94813339 48.95075548 90.37799458 38 90.5 C26.3008195 90.35880866 16.38997834 88.58088971 7.8046875 80.07421875 C-0.36155551 70.68834204 -0.2887381 60.29427482 -0.1953125 48.4375 C-0.19157591 47.0364604 -0.18873199 45.63541816 -0.18673706 44.234375 C-0.1791514 40.57160044 -0.15954737 36.90898798 -0.1373291 33.24627686 C-0.11676062 29.49884228 -0.10771197 25.75138117 -0.09765625 22.00390625 C-0.0762959 14.66918886 -0.04115603 7.33463792 0 0 Z " fill="#3497DA" transform="translate(2,5)"/>
<path d="M0 0 C5.94 0 11.88 0 18 0 C21.10382977 3.13003822 21.65802114 4.11059978 23 8 C23.99204708 9.90240807 25.00803091 11.79245553 26.04296875 13.671875 C27.09450276 15.69617643 28.1426284 17.72225165 29.1875 19.75 C29.98704102 21.29107422 29.98704102 21.29107422 30.80273438 22.86328125 C32.89333469 26.89721948 34.96805353 30.93610705 37 35 C37.33 23.45 37.66 11.9 38 0 C43.28 0 48.56 0 54 0 C54 19.8 54 39.6 54 60 C48.06 60 42.12 60 36 60 C29.42798247 48.44596918 23.15183038 36.78378776 17 25 C16.67 36.55 16.34 48.1 16 60 C10.72 60 5.44 60 0 60 C0 40.2 0 20.4 0 0 Z " fill="#2DCB70" transform="translate(412,23)"/>
<path d="M0 0 C2.22134055 -0.0096214 4.44172204 -0.04058837 6.6628418 -0.07226562 C23.05395348 -0.19743458 23.05395348 -0.19743458 28.22924805 4.69262695 C32.61716221 9.73765727 32.98308183 13.06346709 32.90698242 19.54882812 C32.44185636 25.37558915 28.76691395 28.38571722 24.69213867 32.24023438 C25.5815918 33.20445313 26.47104492 34.16867188 27.38745117 35.16210938 C30.89982587 39.26297719 33.23295908 43.6472087 35.56713867 48.49023438 C35.96932617 49.29203125 36.37151367 50.09382813 36.78588867 50.91992188 C39.69213867 56.83127392 39.69213867 56.83127392 39.69213867 60.24023438 C34.08213867 60.24023438 28.47213867 60.24023438 22.69213867 60.24023438 C21.9934668 58.891875 21.29479492 57.54351562 20.57495117 56.15429688 C19.65587639 54.39117383 18.73659482 52.62815857 17.81713867 50.86523438 C17.35694336 49.97578125 16.89674805 49.08632812 16.42260742 48.16992188 C15.97788086 47.31914063 15.5331543 46.46835938 15.07495117 45.59179688 C14.66647949 44.80627441 14.25800781 44.02075195 13.8371582 43.21142578 C12.72401482 41.10126572 12.72401482 41.10126572 10.69213867 39.24023438 C8.05213867 38.91023438 5.41213867 38.58023438 2.69213867 38.24023438 C2.69213867 45.50023437 2.69213867 52.76023438 2.69213867 60.24023438 C-2.58786133 60.24023438 -7.86786133 60.24023438 -13.30786133 60.24023438 C-14.33907634 57.14658933 -14.43463755 55.01706193 -14.43725586 51.77490234 C-14.44040802 50.65719452 -14.44356018 49.53948669 -14.44680786 48.38790894 C-14.44478363 47.18159821 -14.4427594 45.97528748 -14.44067383 44.73242188 C-14.44163055 43.49605988 -14.44258728 42.25969788 -14.443573 40.98587036 C-14.44442838 37.70158129 -14.44039929 34.41733944 -14.43481445 31.13305664 C-14.43286037 29.11424257 -14.43481112 27.09547185 -14.43823242 25.07666016 C-14.44438274 21.2118933 -14.44366911 17.34719134 -14.44067383 13.48242188 C-14.44269806 12.27206268 -14.44472229 11.06170349 -14.44680786 9.81466675 C-14.4436557 8.70326324 -14.44050354 7.59185974 -14.43725586 6.44677734 C-14.43646027 5.46321259 -14.43566467 4.47964783 -14.43484497 3.46627808 C-14.1048129 -2.31923725 -4.54101647 0.01190176 0 0 Z M2.69213867 12.24023438 C2.69213867 16.86023438 2.69213867 21.48023438 2.69213867 26.24023438 C9.53875455 26.72246199 9.53875455 26.72246199 15.69213867 24.24023438 C16.60428746 20.38114333 16.95346098 18.02420129 15.69213867 14.24023438 C11.42459495 11.78316375 7.47072687 12.07824833 2.69213867 12.24023438 Z " fill="#2DCA70" transform="translate(255.307861328125,22.759765625)"/>
<path d="M0 0 C0 4.29 0 8.58 0 13 C-2.07003145 12.48249214 -4.14207463 11.95032536 -6.15625 11.24609375 C-13.87738935 8.58230067 -21.61265247 7.58978115 -29.5 10.125 C-33.40263667 13.05197751 -35.46910212 16.40730637 -37 21 C-37.65869585 28.95501909 -37.29054467 35.09247821 -32 41.375 C-28.29299461 44.38694188 -24.91206587 44.10804026 -20.3125 44.0625 C-19.13300781 44.05347656 -17.95351562 44.04445312 -16.73828125 44.03515625 C-15.83464844 44.02355469 -14.93101562 44.01195312 -14 44 C-14.020625 42.72125 -14.04125 41.4425 -14.0625 40.125 C-14.125 36.25 -14.125 36.25 -13 34 C-16.3 34 -19.6 34 -23 34 C-23 30.37 -23 26.74 -23 23 C-14.75 23 -6.5 23 2 23 C2 32.57 2 42.14 2 52 C-11.64942145 58.06640953 -23.46570244 60.28168823 -37.91015625 55.38671875 C-45.51344114 51.97437218 -50.34289019 46.80256044 -53.34375 39.078125 C-56.56430235 28.87970921 -55.91069551 18.54602492 -51 9 C-46.51673968 1.8049804 -39.56447709 -2.31252346 -31.4375 -4.375 C-20.56451199 -6.13910414 -9.87985793 -4.78555618 0 0 Z " fill="#2EC970" transform="translate(228,26)"/>
<path d="M0 0 C13.86 0 27.72 0 42 0 C42 4.29 42 8.58 42 13 C29.625 13.495 29.625 13.495 17 14 C17 16.31 17 18.62 17 21 C18.0372522 21.03758423 18.0372522 21.03758423 19.09545898 21.07592773 C22.20967866 21.19152161 25.32356789 21.31441242 28.4375 21.4375 C29.52611328 21.47681641 30.61472656 21.51613281 31.73632812 21.55664062 C32.77080078 21.59853516 33.80527344 21.64042969 34.87109375 21.68359375 C35.82943115 21.72025146 36.78776855 21.75690918 37.77514648 21.79467773 C40 22 40 22 41 23 C41.09851171 24.83115883 41.12972629 26.66619933 41.125 28.5 C41.12886719 30.00046875 41.12886719 30.00046875 41.1328125 31.53125 C41 34 41 34 40 35 C38.29436222 35.15740605 36.58272756 35.25093392 34.87109375 35.31640625 C33.83662109 35.35830078 32.80214844 35.40019531 31.73632812 35.44335938 C30.64771484 35.48267578 29.55910156 35.52199219 28.4375 35.5625 C26.7987793 35.62727539 26.7987793 35.62727539 25.12695312 35.69335938 C22.41813232 35.79981958 19.70908349 35.90044807 17 36 C17 39.3 17 42.6 17 46 C29.87 46.495 29.87 46.495 43 47 C43 51.29 43 55.58 43 60 C28.81 60 14.62 60 0 60 C0 40.2 0 20.4 0 0 Z " fill="#2ECA71" transform="translate(303,23)"/>
<path d="M0 0 C13.86 0 27.72 0 42 0 C42 4.29 42 8.58 42 13 C33.42 13 24.84 13 16 13 C16 15.97 16 18.94 16 22 C23.92 22 31.84 22 40 22 C40 26.29 40 30.58 40 35 C32.08 35 24.16 35 16 35 C16 38.96 16 42.92 16 47 C17.86527344 46.98839844 19.73054688 46.97679687 21.65234375 46.96484375 C24.08072817 46.95546775 26.50911367 46.94636735 28.9375 46.9375 C30.78504883 46.92493164 30.78504883 46.92493164 32.66992188 46.91210938 C33.83974609 46.90888672 35.00957031 46.90566406 36.21484375 46.90234375 C37.84087524 46.89448853 37.84087524 46.89448853 39.49975586 46.88647461 C42 47 42 47 43 48 C43.16499805 52.28994923 42.84964745 55.75176275 42 60 C28.14 60 14.28 60 0 60 C0 40.2 0 20.4 0 0 Z " fill="#30C670" transform="translate(358,23)"/>
<path d="M0 0 C5.94 0 11.88 0 18 0 C17.67 0.66 17.34 1.32 17 2 C12.05 2 7.1 2 2 2 C2 20.48 2 38.96 2 58 C5.96 58 9.92 58 14 58 C13.96447021 57.03175293 13.92894043 56.06350586 13.89233398 55.06591797 C13.76140919 51.45429929 13.63844835 47.84244486 13.51782227 44.23046875 C13.46463785 42.67082349 13.40932886 41.11124911 13.35180664 39.55175781 C13.26923326 37.3028898 13.19444594 35.05387293 13.12109375 32.8046875 C13.09405869 32.1138205 13.06702362 31.42295349 13.03916931 30.71115112 C12.9162704 26.6735017 13.20013326 22.95893641 14 19 C15.98 19.66 17.96 20.32 20 21 C20.28875 19.9275 20.5775 18.855 20.875 17.75 C21.73600459 14.8799847 22.62436288 12.61255453 24 10 C25.98316344 13.60198136 27.96083989 17.20694631 29.9375 20.8125 C30.50146484 21.83666016 31.06542969 22.86082031 31.64648438 23.91601562 C32.45375977 25.39038086 32.45375977 25.39038086 33.27734375 26.89453125 C33.77484131 27.80050049 34.27233887 28.70646973 34.78491211 29.63989258 C36 32 36 32 37 35 C37.33 23.45 37.66 11.9 38 0 C43.28 0 48.56 0 54 0 C54 19.8 54 39.6 54 60 C48.06 60 42.12 60 36 60 C34.68 57.69 33.36 55.38 32 53 C32.495 52.01 32.495 52.01 33 51 C35.875 55.75 35.875 55.75 37 58 C42.28 58.33 47.56 58.66 53 59 C53 39.86 53 20.72 53 1 C48.71 1 44.42 1 40 1 C40.00523682 2.01425049 40.01047363 3.02850098 40.01586914 4.07348633 C40.03396807 7.83617267 40.04544994 11.59885515 40.05493164 15.36157227 C40.05996065 16.99015958 40.06678465 18.61874237 40.07543945 20.24731445 C40.08756769 22.58806472 40.09324263 24.9287553 40.09765625 27.26953125 C40.10281754 27.99775589 40.10797882 28.72598053 40.11329651 29.47627258 C40.11364279 32.59602288 39.99455604 35.01633188 39 38 C39.99 38.495 39.99 38.495 41 39 C40.505 39.99 40.505 39.99 40 41 C39.34 41 38.68 41 38 41 C38 40.34 38 39.68 38 39 C36.68 39 35.36 39 34 39 C34 39.99 34 40.98 34 42 C33.01 42 32.02 42 31 42 C31 45.11257569 31.17361624 47.10765685 32 50 C31.34 50 30.68 50 30 50 C25.71 41.75 21.42 33.5 17 25 C16.67 36.55 16.34 48.1 16 60 C10.72 60 5.44 60 0 60 C0 40.2 0 20.4 0 0 Z " fill="#3BBC74" transform="translate(412,23)"/>
<path d="M0 0 C4.41077344 -0.07471341 8.82120184 -0.12886513 13.23242188 -0.16479492 C14.72988307 -0.17978888 16.22730105 -0.20019105 17.72460938 -0.22631836 C36.25335665 -0.54130706 36.25335665 -0.54130706 41.53686523 4.45263672 C45.92553139 9.49688714 46.29093892 12.82359399 46.21484375 19.30859375 C45.74971769 25.13535477 42.07477528 28.14548285 38 32 C38.88945312 32.96421875 39.77890625 33.9284375 40.6953125 34.921875 C44.2076872 39.02274281 46.54082041 43.40697432 48.875 48.25 C49.2771875 49.05179688 49.679375 49.85359375 50.09375 50.6796875 C53 56.59103954 53 56.59103954 53 60 C47.39 60 41.78 60 36 60 C35.30132812 58.65164062 34.60265625 57.30328125 33.8828125 55.9140625 C32.96373772 54.15093945 32.04445615 52.38792419 31.125 50.625 C30.66480469 49.73554687 30.20460938 48.84609375 29.73046875 47.9296875 C29.28574219 47.07890625 28.84101563 46.228125 28.3828125 45.3515625 C27.97434082 44.56604004 27.56586914 43.78051758 27.14501953 42.97119141 C26.03187615 40.86103134 26.03187615 40.86103134 24 39 C21.36 38.67 18.72 38.34 16 38 C16 45.26 16 52.52 16 60 C10.72 60 5.44 60 0 60 C0 59.01 0 58.02 0 57 C0.66 57.33 1.32 57.66 2 58 C4.204364 58.22950319 6.41392173 58.41075933 8.625 58.5625 C10.72875 58.706875 12.8325 58.85125 15 59 C15 51.41 15 43.82 15 36 C17.97 35.505 17.97 35.505 21 35 C21.2165625 33.824375 21.2165625 33.824375 21.4375 32.625 C22 30 22 30 23 28 C21.02 27.67 19.04 27.34 17 27 C17 26.67 17 26.34 17 26 C22.445 25.01 22.445 25.01 28 24 C27.67 25.65 27.34 27.3 27 29 C29.64 28.34 32.28 27.68 35 27 C35 27.66 35 28.32 35 29 C36.65 28.67 38.3 28.34 40 28 C39.95875 27.236875 39.9175 26.47375 39.875 25.6875 C40 23 40 23 42 20 C42.99 20 43.98 20 45 20 C43.85996797 11.6574916 43.85996797 11.6574916 39 5 C38.01 5 37.02 5 36 5 C35.34 4.67 34.68 4.34 34 4 C34 3.67 34 3.34 34 3 C23.11 2.67 12.22 2.34 1 2 C0.67 1.34 0.34 0.68 0 0 Z " fill="#2EC971" transform="translate(242,23)"/>
<path d="M0 0 C0.99 0 1.98 0 3 0 C3 0.99 3 1.98 3 3 C4.32 3.33 5.64 3.66 7 4 C6.67 4.99 6.34 5.98 6 7 C5.01 7 4.02 7 3 7 C3.26656572 9.93443402 3.26656572 9.93443402 4 13 C4.99 13.66 5.98 14.32 7 15 C6.67 15.99 6.34 16.98 6 18 C10.48402425 18.14322062 14.96807381 18.28561331 19.45214844 18.42724609 C20.97689521 18.47552218 22.50163489 18.52402265 24.02636719 18.57275391 C26.22068476 18.64284619 28.41502674 18.7121258 30.609375 18.78125 C31.62834869 18.81406067 31.62834869 18.81406067 32.66790771 18.84753418 C35.78159327 18.94488276 38.88416504 19 42 19 C42.33 19 42.66 19 43 19 C42.34515625 18.64292969 41.6903125 18.28585938 41.015625 17.91796875 C39 16 39 16 38.609375 12.86328125 C38.65578125 11.69152344 38.7021875 10.51976562 38.75 9.3125 C38.78609375 8.13300781 38.8221875 6.95351563 38.859375 5.73828125 C38.90578125 4.83464844 38.9521875 3.93101563 39 3 C39.99 3 40.98 3 42 3 C43.26237731 5.52475462 43.09856404 7.31200466 43.0625 10.125 C43.05347656 11.03507812 43.04445312 11.94515625 43.03515625 12.8828125 C43.02355469 13.58148438 43.01195312 14.28015625 43 15 C45.04689196 14.37371577 45.04689196 14.37371577 47 13 C47.70176588 10.58320293 47.70176588 10.58320293 47.75 7.875 C47.83507812 6.50988281 47.83507812 6.50988281 47.921875 5.1171875 C47.96054688 4.06917969 47.96054688 4.06917969 48 3 C49.32 3.33 50.64 3.66 52 4 C52.0814222 6.22855574 52.13938079 8.45797655 52.1875 10.6875 C52.23970703 12.54955078 52.23970703 12.54955078 52.29296875 14.44921875 C51.98069087 18.23402665 51.38584244 20.07365778 49 23 C45.56152201 23.79821811 42.51883921 24 39 24 C38.505 24.495 38.505 24.495 38 25 C35.89793671 25.15953752 33.79070571 25.25158738 31.68359375 25.31640625 C30.36834717 25.35854248 29.05310059 25.40067871 27.69799805 25.4440918 C26.27784559 25.48404609 24.85767918 25.52350725 23.4375 25.5625 C22.01147439 25.60391511 20.585449 25.64533762 19.15942383 25.68676758 C15.10650462 25.80146872 11.05336928 25.90249267 7 26 C6.00935547 26.02481445 5.01871094 26.04962891 3.99804688 26.07519531 C1.72774834 26.12659501 -0.54177678 26.16295313 -2.8125 26.1875 C-3.99457031 26.20167969 -5.17664063 26.21585938 -6.39453125 26.23046875 C-9 26 -9 26 -11 24 C-10.67 22.35 -10.34 20.7 -10 19 C-6.37 18.67 -2.74 18.34 1 18 C0.34 17.34 -0.32 16.68 -1 16 C-1.1953125 13.8359375 -1.1953125 13.8359375 -1.125 11.375 C-1.10695313 10.55773438 -1.08890625 9.74046875 -1.0703125 8.8984375 C-1.04710938 8.27195312 -1.02390625 7.64546875 -1 7 C-1.66 7 -2.32 7 -3 7 C-3 5.68 -3 4.36 -3 3 C-2.34 3 -1.68 3 -1 3 C-0.67 2.01 -0.34 1.02 0 0 Z " fill="#416BA3" transform="translate(111,43)"/>
<path d="M0 0 C7.92 0 15.84 0 24 0 C24.02505615 1.85197998 24.0501123 3.70395996 24.07592773 5.61206055 C24.15990775 11.73887501 24.24817035 17.86561614 24.33933926 23.99232769 C24.39444516 27.70603752 24.44784496 31.41975539 24.49731445 35.13354492 C24.54514053 38.71920699 24.59748903 42.3047774 24.65294075 45.89032936 C24.67328191 47.25659711 24.69200819 48.62288991 24.70907402 49.9892025 C24.73330109 51.90651653 24.76386213 53.82374734 24.79467773 55.7409668 C24.81799416 57.37644722 24.81799416 57.37644722 24.84178162 59.04496765 C24.98914018 61.79717202 25.38059213 64.3187576 26 67 C24.68 66.34 23.36 65.68 22 65 C22 62.03 22 59.06 22 56 C21.67 56 21.34 56 21 56 C20.97468516 48.64934015 20.95714798 41.2986915 20.94506836 33.94799805 C20.94003359 31.44636617 20.93320539 28.94473724 20.92456055 26.44311523 C20.91245762 22.85139234 20.90676318 19.25970828 20.90234375 15.66796875 C20.89460182 13.98503975 20.89460182 13.98503975 20.88670349 12.26811218 C20.88662796 11.22725967 20.88655243 10.18640717 20.88647461 9.11401367 C20.884254 8.19690109 20.88203339 7.27978851 20.87974548 6.33488464 C21 4 21 4 22 1 C21.01 1.495 21.01 1.495 20 2 C18.62451844 2.08308638 17.24514204 2.10736016 15.8671875 2.09765625 C15.06152344 2.09443359 14.25585938 2.09121094 13.42578125 2.08789062 C12.58402344 2.07951172 11.74226562 2.07113281 10.875 2.0625 C10.02550781 2.05798828 9.17601562 2.05347656 8.30078125 2.04882812 C6.20049091 2.03702874 4.1002367 2.01909306 2 2 C1.95367085 9.51041694 1.91812786 17.02081906 1.89637566 24.53134632 C1.88593596 28.01875161 1.87177351 31.50605916 1.84912109 34.9934082 C1.82324488 39.00212546 1.81352877 43.01073997 1.8046875 47.01953125 C1.79436493 48.27272659 1.78404236 49.52592194 1.77340698 50.8170929 C1.77325592 51.97806992 1.77310486 53.13904694 1.77294922 54.33520508 C1.768508 55.35890701 1.76406677 56.38260895 1.75949097 57.43733215 C1.81819088 60.24135634 1.81819088 60.24135634 4 63 C3.625 66.6875 3.625 66.6875 3 70 C-0.00470961 65.49293558 -0.1242649 62.13245027 -0.11352539 56.76269531 C-0.11344986 55.50169006 -0.11337433 54.24068481 -0.11329651 52.94146729 C-0.10819028 51.57035279 -0.1029743 50.19923869 -0.09765625 48.828125 C-0.09579028 47.42136689 -0.09436722 46.01460812 -0.09336853 44.60784912 C-0.08955744 40.91219273 -0.0797392 37.21657587 -0.06866455 33.52093506 C-0.05842014 29.74703506 -0.05386442 25.97312865 -0.04882812 22.19921875 C-0.03811563 14.79945909 -0.02053027 7.39974013 0 0 Z " fill="#3190CE" transform="translate(2,5)"/>
<path d="M0 0 C13.86 0 27.72 0 42 0 C42 4.29 42 8.58 42 13 C29.625 13.495 29.625 13.495 17 14 C17 16.31 17 18.62 17 21 C18.0372522 21.03758423 18.0372522 21.03758423 19.09545898 21.07592773 C22.20967866 21.19152161 25.32356789 21.31441242 28.4375 21.4375 C29.52611328 21.47681641 30.61472656 21.51613281 31.73632812 21.55664062 C32.77080078 21.59853516 33.80527344 21.64042969 34.87109375 21.68359375 C35.82943115 21.72025146 36.78776855 21.75690918 37.77514648 21.79467773 C40 22 40 22 41 23 C41.09851171 24.83115883 41.12972629 26.66619933 41.125 28.5 C41.12886719 30.00046875 41.12886719 30.00046875 41.1328125 31.53125 C41 34 41 34 40 35 C38.29436222 35.15740605 36.58272756 35.25093392 34.87109375 35.31640625 C33.83662109 35.35830078 32.80214844 35.40019531 31.73632812 35.44335938 C30.64771484 35.48267578 29.55910156 35.52199219 28.4375 35.5625 C26.7987793 35.62727539 26.7987793 35.62727539 25.12695312 35.69335938 C22.41813232 35.79981958 19.70908349 35.90044807 17 36 C17 39.3 17 42.6 17 46 C29.87 46.495 29.87 46.495 43 47 C43 51.29 43 55.58 43 60 C28.81 60 14.62 60 0 60 C0 40.2 0 20.4 0 0 Z M1 1 C1 20.14 1 39.28 1 59 C14.53 59 28.06 59 42 59 C42 55.37 42 51.74 42 48 C33.09 48 24.18 48 15 48 C15.33 43.38 15.66 38.76 16 34 C23.59 34 31.18 34 39 34 C39 30.37 39 26.74 39 23 C31.08 23 23.16 23 15 23 C15 19.37 15 15.74 15 12 C23.58 12 32.16 12 41 12 C41 8.37 41 4.74 41 1 C27.8 1 14.6 1 1 1 Z " fill="#4FAA79" transform="translate(303,23)"/>
<path d="M0 0 C4.41077344 -0.07471341 8.82120184 -0.12886513 13.23242188 -0.16479492 C14.72988307 -0.17978888 16.22730105 -0.20019105 17.72460938 -0.22631836 C36.25335665 -0.54130706 36.25335665 -0.54130706 41.53686523 4.45263672 C45.9253799 9.49671302 46.28646232 12.82123292 46.21875 19.3046875 C45.94831724 22.63680545 45.16102923 24.4530727 43 27 C42.443125 27.7425 41.88625 28.485 41.3125 29.25 C38.08062417 31.69574387 34.91761138 31.83220659 31 32 C29.72125 32.061875 28.4425 32.12375 27.125 32.1875 C24 32 24 32 22 30 C22.33 29.34 22.66 28.68 23 28 C21.02 27.67 19.04 27.34 17 27 C17 26.67 17 26.34 17 26 C22.445 25.01 22.445 25.01 28 24 C27.67 25.65 27.34 27.3 27 29 C29.64 28.34 32.28 27.68 35 27 C35 27.66 35 28.32 35 29 C36.65 28.67 38.3 28.34 40 28 C39.95875 27.236875 39.9175 26.47375 39.875 25.6875 C40 23 40 23 42 20 C42.99 20 43.98 20 45 20 C43.85996797 11.6574916 43.85996797 11.6574916 39 5 C38.01 5 37.02 5 36 5 C35.34 4.67 34.68 4.34 34 4 C34 3.67 34 3.34 34 3 C23.11 2.67 12.22 2.34 1 2 C0.67 1.34 0.34 0.68 0 0 Z M21 32 C21.99 32 22.98 32 24 32 C24.2475 32.7425 24.495 33.485 24.75 34.25 C25.79975436 37.04594436 25.79975436 37.04594436 27.875 38.6875 C32.16737501 43.35861398 33.91019553 49.8464576 35 56 C31.90289415 52.09857114 29.71705029 47.85475703 27.40234375 43.4609375 C26.10041572 40.92423411 26.10041572 40.92423411 24 39 C21.36 38.67 18.72 38.34 16 38 C16 45.26 16 52.52 16 60 C10.72 60 5.44 60 0 60 C0 59.01 0 58.02 0 57 C0.66 57.33 1.32 57.66 2 58 C4.204364 58.22950319 6.41392173 58.41075933 8.625 58.5625 C10.72875 58.706875 12.8325 58.85125 15 59 C15 51.41 15 43.82 15 36 C16.98 35.67 18.96 35.34 21 35 C21 34.01 21 33.02 21 32 Z " fill="#3CBA74" transform="translate(242,23)"/>
<path d="M0 0 C7.59 0 15.18 0 23 0 C23 15.51 23 31.02 23 47 C22.67 47 22.34 47 22 47 C22 32.15 22 17.3 22 2 C15.4 2 8.8 2 2 2 C2.05124023 3.75586426 2.10248047 5.51172852 2.15527344 7.32080078 C2.32009416 13.13584721 2.4657241 18.95120589 2.59840012 24.76706123 C2.67950501 28.29172264 2.76819521 31.81584555 2.87451172 35.33984375 C2.99652913 39.39548427 3.08502502 43.45126538 3.171875 47.5078125 C3.21439392 48.76739777 3.25691284 50.02698303 3.30072021 51.32473755 C3.41380077 57.89478517 3.47745621 62.02066804 -1 67 C-1.495 67.99 -1.495 67.99 -2 69 C-2.99 68.67 -3.98 68.34 -5 68 C-4.5148291 67.28610107 -4.0296582 66.57220215 -3.52978516 65.83666992 C-0.89217589 60.51717149 -1.53851522 54.40809649 -1.5234375 48.61328125 C-1.49963747 46.63656352 -1.47583324 44.65984584 -1.4517765 42.68313122 C-1.4218773 39.92636987 -1.40538319 37.169588 -1.38873291 34.41271973 C-1.35710166 29.57524694 -1.30609876 24.73795123 -1.25234985 19.90068054 C-1.22511478 17.32766826 -1.20376724 14.75458574 -1.18881226 12.18147278 C-1.17855011 11.01984116 -1.16828796 9.85820953 -1.15771484 8.66137695 C-1.15121918 7.63800735 -1.14472351 6.61463776 -1.13803101 5.56025696 C-1 3 -1 3 0 0 Z " fill="#3790CA" transform="translate(55,5)"/>
<path d="M0 0 C0.99 0 1.98 0 3 0 C3 0.99 3 1.98 3 3 C4.32 3.33 5.64 3.66 7 4 C6.67 4.99 6.34 5.98 6 7 C5.01 7 4.02 7 3 7 C3.26656572 9.93443402 3.26656572 9.93443402 4 13 C4.99 13.66 5.98 14.32 7 15 C6.67 15.99 6.34 16.98 6 18 C7.670625 18.433125 7.670625 18.433125 9.375 18.875 C13 20 13 20 15 22 C14.01 22.33 13.02 22.66 12 23 C12 23.66 12 24.32 12 25 C7.61040324 26.07799528 3.30699277 26.18343259 -1.1875 26.1875 C-2.27321289 26.20586914 -2.27321289 26.20586914 -3.38085938 26.22460938 C-5.25539471 26.22984064 -7.1294635 26.12248796 -9 26 C-9.66 25.34 -10.32 24.68 -11 24 C-10.67 22.35 -10.34 20.7 -10 19 C-6.37 18.67 -2.74 18.34 1 18 C0.34 17.34 -0.32 16.68 -1 16 C-1.1953125 13.8359375 -1.1953125 13.8359375 -1.125 11.375 C-1.10695313 10.55773438 -1.08890625 9.74046875 -1.0703125 8.8984375 C-1.04710938 8.27195312 -1.02390625 7.64546875 -1 7 C-1.66 7 -2.32 7 -3 7 C-3 5.68 -3 4.36 -3 3 C-2.34 3 -1.68 3 -1 3 C-0.67 2.01 -0.34 1.02 0 0 Z " fill="#F4CF32" transform="translate(111,43)"/>
<path d="M0 0 C3 1 3 1 3.9831543 2.76586914 C4.3994812 3.88916626 4.3994812 3.88916626 4.82421875 5.03515625 C5.13037109 5.84404297 5.43652344 6.65292969 5.75195312 7.48632812 C6.06068359 8.33646484 6.36941406 9.18660156 6.6875 10.0625 C7.00783203 10.91650391 7.32816406 11.77050781 7.65820312 12.65039062 C8.44908493 14.76334351 9.2291202 16.87968513 10 19 C9.01 19.66 8.02 20.32 7 21 C6.34 20.34 5.68 19.68 5 19 C5 18.01 5 17.02 5 16 C-0.73866286 16.24126997 -0.73866286 16.24126997 -5.5 19.0625 C-5.995 19.701875 -6.49 20.34125 -7 21 C-8.35908042 17.93617709 -7.89623023 16.67346169 -6.85546875 13.3984375 C-6.31102544 12.05256305 -5.75460876 10.71148203 -5.1875 9.375 C-4.91357422 8.694375 -4.63964844 8.01375 -4.35742188 7.3125 C-3.16976402 4.43022242 -2.22478133 2.22478133 0 0 Z M0 7 C-0.33 8.65 -0.66 10.3 -1 12 C0.32 11.67 1.64 11.34 3 11 C2.01 9.68 1.02 8.36 0 7 Z " fill="#F4C720" transform="translate(90,41)"/>
<path d="M0 0 C8.58 0 17.16 0 26 0 C26.33 1.65 26.66 3.3 27 5 C26 6 26 6 23.49975586 6.11352539 C22.41573486 6.10828857 21.33171387 6.10305176 20.21484375 6.09765625 C19.04501953 6.09443359 17.87519531 6.09121094 16.66992188 6.08789062 C14.82237305 6.07532227 14.82237305 6.07532227 12.9375 6.0625 C11.08415039 6.05573242 11.08415039 6.05573242 9.19335938 6.04882812 C6.12885883 6.03699608 3.06445279 6.02051173 0 6 C0 5.34 0 4.68 0 4 C0.66 3.67 1.32 3.34 2 3 C1.34 2.01 0.68 1.02 0 0 Z " fill="#4B6EA6" transform="translate(123,62)"/>
<path d="M0 0 C0.99 0.33 1.98 0.66 3 1 C3.33 19.48 3.66 37.96 4 57 C3.01 57 2.02 57 1 57 C0.06173511 53.82576416 -0.12139248 50.98484218 -0.11352539 47.68066406 C-0.11344986 46.61986633 -0.11337433 45.5590686 -0.11329651 44.46612549 C-0.10813522 43.32746033 -0.10297394 42.18879517 -0.09765625 41.015625 C-0.09553383 39.25952911 -0.09553383 39.25952911 -0.09336853 37.46795654 C-0.0877709 33.72861171 -0.0752188 29.98932674 -0.0625 26.25 C-0.0574847 23.71484461 -0.05292184 21.17968829 -0.04882812 18.64453125 C-0.03780224 12.42966707 -0.02106644 6.21483781 0 0 Z " fill="#2DC660" transform="translate(241,24)"/>
<path d="M0 0 C8.58 0 17.16 0 26 0 C26 0.33 26 0.66 26 1 C18.08 1.33 10.16 1.66 2 2 C2 4.31 2 6.62 2 9 C2.69150146 9.02505615 3.38300293 9.0501123 4.09545898 9.07592773 C7.20967866 9.19152161 10.32356789 9.31441242 13.4375 9.4375 C14.52611328 9.47681641 15.61472656 9.51613281 16.73632812 9.55664062 C18.28803711 9.61948242 18.28803711 9.61948242 19.87109375 9.68359375 C20.82943115 9.72025146 21.78776855 9.75690918 22.77514648 9.79467773 C25 10 25 10 26 11 C26.09851171 12.83115883 26.12972629 14.66619933 26.125 16.5 C26.12886719 18.00046875 26.12886719 18.00046875 26.1328125 19.53125 C26 22 26 22 25 23 C23.29436222 23.15740605 21.58272756 23.25093392 19.87109375 23.31640625 C18.83662109 23.35830078 17.80214844 23.40019531 16.73632812 23.44335938 C15.64771484 23.48267578 14.55910156 23.52199219 13.4375 23.5625 C11.7987793 23.62727539 11.7987793 23.62727539 10.12695312 23.69335938 C7.41813232 23.79981958 4.70908349 23.90044807 2 24 C2 27.96 2 31.92 2 36 C1.34 36 0.68 36 0 36 C-1.65206638 31.04380087 -0.49932248 26.1596656 0 21 C7.92 21.33 15.84 21.66 24 22 C24 18.37 24 14.74 24 11 C16.08 11 8.16 11 0 11 C-1 3 -1 3 0 0 Z " fill="#47B077" transform="translate(318,35)"/>
<path d="M0 0 C0.8971875 0.309375 0.8971875 0.309375 1.8125 0.625 C1.8125 1.615 1.8125 2.605 1.8125 3.625 C0.4925 3.625 -0.8275 3.625 -2.1875 3.625 C-2.1875 4.285 -2.1875 4.945 -2.1875 5.625 C-0.8675 5.955 0.4525 6.285 1.8125 6.625 C1.4825 7.615 1.1525 8.605 0.8125 9.625 C-0.1775 9.625 -1.1675 9.625 -2.1875 9.625 C-2.1875 13.255 -2.1875 16.885 -2.1875 20.625 C-3.5075 20.295 -4.8275 19.965 -6.1875 19.625 C-6.1875 16.325 -6.1875 13.025 -6.1875 9.625 C-7.1775 9.295 -8.1675 8.965 -9.1875 8.625 C-8.8575 7.635 -8.5275 6.645 -8.1875 5.625 C-7.5275 5.625 -6.8675 5.625 -6.1875 5.625 C-6.084375 5.00625 -5.98125 4.3875 -5.875 3.75 C-4.85895141 0.60948619 -3.30129273 -0.5659359 0 0 Z " fill="#4D6FA6" transform="translate(146.1875,40.375)"/>
<path d="M0 0 C0.99 0 1.98 0 3 0 C3 0.99 3 1.98 3 3 C4.32 3.33 5.64 3.66 7 4 C6.67 4.99 6.34 5.98 6 7 C5.01 7 4.02 7 3 7 C3.26656572 9.93443402 3.26656572 9.93443402 4 13 C4.99 13.66 5.98 14.32 7 15 C6.67 15.99 6.34 16.98 6 18 C3.625 18.125 3.625 18.125 1 18 C-1 16 -1 16 -1.1953125 13.8359375 C-1.17210938 13.02382813 -1.14890625 12.21171875 -1.125 11.375 C-1.10695313 10.55773438 -1.08890625 9.74046875 -1.0703125 8.8984375 C-1.04710938 8.27195312 -1.02390625 7.64546875 -1 7 C-1.66 7 -2.32 7 -3 7 C-3 5.68 -3 4.36 -3 3 C-2.34 3 -1.68 3 -1 3 C-0.67 2.01 -0.34 1.02 0 0 Z " fill="#496C9D" transform="translate(111,43)"/>
<path d="M0 0 C0.33 0 0.66 0 1 0 C1.05534912 1.31718018 1.11069824 2.63436035 1.16772461 3.99145508 C1.37397342 8.87250765 1.58590275 13.7532998 1.79956055 18.6340332 C1.89128418 20.74757309 1.98146152 22.86118067 2.07006836 24.97485352 C2.19760394 28.01077031 2.33067547 31.04640125 2.46484375 34.08203125 C2.50343002 35.02899368 2.5420163 35.97595612 2.58177185 36.95161438 C2.62173782 37.83230087 2.6617038 38.71298737 2.70288086 39.62036133 C2.73619003 40.39535477 2.76949921 41.17034821 2.80381775 41.96882629 C2.94311889 44.20195371 2.94311889 44.20195371 4 47 C2.125 50.0625 2.125 50.0625 0 53 C-0.33 53.66 -0.66 54.32 -1 55 C-1.99 54.67 -2.98 54.34 -4 54 C-3.5155542 53.23864746 -3.0311084 52.47729492 -2.53198242 51.69287109 C-0.46091069 46.70051556 -0.52185913 42.26858372 -0.48828125 36.9140625 C-0.47033005 35.85714203 -0.45237885 34.80022156 -0.43388367 33.71127319 C-0.37988062 30.3492222 -0.34591638 26.9873124 -0.3125 23.625 C-0.27931817 21.33982415 -0.24482771 19.0546669 -0.20898438 16.76953125 C-0.12415991 11.17981412 -0.05576771 5.59007849 0 0 Z " fill="#3D8CC7" transform="translate(54,19)"/>
<path d="M0 0 C6.27 0 12.54 0 19 0 C19 0.33 19 0.66 19 1 C13.06 1 7.12 1 1 1 C1 20.8 1 40.6 1 61 C1.99 61.33 2.98 61.66 4 62 C3.67 64.64 3.34 67.28 3 70 C-0.00470961 65.49293558 -0.1242649 62.13245027 -0.11352539 56.76269531 C-0.11344986 55.50169006 -0.11337433 54.24068481 -0.11329651 52.94146729 C-0.10819028 51.57035279 -0.1029743 50.19923869 -0.09765625 48.828125 C-0.09579028 47.42136689 -0.09436722 46.01460812 -0.09336853 44.60784912 C-0.08955744 40.91219273 -0.0797392 37.21657587 -0.06866455 33.52093506 C-0.05842014 29.74703506 -0.05386442 25.97312865 -0.04882812 22.19921875 C-0.03811563 14.79945909 -0.02053027 7.39974013 0 0 Z " fill="#418BBD" transform="translate(2,5)"/>
<path d="M0 0 C0.66 0.66 1.32 1.32 2 2 C0.60721983 2.65239158 -0.78939212 3.29660552 -2.1875 3.9375 C-3.35345703 4.47697266 -3.35345703 4.47697266 -4.54296875 5.02734375 C-16.90818035 9.92231623 -33.00909695 7.90139103 -45 3 C-41.52176885 1.84058962 -39.54104422 2.29179116 -36 3 C-36 3.66 -36 4.32 -36 5 C-32.27024394 4.8897609 -28.54146417 4.75921587 -24.8125 4.625 C-23.75740234 4.5940625 -22.70230469 4.563125 -21.61523438 4.53125 C-20.08286133 4.47324219 -20.08286133 4.47324219 -18.51953125 4.4140625 C-17.11344604 4.36693115 -17.11344604 4.36693115 -15.67895508 4.31884766 C-12.8253706 3.97921571 -10.63686626 3.10760042 -8 2 C-6.33333333 2 -4.66666667 2 -3 2 C-2.01 1.34 -1.02 0.68 0 0 Z " fill="#418CC4" transform="translate(62,88)"/>
<path d="M0 0 C8.25 0 16.5 0 25 0 C24.67 0.66 24.34 1.32 24 2 C16.74 1.67 9.48 1.34 2 1 C3.65 1.33 5.3 1.66 7 2 C6.67 4.31 6.34 6.62 6 9 C6.99 9 7.98 9 9 9 C9 9.66 9 10.32 9 11 C6.03 11 3.06 11 0 11 C0 7.37 0 3.74 0 0 Z " fill="#3FB974" transform="translate(205,49)"/>
<path d="M0 0 C1 3 1 3 0 6 C-0.93605178 15.34748418 -1.22134542 24.90493478 3.41796875 33.28515625 C5.38668304 35.41914532 7.26586064 36.1131279 10 37 C10 37.66 10 38.32 10 39 C10.66 39 11.32 39 12 39 C12 39.99 12 40.98 12 42 C13.32 42.66 14.64 43.32 16 44 C9.73048066 43.20387056 6.11280798 39.58174497 2 35 C-3.21689927 26.30042956 -4.66087175 16.04904871 -2.328125 6.1484375 C-1.62918509 4.0713991 -0.82574736 2.02996227 0 0 Z " fill="#45B578" transform="translate(176,37)"/>
<path d="M0 0 C11 0 11 0 13.4375 1.375 C16.7155997 6.88220749 18.88304503 12.69315327 20 19 C16.90289415 15.09857114 14.71705029 10.85475703 12.40234375 6.4609375 C11.10041572 3.92423411 11.10041572 3.92423411 9 2 C6.36 1.67 3.72 1.34 1 1 C1 8.26 1 15.52 1 23 C-4.28 23 -9.56 23 -15 23 C-15 22.01 -15 21.02 -15 20 C-14.34 20.33 -13.68 20.66 -13 21 C-10.795636 21.22950319 -8.58607827 21.41075933 -6.375 21.5625 C-4.27125 21.706875 -2.1675 21.85125 0 22 C0 14.74 0 7.48 0 0 Z " fill="#47AE75" transform="translate(257,60)"/>
<path d="M0 0 C1.23556641 0.01740234 1.23556641 0.01740234 2.49609375 0.03515625 C3.32238281 0.04417969 4.14867188 0.05320313 5 0.0625 C5.63808594 0.07410156 6.27617187 0.08570313 6.93359375 0.09765625 C6.60359375 1.41765625 6.27359375 2.73765625 5.93359375 4.09765625 C4.61359375 4.42765625 3.29359375 4.75765625 1.93359375 5.09765625 C1.60359375 8.39765625 1.27359375 11.69765625 0.93359375 15.09765625 C-0.38640625 15.09765625 -1.70640625 15.09765625 -3.06640625 15.09765625 C-3.09326037 12.78521833 -3.11273466 10.47269355 -3.12890625 8.16015625 C-3.14050781 6.87238281 -3.15210937 5.58460937 -3.1640625 4.2578125 C-3.03692125 0.1435218 -3.03692125 0.1435218 0 0 Z " fill="#476AA4" transform="translate(123.06640625,45.90234375)"/>
<path d="M0 0 C0.99 0.33 1.98 0.66 3 1 C3 7.27 3 13.54 3 20 C1.68 20 0.36 20 -1 20 C-1.02888514 16.85418577 -1.04675923 13.70840531 -1.0625 10.5625 C-1.07087891 9.66466797 -1.07925781 8.76683594 -1.08789062 7.84179688 C-1.09111328 6.98779297 -1.09433594 6.13378906 -1.09765625 5.25390625 C-1.10551147 4.06776733 -1.10551147 4.06776733 -1.11352539 2.85766602 C-1 1 -1 1 0 0 Z " fill="#EFC739" transform="translate(102,41)"/>
<path d="M0 0 C1.32 0.33 2.64 0.66 4 1 C4 5.29 4 9.58 4 14 C1.92996855 13.48249214 -0.14207463 12.95032536 -2.15625 12.24609375 C-9.89406962 9.57654598 -17.8563845 8.35684213 -25.625 11.4375 C-26.800625 12.2109375 -26.800625 12.2109375 -28 13 C-28.99 13.495 -28.99 13.495 -30 14 C-29.04665128 11.6166282 -28.42265918 10.26604575 -26.21972656 8.87939453 C-23.71750342 7.88808264 -21.91809314 7.77028086 -19.234375 7.8046875 C-18.34492188 7.81113281 -17.45546875 7.81757812 -16.5390625 7.82421875 C-15.61867187 7.84097656 -14.69828125 7.85773437 -13.75 7.875 C-12.81414062 7.88402344 -11.87828125 7.89304687 -10.9140625 7.90234375 C-8.60911343 7.92586364 -6.3046884 7.95873147 -4 8 C-4 8.66 -4 9.32 -4 10 C-3.21625 10.144375 -2.4325 10.28875 -1.625 10.4375 C1 11 1 11 3 12 C3 8.7 3 5.4 3 2 C2.01 1.67 1.02 1.34 0 1 C0 0.67 0 0.34 0 0 Z " fill="#44B477" transform="translate(224,25)"/>
<path d="M0 0 C0.99 0.33 1.98 0.66 3 1 C3 1.66 3 2.32 3 3 C1.68 3 0.36 3 -1 3 C-0.814375 4.11375 -0.62875 5.2275 -0.4375 6.375 C0 10 0 10 -1 12 C0.32 12.33 1.64 12.66 3 13 C1.35 13 -0.3 13 -2 13 C-2 12.34 -2 11.68 -2 11 C-2.66 11 -3.32 11 -4 11 C-4.33 12.65 -4.66 14.3 -5 16 C-4.34 16.33 -3.68 16.66 -3 17 C-4.32 18.32 -5.64 19.64 -7 21 C-8.35908042 17.93617709 -7.89623023 16.67346169 -6.85546875 13.3984375 C-6.31102544 12.05256305 -5.75460876 10.71148203 -5.1875 9.375 C-4.91357422 8.694375 -4.63964844 8.01375 -4.35742188 7.3125 C-3.16976402 4.43022242 -2.22478133 2.22478133 0 0 Z " fill="#EBC433" transform="translate(90,41)"/>
<path d="M0 0 C7.50769231 -0.36923077 7.50769231 -0.36923077 10 1.5 C10.33 1.995 10.66 2.49 11 3 C10.01 3.33 9.02 3.66 8 4 C8 4.66 8 5.32 8 6 C3.71702469 7.05619003 -0.42985646 7.11702092 -4.8125 7.0625 C-5.50537109 7.05798828 -6.19824219 7.05347656 -6.91210938 7.04882812 C-8.60811068 7.03713156 -10.30406703 7.01919924 -12 7 C-12 6.67 -12 6.34 -12 6 C-7.71 6 -3.42 6 1 6 C1.33 4.35 1.66 2.7 2 1 C1.34 0.67 0.68 0.34 0 0 Z " fill="#E3B657" transform="translate(115,62)"/>
<path d="M0 0 C2.74999027 3.22824944 3.10429689 4.52148447 4 9 C-1.61 9 -7.22 9 -13 9 C-13.33 7.68 -13.66 6.36 -14 5 C-13.01 5.495 -13.01 5.495 -12 6 C-10.12943209 6.2275015 -8.25314042 6.40962811 -6.375 6.5625 C-4.87066406 6.68818359 -4.87066406 6.68818359 -3.3359375 6.81640625 C-2.56507813 6.87699219 -1.79421875 6.93757813 -1 7 C-1 6.01 -1 5.02 -1 4 C-1.66 3.67 -2.32 3.34 -3 3 C-2.01 3 -1.02 3 0 3 C0 2.01 0 1.02 0 0 Z " fill="#40B874" transform="translate(291,74)"/>
<path d="M0 0 C0.33 0 0.66 0 1 0 C1 3.63 1 7.26 1 11 C-6.92 11.33 -14.84 11.66 -23 12 C-23.33 15.3 -23.66 18.6 -24 22 C-25.65 21.67 -27.3 21.34 -29 21 C-29 20.34 -29 19.68 -29 19 C-27.68 18.67 -26.36 18.34 -25 18 C-25 15.36 -25 12.72 -25 10 C-16.75 10 -8.5 10 0 10 C0 6.7 0 3.4 0 0 Z " fill="#3AC97E" transform="translate(398,24)"/>
<path d="M0 0 C3.3 0 6.6 0 10 0 C10.33 1.32 10.66 2.64 11 4 C11.66 4.33 12.32 4.66 13 5 C6.565 5.495 6.565 5.495 0 6 C0 5.34 0 4.68 0 4 C0.66 3.67 1.32 3.34 2 3 C1.34 2.01 0.68 1.02 0 0 Z " fill="#657CA0" transform="translate(123,62)"/>
<path d="M0 0 C0.33 0 0.66 0 1 0 C1.02471738 4.78718692 1.04286825 9.5743367 1.05493164 14.36157227 C1.05996065 15.99015958 1.06678465 17.61874237 1.07543945 19.24731445 C1.08756769 21.58806472 1.09324263 23.9287553 1.09765625 26.26953125 C1.10281754 26.99775589 1.10797882 27.72598053 1.11329651 28.47627258 C1.11364279 31.59602288 0.99455604 34.01633188 0 37 C0.66 37.33 1.32 37.66 2 38 C1.67 38.66 1.34 39.32 1 40 C0.34 40 -0.32 40 -1 40 C-2.6875 38.25 -2.6875 38.25 -4 36 C-3.6875 33.75 -3.6875 33.75 -3 32 C-2.67 32.66 -2.34 33.32 -2 34 C-0.52793987 31.05587973 -0.76192808 28.03714085 -0.68359375 24.8046875 C-0.66281265 24.09724396 -0.64203156 23.38980042 -0.62062073 22.66091919 C-0.55518922 20.39904575 -0.49627026 18.13705538 -0.4375 15.875 C-0.39430867 14.34243578 -0.35069418 12.80988343 -0.30664062 11.27734375 C-0.19951445 7.51834927 -0.0982291 3.75923708 0 0 Z " fill="#3BC678" transform="translate(451,24)"/>
<path d="M0 0 C0.33 0 0.66 0 1 0 C1.01030746 0.55710159 1.02061493 1.11420319 1.03123474 1.68818665 C1.1393002 7.47933692 1.25389827 13.27033161 1.37231445 19.0612793 C1.41566313 21.2233556 1.45733825 23.38546613 1.49731445 25.54760742 C1.55501844 28.65293702 1.61871272 31.75809436 1.68359375 34.86328125 C1.70030624 35.83211746 1.71701874 36.80095367 1.73423767 37.79914856 C1.75418289 38.6998558 1.77412811 39.60056305 1.79467773 40.52856445 C1.81022202 41.32132278 1.8257663 42.11408112 1.84178162 42.93086243 C1.93081226 45.19739774 1.93081226 45.19739774 3 48 C1.68 47.67 0.36 47.34 -1 47 C-1.02481649 41.43156251 -1.04291507 35.86315759 -1.05493164 30.29467773 C-1.05994403 28.40241942 -1.06675567 26.51016495 -1.07543945 24.61791992 C-1.08764098 21.88980152 -1.09325938 19.16173457 -1.09765625 16.43359375 C-1.10281754 15.59477158 -1.10797882 14.7559494 -1.11329651 13.89170837 C-1.11374383 9.1519999 -0.79326968 4.67452688 0 0 Z " fill="#2A92D2" transform="translate(76,7)"/>
<path d="M0 0 C0.33 0 0.66 0 1 0 C1 3.96 1 7.92 1 12 C9.58 12 18.16 12 27 12 C27.33 12.99 27.66 13.98 28 15 C27.34 15 26.68 15 26 15 C26 14.34 26 13.68 26 13 C24.84999512 13.02356567 24.84999512 13.02356567 23.67675781 13.04760742 C20.20124698 13.10998974 16.72585399 13.14900162 13.25 13.1875 C12.0434375 13.21263672 10.836875 13.23777344 9.59375 13.26367188 C8.43359375 13.27333984 7.2734375 13.28300781 6.078125 13.29296875 C5.00981445 13.3086792 3.94150391 13.32438965 2.84082031 13.34057617 C-0.33115522 12.96029894 -1.67217242 12.12893092 -4 10 C-2.68 9.34 -1.36 8.68 0 8 C0 5.36 0 2.72 0 0 Z " fill="#4BB17A" transform="translate(373,58)"/>
<path d="M0 0 C0.99 0 1.98 0 3 0 C4.33257403 10.55808656 4.33257403 10.55808656 3 15 C2.01 15 1.02 15 0 15 C0 10.05 0 5.1 0 0 Z " fill="#4B69A2" transform="translate(132,46)"/>
<path d="M0 0 C0.33 0 0.66 0 1 0 C1 8.58 1 17.16 1 26 C-8 30 -8 30 -11 29 C-8.09399739 27.74335022 -6.20395416 27 -3 27 C-3 26.01 -3 25.02 -3 24 C-2.01 24 -1.02 24 0 24 C0 16.08 0 8.16 0 0 Z " fill="#3CB471" transform="translate(229,52)"/>
<path d="M0 0 C0.33 0.66 0.66 1.32 1 2 C0.06553465 4.03144641 -0.93224776 6.03533587 -2 8 C-2.99 7.34 -3.98 6.68 -5 6 C-4.67 5.34 -4.34 4.68 -4 4 C-6.97 3.505 -6.97 3.505 -10 3 C-10 2.67 -10 2.34 -10 2 C-6.7 1.34 -3.4 0.68 0 0 Z M-6 8 C-5.01 8 -4.02 8 -3 8 C-2.67 9.65 -2.34 11.3 -2 13 C-5.3 13 -8.6 13 -12 13 C-12 12.67 -12 12.34 -12 12 C-10.02 11.67 -8.04 11.34 -6 11 C-6 10.01 -6 9.02 -6 8 Z " fill="#3CC376" transform="translate(269,47)"/>
<path d="M0 0 C0.66 0.33 1.32 0.66 2 1 C2 1.99 2 2.98 2 4 C3.65 3.34 5.3 2.68 7 2 C6.67 3.65 6.34 5.3 6 7 C4.1875 7.625 4.1875 7.625 2 8 C1.01 7.34 0.02 6.68 -1 6 C-1.25 3.4375 -1.25 3.4375 -1 1 C-0.67 0.67 -0.34 0.34 0 0 Z " fill="#3A64AA" transform="translate(152,54)"/>
<path d="M0 0 C0.61875 0.33 1.2375 0.66 1.875 1 C7.24999892 2.71999966 12.75000108 2.71999966 18.125 1 C18.74375 0.67 19.3625 0.34 20 0 C20 0.99 20 1.98 20 3 C16.08049902 5.78490859 12.21387984 4.81114407 7.75 4.125 C7.00492188 4.02058594 6.25984375 3.91617188 5.4921875 3.80859375 C3.65985489 3.55018787 1.82967766 3.27657918 0 3 C0 2.01 0 1.02 0 0 Z " fill="#458CBE" transform="translate(30,74)"/>
<path d="M0 0 C1.2065625 0.0309375 1.2065625 0.0309375 2.4375 0.0625 C2.4375 0.7225 2.4375 1.3825 2.4375 2.0625 C1.4475 2.5575 1.4475 2.5575 0.4375 3.0625 C-0.03001788 5.41849235 -0.03001788 5.41849235 -0.1875 8.125 C-0.26226562 9.04410156 -0.33703125 9.96320312 -0.4140625 10.91015625 C-0.46304688 11.62042969 -0.51203125 12.33070312 -0.5625 13.0625 C-1.2225 12.7325 -1.8825 12.4025 -2.5625 12.0625 C-3.01171875 9.59375 -3.01171875 9.59375 -3.25 6.5625 C-3.33636719 5.5621875 -3.42273438 4.561875 -3.51171875 3.53125 C-3.52847656 2.7165625 -3.54523438 1.901875 -3.5625 1.0625 C-2.5625 0.0625 -2.5625 0.0625 0 0 Z " fill="#3969B3" transform="translate(143.5625,46.9375)"/>
<path d="M0 0 C4.51617599 -0.07654536 8.59085217 -0.10228696 13 1 C13 1.66 13 2.32 13 3 C8.71 3 4.42 3 0 3 C0 2.01 0 1.02 0 0 Z " fill="#5F86C9" transform="translate(134,63)"/>
<path d="M0 0 C0.66 0 1.32 0 2 0 C1.50886719 1.48693359 1.50886719 1.48693359 1.0078125 3.00390625 C-0.13913622 7.01822678 -0.19896279 10.75860244 -0.125 14.9375 C-0.11597656 15.62134766 -0.10695312 16.30519531 -0.09765625 17.00976562 C-0.07438958 18.67333287 -0.03853167 20.33671631 0 22 C-2.49111925 18.26332113 -2.29613477 15.32129024 -2.25 11 C-2.25773438 10.27554688 -2.26546875 9.55109375 -2.2734375 8.8046875 C-2.25942063 5.00611507 -2.15441944 3.23162916 0 0 Z " fill="#41B576" transform="translate(191,40)"/>
<path d="M0 0 C4.29 0.66 8.58 1.32 13 2 C8.60171741 4.1991413 5.81449408 4.51855059 1 5 C0.67 3.35 0.34 1.7 0 0 Z " fill="#FACA1D" transform="translate(101,64)"/>
<path d="M0 0 C4.55384615 -0.36923077 4.55384615 -0.36923077 6.8125 1.5 C7.204375 1.995 7.59625 2.49 8 3 C7.01 3.33 6.02 3.66 5 4 C5 4.66 5 5.32 5 6 C3.68 5.67 2.36 5.34 1 5 C0.67 3.35 0.34 1.7 0 0 Z " fill="#B2A27A" transform="translate(118,62)"/>
<path d="M0 0 C2.35119399 3.52679099 2.21443452 5.02879485 2.125 9.1875 C2.10695313 10.27417969 2.08890625 11.36085938 2.0703125 12.48046875 C2.03550781 13.72763672 2.03550781 13.72763672 2 15 C1.34 15 0.68 15 0 15 C-1.14229879 11.57310364 -0.90861076 9.38897782 -0.5625 5.8125 C-0.46066406 4.72582031 -0.35882813 3.63914063 -0.25390625 2.51953125 C-0.17011719 1.68808594 -0.08632813 0.85664062 0 0 Z " fill="#3FC17A" transform="translate(318,56)"/>
<path d="M0 0 C0.33 0 0.66 0 1 0 C1 3.96 1 7.92 1 12 C1.66 12.33 2.32 12.66 3 13 C0.03824877 12.38722388 -1.38058783 11.74627478 -4 10 C-2.68 9.34 -1.36 8.68 0 8 C0 5.36 0 2.72 0 0 Z " fill="#39BA76" transform="translate(373,58)"/>
<path d="M0 0 C0.66 0.33 1.32 0.66 2 1 C2 3.97 2 6.94 2 10 C1.01 10 0.02 10 -1 10 C-1.125 2.25 -1.125 2.25 0 0 Z " fill="#3B5FB2" transform="translate(134,49)"/>
<path d="M0 0 C0.99 0.33 1.98 0.66 3 1 C1.88121617 2.17262904 0.75476949 3.33795138 -0.375 4.5 C-1.00148438 5.1496875 -1.62796875 5.799375 -2.2734375 6.46875 C-4 8 -4 8 -6 8 C-4.55746343 4.63408134 -2.66735273 2.48952921 0 0 Z " fill="#3F8CBF" transform="translate(70,81)"/>
<path d="M0 0 C0.53625 0.763125 1.0725 1.52625 1.625 2.3125 C4.20205814 5.22864474 6.45814404 6.4705622 10 8 C6.99135897 8.96706319 4.94639752 9.27677226 2 8 C-0.02755186 5.06004981 0 3.72295997 0 0 Z " fill="#3CB777" transform="translate(191,62)"/>
<path d="M0 0 C0.33 0 0.66 0 1 0 C1.05429959 1.74965358 1.09292823 3.49979787 1.125 5.25 C1.14820313 6.22453125 1.17140625 7.1990625 1.1953125 8.203125 C0.99862781 11.0196498 0.44568916 12.60949036 -1 15 C-1.99 14.67 -2.98 14.34 -4 14 C-3.525625 13.175 -3.05125 12.35 -2.5625 11.5 C-0.76430401 7.47204099 -0.3765745 4.36826421 0 0 Z " fill="#468ABD" transform="translate(54,59)"/>
<path d="M0 0 C3.81936528 1.55603771 6.26044438 3.95604931 9 7 C9 7.66 9 8.32 9 9 C4.71930097 7.41455592 2.70478088 4.5312417 0 1 C0 0.67 0 0.34 0 0 Z " fill="#3E8BBE" transform="translate(7,80)"/>
<path d="M0 0 C1.32 0 2.64 0 4 0 C4.33 1.98 4.66 3.96 5 6 C3.35 6 1.7 6 0 6 C0 5.34 0 4.68 0 4 C0.66 3.67 1.32 3.34 2 3 C1.34 2.01 0.68 1.02 0 0 Z " fill="#827E7C" transform="translate(123,62)"/>
<path d="M0 0 C-0.33 1.65 -0.66 3.3 -1 5 C-2.98 5 -4.96 5 -7 5 C-6.1875 3.0625 -6.1875 3.0625 -5 1 C-2 0 -2 0 0 0 Z " fill="#FACE42" transform="translate(117,63)"/>
<path d="M0 0 C0.33 0 0.66 0 1 0 C1 3.63 1 7.26 1 11 C-0.65 10.67 -2.3 10.34 -4 10 C-4 9.34 -4 8.68 -4 8 C-2.68 7.67 -1.36 7.34 0 7 C0 4.69 0 2.38 0 0 Z " fill="#38BC73" transform="translate(373,35)"/>
<path d="M0 0 C2 2 2 2 2.1953125 4.1640625 C2.16050781 5.38222656 2.16050781 5.38222656 2.125 6.625 C2.10695313 7.44226562 2.08890625 8.25953125 2.0703125 9.1015625 C2.04710937 9.72804688 2.02390625 10.35453125 2 11 C1.34 11 0.68 11 0 11 C-1.125 3.375 -1.125 3.375 0 0 Z " fill="#42BE77" transform="translate(318,35)"/>
<path d="M0 0 C-3.75 3 -3.75 3 -6 3 C-6 2.01 -6 1.02 -6 0 C-3.50907189 -1.24546405 -2.58919267 -0.7767578 0 0 Z M-9 3 C-8.01 3.33 -7.02 3.66 -6 4 C-7.98 4.99 -7.98 4.99 -10 6 C-9.67 5.01 -9.34 4.02 -9 3 Z " fill="#3ABC70" transform="translate(196,24)"/>
<path d="M0 0 C2.50037734 2.17424117 3.43628586 3.73045798 4 7 C3.01 7.495 3.01 7.495 2 8 C0 6 0 6 -0.125 2.875 C-0.08375 1.92625 -0.0425 0.9775 0 0 Z " fill="#32BF6B" transform="translate(430,24)"/>
<path d="M0 0 C1.65 0 3.3 0 5 0 C4.67 1.32 4.34 2.64 4 4 C2.35 3.67 0.7 3.34 -1 3 C-0.67 2.01 -0.34 1.02 0 0 Z " fill="#4965AD" transform="translate(125,46)"/>
<path d="M0 0 C1.65 0 3.3 0 5 0 C4.67 1.32 4.34 2.64 4 4 C2.68 4.33 1.36 4.66 0 5 C0 3.35 0 1.7 0 0 Z " fill="#FCCC0E" transform="translate(89,44)"/>
<path d="M0 0 C0.598125 0.20625 1.19625 0.4125 1.8125 0.625 C1.4825 1.285 1.1525 1.945 0.8125 2.625 C-0.5075 2.625 -1.8275 2.625 -3.1875 2.625 C-3.1875 3.285 -3.1875 3.945 -3.1875 4.625 C-3.8475 4.295 -4.5075 3.965 -5.1875 3.625 C-5.1875 2.965 -5.1875 2.305 -5.1875 1.625 C-2.1875 -0.375 -2.1875 -0.375 0 0 Z " fill="#426AA2" transform="translate(147.1875,41.375)"/>
<path d="M0 0 C1.98 0.495 1.98 0.495 4 1 C4 1.99 4 2.98 4 4 C2.35 3.67 0.7 3.34 -1 3 C-0.67 2.01 -0.34 1.02 0 0 Z " fill="#496C9C" transform="translate(132,41)"/>
</svg>
