<?xml version="1.0" encoding="UTF-8"?>
<svg version="1.1" xmlns="http://www.w3.org/2000/svg" width="358" height="118">
<path d="M0 0 C5.94 0 11.88 0 18 0 C21.76341434 3.79403887 23.0957656 5.56288935 25.125 10.1875 C26.17012962 12.23329944 27.21569985 14.27887385 28.26171875 16.32421875 C28.73528809 17.31341309 29.20885742 18.30260742 29.69677734 19.32177734 C31.26110152 22.53658369 33.01967178 25.48396278 34.9375 28.5 C35.53433594 29.46292969 36.13117188 30.42585938 36.74609375 31.41796875 C42.11382181 39.97690022 47.56160246 48.48588142 53 57 C53.95353439 50.48474724 54.20970579 44.07935801 54.31640625 37.5 C54.33718735 36.42371338 54.35796844 35.34742676 54.37937927 34.23852539 C54.44437179 30.82574385 54.50352425 27.41289028 54.5625 24 C54.60573313 21.67577403 54.6493489 19.35155513 54.69335938 17.02734375 C54.80000114 11.35163491 54.90140803 5.67585415 55 0 C60.94 0 66.88 0 73 0 C73 30.36 73 60.72 73 92 C66.73 92 60.46 92 54 92 C48.08019147 84.68729534 48.08019147 84.68729534 46.4453125 81.0234375 C43.72382949 75.27910691 40.40714338 69.96066757 37.0625 64.5625 C35.87304579 62.60456269 34.68423873 60.64623207 33.49609375 58.6875 C28.81379429 51.02767843 23.93294335 43.50008734 19 36 C18.08461784 39.1137077 17.88336695 41.87985775 17.90234375 45.11987305 C17.90729858 46.64616585 17.90729858 46.64616585 17.91235352 48.20329285 C17.92065186 49.29507339 17.9289502 50.38685394 17.9375 51.51171875 C17.94128662 52.63568558 17.94507324 53.7596524 17.94897461 54.91767883 C17.96119629 58.50765802 17.97983583 62.09755715 18 65.6875 C18.02646814 70.42057058 18.04651341 75.1536025 18.0625 79.88671875 C18.07079834 80.98457199 18.07909668 82.08242523 18.08764648 83.21354675 C18.09094971 84.2216188 18.09425293 85.22969086 18.09765625 86.26831055 C18.10551147 87.60589668 18.10551147 87.60589668 18.11352539 88.97050476 C18 91 18 91 17 92 C11.39 92 5.78 92 0 92 C0 61.64 0 31.28 0 0 Z " fill="#0CF0A1" transform="translate(100,12)"/>
<path d="M0 0 C5.61 0 11.22 0 17 0 C22.58543387 7.33088196 22.58543387 7.33088196 24.0390625 10.734375 C25.869116 14.79830523 28.03067346 18.52779467 30.375 22.3125 C31.11868843 23.54857737 31.86084243 24.78557906 32.6015625 26.0234375 C35.29995247 30.50562437 38.02270594 34.97285612 40.75 39.4375 C41.19778809 40.17073486 41.64557617 40.90396973 42.10693359 41.65942383 C42.97215905 43.07356785 43.83945461 44.48644775 44.70898438 45.89794922 C45.60293515 47.35349313 46.48915424 48.81380333 47.36914062 50.27783203 C47.80935547 51.00212402 48.24957031 51.72641602 48.703125 52.47265625 C49.09661133 53.1262915 49.49009766 53.77992676 49.89550781 54.45336914 C50.93327044 56.16162693 50.93327044 56.16162693 53 57 C52.88410522 55.64165039 52.88410522 55.64165039 52.76586914 54.25585938 C51.89463277 42.63163654 52.07805699 31.14349595 52.4375 19.5 C52.49089234 17.5976746 52.54363058 15.69533073 52.59570312 13.79296875 C52.72175753 9.19498423 52.86112939 4.59768544 53 0 C58.94 0 64.88 0 71 0 C71 30.36 71 60.72 71 92 C65.06 92 59.12 92 53 92 C47.00022663 84.46540089 47.00022663 84.46540089 45.34765625 80.8203125 C42.90941435 75.70912042 40.02184469 70.94791424 37.0625 66.125 C36.05663121 64.44648702 35.05272997 62.76679342 34.05078125 61.0859375 C29.4243688 53.35584275 24.711074 45.67867967 20 38 C18.18285087 41.11478766 17.75764185 43.34689695 17.78881836 46.9362793 C17.79219711 47.91376633 17.79557587 48.89125336 17.79905701 49.89836121 C17.81251663 50.9463942 17.82597626 51.99442719 17.83984375 53.07421875 C17.84504532 54.15379349 17.85024689 55.23336823 17.85560608 56.34565735 C17.87342086 59.79307503 17.90460908 63.24019574 17.9375 66.6875 C17.965068 70.14548654 17.98976377 73.60343273 18.00868225 77.06147766 C18.02099291 79.2138494 18.03864759 81.3661981 18.06199646 83.51847839 C18.06852737 84.48650894 18.07505829 85.45453949 18.08178711 86.4519043 C18.09004013 87.3080986 18.09829315 88.16429291 18.10679626 89.0464325 C18 91 18 91 17 92 C11.39 92 5.78 92 0 92 C0 61.64 0 31.28 0 0 Z M17 34 C17.33 34.99 17.66 35.98 18 37 C18 36.01 18 35.02 18 34 C17.67 34 17.34 34 17 34 Z M53 57 C54 59 54 59 54 59 Z " fill="#09F4A1" transform="translate(186,12)"/>
<path d="M0 0 C6.6 0 13.2 0 20 0 C23.97366608 9.63192876 27.43518689 19.4398415 30.9375 29.25 C31.55126369 30.9649041 32.16519491 32.67974825 32.77929688 34.39453125 C37.19271048 46.72316058 37.19271048 46.72316058 39.3684082 52.85253906 C42.70658603 62.24383217 46.18005751 71.58163514 49.68945312 80.91015625 C50.11806641 82.05871094 50.54667969 83.20726563 50.98828125 84.390625 C51.37540283 85.42219727 51.76252441 86.45376953 52.16137695 87.51660156 C53 90 53 90 53 92 C46.4 92 39.8 92 33 92 C30.69 85.4 28.38 78.8 26 72 C15.44 71.67 4.88 71.34 -6 71 C-6.66 73.97 -7.32 76.94 -8 80 C-8.64183476 82.01511895 -9.32238888 84.01886604 -10.0625 86 C-10.40410156 86.928125 -10.74570312 87.85625 -11.09765625 88.8125 C-12 91 -12 91 -13 92 C-14.34267413 92.08631874 -15.68974322 92.10706473 -17.03515625 92.09765625 C-17.84404297 92.09443359 -18.65292969 92.09121094 -19.48632812 92.08789062 C-20.33646484 92.07951172 -21.18660156 92.07113281 -22.0625 92.0625 C-22.91650391 92.05798828 -23.77050781 92.05347656 -24.65039062 92.04882812 C-26.76695663 92.03700373 -28.88348685 92.01906769 -31 92 C-30.35950191 86.09756371 -28.19701297 80.9248984 -26.0625 75.4375 C-16.57697605 50.57855644 -8.36940994 25.25143264 0 0 Z M10 23 C5.82942453 33.82795369 2.47328171 44.9344056 -1 56 C1.34852528 57.17426264 2.73774065 57.11508173 5.3515625 57.09765625 C6.20234375 57.09443359 7.053125 57.09121094 7.9296875 57.08789062 C9.26386719 57.07532227 9.26386719 57.07532227 10.625 57.0625 C11.5221875 57.05798828 12.419375 57.05347656 13.34375 57.04882812 C15.56256648 57.03702591 17.78125018 57.02056155 20 57 C21.63164223 52.9496361 20.281401 50.04210661 18.91015625 46.046875 C18.68678085 45.38665344 18.46340546 44.72643188 18.23326111 44.04620361 C17.51948457 41.94397078 16.79124222 39.84708609 16.0625 37.75 C15.57520886 36.32324521 15.08886946 34.89616499 14.60351562 33.46875 C13.41335299 29.97532671 12.21016848 26.48655075 11 23 C10.67 23 10.34 23 10 23 Z " fill="#09F2A2" transform="translate(40,12)"/>
<path d="M0 0 C0.83265381 0.00523682 1.66530762 0.01047363 2.52319336 0.01586914 C3.42231445 0.0190918 4.32143555 0.02231445 5.24780273 0.02563477 C6.66609375 0.03820313 6.66609375 0.03820313 8.11303711 0.05102539 C9.06243164 0.05553711 10.01182617 0.06004883 10.98999023 0.06469727 C13.34356776 0.07652429 15.69702188 0.09300514 18.05053711 0.11352539 C18.23464645 0.63493103 18.4187558 1.15633667 18.60844421 1.69354248 C30.04395431 34.08565934 30.04395431 34.08565934 41.59854126 66.4354248 C42.14619892 67.96059651 42.69258313 69.48622614 43.23764038 71.0123291 C43.99189741 73.12292886 44.75097714 75.23173004 45.51147461 77.34008789 C45.93219238 78.5113623 46.35291016 79.68263672 46.78637695 80.8894043 C48.0158377 84.170733 48.0158377 84.170733 49.70922852 87.41186523 C51.05053711 90.11352539 51.05053711 90.11352539 51.05053711 92.11352539 C44.45053711 92.11352539 37.85053711 92.11352539 31.05053711 92.11352539 C28.07577686 85.03564756 26.11677295 78.68972349 24.05053711 71.11352539 C8.21053711 71.60852539 8.21053711 71.60852539 -7.94946289 72.11352539 C-10.25946289 78.71352539 -12.56946289 85.31352539 -14.94946289 92.11352539 C-21.21946289 92.11352539 -27.48946289 92.11352539 -33.94946289 92.11352539 C-31.9167739 85.18695061 -29.70844433 78.35604997 -27.32446289 71.54321289 C-26.98072632 70.55507599 -26.63698975 69.56693909 -26.28283691 68.54885864 C-25.17366145 65.36139825 -24.06162263 62.17494561 -22.94946289 58.98852539 C-21.41728221 54.59041169 -19.88641392 50.19184175 -18.35571289 45.79321289 C-17.97789673 44.70812439 -17.60008057 43.62303589 -17.21081543 42.50506592 C-14.92863145 35.94573771 -12.66274524 29.38114265 -10.41821289 22.80883789 C-10.1584668 22.04892548 -9.8987207 21.28901306 -9.63110352 20.506073 C-8.44571246 17.03647818 -7.26368411 13.56578543 -6.08618164 10.09350586 C-5.68012695 8.9038623 -5.27407227 7.71421875 -4.85571289 6.48852539 C-4.50831055 5.46500977 -4.1609082 4.44149414 -3.80297852 3.38696289 C-2.58799343 0.1507097 -2.58799343 0.1507097 0 0 Z M7.05053711 23.11352539 C5.59233081 27.14656185 4.15042874 31.18495175 2.72314453 35.22900391 C2.2356911 36.60297177 1.74387154 37.97539894 1.24755859 39.34619141 C0.53352684 41.32070049 -0.16444578 43.30027906 -0.85961914 45.28149414 C-1.28380127 46.47025146 -1.7079834 47.65900879 -2.14501953 48.88378906 C-3.26365231 52.39420461 -3.26365231 52.39420461 -1.94946289 57.11352539 C4.98053711 57.11352539 11.91053711 57.11352539 19.05053711 57.11352539 C17.40185688 49.69446437 15.44729097 42.7864192 13.05053711 35.61352539 C12.69475586 34.51782227 12.33897461 33.42211914 11.97241211 32.29321289 C11.62694336 31.25422852 11.28147461 30.21524414 10.92553711 29.14477539 C10.61358398 28.20182617 10.30163086 27.25887695 9.98022461 26.28735352 C9.25643912 23.94709235 9.25643912 23.94709235 7.05053711 23.11352539 Z " fill="#06F3A4" transform="translate(296.949462890625,11.886474609375)"/>
<path d="M0 0 C7 0 7 0 10 1 C10.66 0.67 11.32 0.34 12 0 C12.33 0.66 12.66 1.32 13 2 C13.99 2.33 14.98 2.66 16 3 C16 4.32 16 5.64 16 7 C16.66 7 17.32 7 18 7 C18.33 10.3 18.66 13.6 19 17 C19.99 17.33 20.98 17.66 22 18 C22 17.34 22 16.68 22 16 C22.99 16 23.98 16 25 16 C25.64995297 17.41478135 26.29478722 18.83191487 26.9375 20.25 C27.29714844 21.03890625 27.65679687 21.8278125 28.02734375 22.640625 C28.90033279 24.75823698 29.51338508 26.76669362 30 29 C28.68 29 27.36 29 26 29 C26 29.99 26 30.98 26 32 C23.69 32.66 21.38 33.32 19 34 C18.67 33.01 18.34 32.02 18 31 C16.02 31.99 16.02 31.99 14 33 C14 51.15 14 69.3 14 88 C9.38 88 4.76 88 0 88 C0 58.96 0 29.92 0 0 Z " fill="#0CF69A" transform="translate(102,14)"/>
<path d="M0 0 C1.22459572 4.06550397 0.50260754 6.44779584 -0.8125 10.5 C-1.16957031 11.6240625 -1.52664063 12.748125 -1.89453125 13.90625 C-3 17 -3 17 -4.12109375 19.22265625 C-5.44201747 21.89385755 -5.23980567 24.06238058 -5 27 C-4.08742694 29.78566059 -4.08742694 29.78566059 -3 32 C-2.34 32 -1.68 32 -1 32 C-0.67 32.99 -0.34 33.98 0 35 C0.65701904 34.50653076 1.31403809 34.01306152 1.9909668 33.50463867 C5.80275585 31.59858951 9.00084244 31.71653082 13.14453125 31.92578125 C13.91431808 31.95222214 14.68410492 31.97866302 15.47721863 32.00590515 C17.92313393 32.09330751 20.36750361 32.20257739 22.8125 32.3125 C24.475857 32.3757966 26.13926915 32.43766137 27.80273438 32.49804688 C31.86931513 32.64878937 35.9346518 32.81914189 40 33 C41.17192435 36.12305373 42.33663876 39.24874739 43.5 42.375 C43.83386719 43.26445313 44.16773438 44.15390625 44.51171875 45.0703125 C44.82753906 45.92109375 45.14335937 46.771875 45.46875 47.6484375 C45.76201172 48.43395996 46.05527344 49.21948242 46.35742188 50.02880859 C47 52 47 52 47 54 C51.95 53.67 56.9 53.34 62 53 C61.29423828 51.22496094 61.29423828 51.22496094 60.57421875 49.4140625 C54.51708892 34.07495706 54.51708892 34.07495706 52.5078125 26.75 C52.03195908 24.91372223 52.03195908 24.91372223 51 23 C50.960008 21.00039988 50.95653201 18.99952758 51 17 C53.04469193 20.06703789 54.06901263 22.73404809 55.27734375 26.20703125 C55.70853516 27.43357422 56.13972656 28.66011719 56.58398438 29.92382812 C57.03562019 31.21989051 57.48678817 32.51611601 57.9375 33.8125 C58.81705648 36.34150382 59.70193467 38.8684233 60.58984375 41.39453125 C61.17560181 43.07832886 61.17560181 43.07832886 61.77319336 44.79614258 C62.9627171 48.06160878 62.9627171 48.06160878 64.65063477 51.2878418 C66 54 66 54 66 56 C59.4 56 52.8 56 46 56 C43.02523975 48.92212217 41.06623585 42.5761981 39 35 C23.16 35.495 23.16 35.495 7 36 C4.69 42.6 2.38 49.2 0 56 C-6.27 56 -12.54 56 -19 56 C-16.9233273 48.91289778 -14.64900483 41.92980199 -12.20703125 34.9609375 C-11.85613937 33.95406891 -11.5052475 32.94720032 -11.14372253 31.90982056 C-10.03533706 28.73083725 -8.92397116 25.5529056 -7.8125 22.375 C-7.05514031 20.20449624 -6.29797698 18.03392396 -5.54101562 15.86328125 C-3.69627842 10.57472695 -1.84910079 5.28703008 0 0 Z " fill="#02E8AE" transform="translate(282,48)"/>
<path d="M0 0 C0.33 0 0.66 0 1 0 C0.85831863 1.43791516 0.71148957 2.8753237 0.5625 4.3125 C0.48128906 5.11300781 0.40007813 5.91351563 0.31640625 6.73828125 C0 9 0 9 -1 12 C-0.34 12 0.32 12 1 12 C0.67 13.32 0.34 14.64 0 16 C0.66 16.33 1.32 16.66 2 17 C2.33 16.34 2.66 15.68 3 15 C3.125 19.75 3.125 19.75 2 22 C2.99 22.33 3.98 22.66 5 23 C5.66 22.67 6.32 22.34 7 22 C7.66 22.33 8.32 22.66 9 23 C9.33 20.36 9.66 17.72 10 15 C14.80567423 15.11811006 19.61113568 15.24234823 24.41650391 15.37231445 C26.05187653 15.41567538 27.68729477 15.45734961 29.32275391 15.49731445 C31.67103841 15.55498912 34.01909304 15.61869129 36.3671875 15.68359375 C37.10057343 15.70030624 37.83395935 15.71701874 38.58956909 15.73423767 C43.77225659 15.88612829 43.77225659 15.88612829 46 17 C46.7198959 18.84782997 47.35214826 20.73024697 47.9375 22.625 C49.40278033 27.22389483 51.00399882 31.60879741 53 36 C57.95 36 62.9 36 68 36 C67.57847656 35.01 67.15695313 34.02 66.72265625 33 C66.16875469 31.666881 65.61539843 30.33353535 65.0625 29 C64.78470703 28.35160156 64.50691406 27.70320313 64.22070312 27.03515625 C62.28519888 22.32465193 61.44748523 18.07527556 61 13 C63.27629118 15.27629118 63.85710124 16.92615211 64.9453125 19.9375 C65.29980469 20.91460937 65.65429688 21.89171875 66.01953125 22.8984375 C66.38433594 23.92195313 66.74914062 24.94546875 67.125 26 C67.49753906 27.02351563 67.87007813 28.04703125 68.25390625 29.1015625 C71 36.72624771 71 36.72624771 71 39 C64.4 39 57.8 39 51 39 C48.69 32.4 46.38 25.8 44 19 C33.44 18.67 22.88 18.34 12 18 C11.34 20.97 10.68 23.94 10 27 C9.35816524 29.01511895 8.67761112 31.01886604 7.9375 33 C7.59589844 33.928125 7.25429688 34.85625 6.90234375 35.8125 C6 38 6 38 5 39 C3.65732587 39.08631874 2.31025678 39.10706473 0.96484375 39.09765625 C0.15595703 39.09443359 -0.65292969 39.09121094 -1.48632812 39.08789062 C-2.33646484 39.07951172 -3.18660156 39.07113281 -4.0625 39.0625 C-4.91650391 39.05798828 -5.77050781 39.05347656 -6.65039062 39.04882812 C-8.76695663 39.03700373 -10.88348685 39.01906769 -13 39 C-12.42077043 34.92553584 -11.51577228 31.31863242 -10.0390625 27.48046875 C-9.64976563 26.45759766 -9.26046875 25.43472656 -8.859375 24.38085938 C-8.45203125 23.32705078 -8.0446875 22.27324219 -7.625 21.1875 C-4.93285754 14.16621878 -2.31762211 7.15472374 0 0 Z " fill="#02E8AC" transform="translate(22,65)"/>
<path d="M0 0 C5.94 0 11.88 0 18 0 C18 30.36 18 60.72 18 92 C12.06 92 6.12 92 0 92 C-6.00095657 84.46391501 -6.00095657 84.46391501 -7.65625 80.81640625 C-10.08160614 75.73336819 -12.93921336 70.98886653 -15.875 66.1875 C-16.8766846 64.50413381 -17.8779836 62.8205381 -18.87890625 61.13671875 C-21.00793536 57.59331391 -23.20676533 54.10708649 -25.46484375 50.64453125 C-26.02510254 49.78126221 -26.58536133 48.91799316 -27.16259766 48.02856445 C-28.24127019 46.37544054 -29.33040274 44.72908263 -30.43115234 43.09057617 C-30.91406738 42.34912354 -31.39698242 41.6076709 -31.89453125 40.84375 C-32.32612549 40.19599609 -32.75771973 39.54824219 -33.20239258 38.88085938 C-34.20091334 36.52622088 -33.84822014 35.36334394 -33 33 C-32.62488281 33.71285156 -32.24976563 34.42570312 -31.86328125 35.16015625 C-29.48460546 39.61193486 -27.15962383 43.95673329 -24.125 48 C-22 51 -22 51 -22 54 C-21.34 54 -20.68 54 -20 54 C-18.4921875 56.08203125 -18.4921875 56.08203125 -16.875 58.8125 C-16.33617187 59.70582031 -15.79734375 60.59914062 -15.2421875 61.51953125 C-14 64 -14 64 -14 67 C-12.515 67.495 -12.515 67.495 -11 68 C-9.60546875 70.15234375 -9.60546875 70.15234375 -8.1875 72.9375 C-7.38699219 74.41669922 -7.38699219 74.41669922 -6.5703125 75.92578125 C-5 79 -5 79 -3.8046875 81.91796875 C-2.4837676 85.09471662 -2.4837676 85.09471662 1 89 C5.95 89.33 10.9 89.66 16 90 C16 60.96 16 31.92 16 2 C11.38 2 6.76 2 2 2 C2 21.14 2 40.28 2 60 C1.01 59.505 1.01 59.505 0 59 C-0.97693256 45.74264827 -0.97635339 32.65603867 -0.5625 19.375 C-0.50908095 17.48179003 -0.45634325 15.58856071 -0.40429688 13.6953125 C-0.27858733 9.12986123 -0.13905068 4.56514071 0 0 Z " fill="#33DBB0" transform="translate(239,12)"/>
<path d="M0 0 C0.83265381 0.00523682 1.66530762 0.01047363 2.52319336 0.01586914 C3.33280518 0.0183667 4.14241699 0.02086426 4.9765625 0.0234375 C6.01159912 0.0325415 7.04663574 0.04164551 8.11303711 0.05102539 C11.39241211 0.07165039 14.67178711 0.09227539 18.05053711 0.11352539 C22.01053711 11.33352539 25.97053711 22.55352539 30.05053711 34.11352539 C29.06053711 34.60852539 29.06053711 34.60852539 28.05053711 35.11352539 C25.08053711 27.68852539 25.08053711 27.68852539 22.05053711 20.11352539 C21.06053711 20.44352539 20.07053711 20.77352539 19.05053711 21.11352539 C16.86303711 20.67602539 16.86303711 20.67602539 15.05053711 20.11352539 C15.05053711 15.11352539 15.05053711 10.11352539 15.05053711 5.11352539 C11.73982872 4.11243024 8.74968942 4.00996405 5.30053711 4.05102539 C4.31569336 4.06004883 3.33084961 4.06907227 2.31616211 4.07836914 C1.19467773 4.09577148 1.19467773 4.09577148 0.05053711 4.11352539 C0.07116211 5.18602539 0.09178711 6.25852539 0.11303711 7.36352539 C0.06348241 10.33680713 -0.205479 12.32358578 -0.94946289 15.11352539 C-0.9873319 16.77976178 -0.99574134 18.44750136 -0.94946289 20.11352539 C-2.26946289 20.44352539 -3.58946289 20.77352539 -4.94946289 21.11352539 C-5.07321289 21.71165039 -5.19696289 22.30977539 -5.32446289 22.92602539 C-5.94946289 25.11352539 -5.94946289 25.11352539 -7.94946289 28.11352539 C-8.60946289 28.11352539 -9.26946289 28.11352539 -9.94946289 28.11352539 C-10.60946289 30.75352539 -11.26946289 33.39352539 -11.94946289 36.11352539 C-12.60946289 36.11352539 -13.26946289 36.11352539 -13.94946289 36.11352539 C-13.22641062 31.96579892 -12.02789894 28.0905654 -10.69946289 24.09790039 C-10.48128906 23.44146545 -10.26311523 22.78503052 -10.03833008 22.10870361 C-9.57919252 20.72993619 -9.11855418 19.35166773 -8.65649414 17.97387695 C-7.94755757 15.85783837 -7.24509427 13.73972569 -6.54321289 11.62133789 C-6.09568127 10.28006352 -5.64777777 8.93891316 -5.19946289 7.59790039 C-4.79211914 6.378125 -4.38477539 5.15834961 -3.96508789 3.90161133 C-2.59896773 0.15134878 -2.59896773 0.15134878 0 0 Z " fill="#26F2A1" transform="translate(296.949462890625,11.886474609375)"/>
<path d="M0 0 C2.27629118 2.27629118 2.85710124 3.92615211 3.9453125 6.9375 C4.29980469 7.91460937 4.65429688 8.89171875 5.01953125 9.8984375 C5.56673828 11.43371094 5.56673828 11.43371094 6.125 13 C6.49753906 14.02351563 6.87007813 15.04703125 7.25390625 16.1015625 C10 23.72624771 10 23.72624771 10 26 C3.4 26 -3.2 26 -10 26 C-12.31 19.4 -14.62 12.8 -17 6 C-27.56 5.67 -38.12 5.34 -49 5 C-49.66 7.97 -50.32 10.94 -51 14 C-51.64183476 16.01511895 -52.32238888 18.01886604 -53.0625 20 C-53.40410156 20.928125 -53.74570312 21.85625 -54.09765625 22.8125 C-55 25 -55 25 -56 26 C-57.34267413 26.08631874 -58.68974322 26.10706473 -60.03515625 26.09765625 C-60.84404297 26.09443359 -61.65292969 26.09121094 -62.48632812 26.08789062 C-63.33646484 26.07951172 -64.18660156 26.07113281 -65.0625 26.0625 C-65.91650391 26.05798828 -66.77050781 26.05347656 -67.65039062 26.04882812 C-69.76695663 26.03700373 -71.88348685 26.01906769 -74 26 C-74 25.01 -74 24.02 -74 23 C-68.72 23.33 -63.44 23.66 -58 24 C-56.9057191 17.51854497 -56.9057191 17.51854497 -57 13 C-56 10.75 -56 10.75 -55 9 C-54.01 9.33 -53.02 9.66 -52 10 C-51.67 7.36 -51.34 4.72 -51 2 C-46.19432577 2.11811006 -41.38886432 2.24234823 -36.58349609 2.37231445 C-34.94812347 2.41567538 -33.31270523 2.45734961 -31.67724609 2.49731445 C-29.32896159 2.55498912 -26.98090696 2.61869129 -24.6328125 2.68359375 C-23.89942657 2.70030624 -23.16604065 2.71701874 -22.41043091 2.73423767 C-17.22774341 2.88612829 -17.22774341 2.88612829 -15 4 C-14.2801041 5.84782997 -13.64785174 7.73024697 -13.0625 9.625 C-11.59721967 14.22389483 -9.99600118 18.60879741 -8 23 C-3.05 23 1.9 23 7 23 C6.36771484 21.515 6.36771484 21.515 5.72265625 20 C5.16875469 18.666881 4.61539843 17.33353535 4.0625 16 C3.78470703 15.35160156 3.50691406 14.70320313 3.22070312 14.03515625 C1.28519888 9.32465193 0.44748523 5.07527556 0 0 Z " fill="#29D8BF" transform="translate(83,78)"/>
<path d="M0 0 C17 0 17 0 20.3828125 2.89453125 C21.34033203 4.77661133 21.34033203 4.77661133 22.125 6.8125 C22.78953848 8.18852982 23.45622842 9.56352255 24.125 10.9375 C24.43179688 11.62328125 24.73859375 12.3090625 25.0546875 13.015625 C26.46296025 15.97183391 28.2851297 18.61019049 30.125 21.3125 C31.8828125 23.92578125 31.8828125 23.92578125 33 26 C32.67 26.66 32.34 27.32 32 28 C31.34 26.68 30.68 25.36 30 24 C29.34 24 28.68 24 28 24 C27.72027344 23.47792969 27.44054687 22.95585938 27.15234375 22.41796875 C24.12935232 16.8677176 20.83547123 11.56081033 17.35546875 6.28515625 C16 4 16 4 16 2 C11.38 2 6.76 2 2 2 C1.67 31.37 1.34 60.74 1 91 C5.95 91 10.9 91 16 91 C15.99476318 89.51153564 15.98952637 88.02307129 15.98413086 86.48950195 C15.96602211 80.96379193 15.95454646 75.43808453 15.94506836 69.91235352 C15.9400416 67.52139851 15.93321925 65.13044657 15.92456055 62.73950195 C15.91242253 59.30158734 15.90675508 55.86371339 15.90234375 52.42578125 C15.89718246 51.35789871 15.89202118 50.29001617 15.88670349 49.18977356 C15.88662796 48.18911362 15.88655243 47.18845367 15.88647461 46.1574707 C15.884254 45.28032913 15.88203339 44.40318756 15.87974548 43.49946594 C16.00422191 40.91224853 16.42888096 38.52321004 17 36 C17.66 36.33 18.32 36.66 19 37 C18.83701416 37.72084778 18.67402832 38.44169556 18.50610352 39.18438721 C18.02022722 41.88746961 17.88558079 44.30860983 17.90234375 47.04980469 C17.90729858 48.51592194 17.90729858 48.51592194 17.91235352 50.01165771 C17.92065186 51.05452942 17.9289502 52.09740112 17.9375 53.171875 C17.94128662 54.25003479 17.94507324 55.32819458 17.94897461 56.43902588 C17.96117702 59.8760581 17.97981913 63.31300591 18 66.75 C18.02647369 71.28645586 18.04651052 75.82287148 18.0625 80.359375 C18.07079834 81.41034363 18.07909668 82.46131226 18.08764648 83.54412842 C18.09260132 84.9913327 18.09260132 84.9913327 18.09765625 86.46777344 C18.10551147 87.74754059 18.10551147 87.74754059 18.11352539 89.05316162 C18 91 18 91 17 92 C11.39 92 5.78 92 0 92 C0 61.64 0 31.28 0 0 Z " fill="#34D9B1" transform="translate(186,12)"/>
<path d="M0 0 C5.94 0 11.88 0 18 0 C21.86900041 3.95905473 23.35740812 5.90717947 25.5 10.6875 C26.02207031 11.69490234 26.54414062 12.70230469 27.08203125 13.74023438 C29.29542091 18.07264436 31.22579031 22.47117683 33 27 C32.34 26.67 31.68 26.34 31 26 C31 25.34 31 24.68 31 24 C30.34 24 29.68 24 29 24 C28.34 22.02 27.68 20.04 27 18 C26.01 18 25.02 18 24 18 C24 18.66 24 19.32 24 20 C22.68 20 21.36 20 20 20 C20 16.37 20 12.74 20 9 C19.34 9 18.68 9 18 9 C17.67 7.68 17.34 6.36 17 5 C16.01 5 15.02 5 14 5 C13.67 4.34 13.34 3.68 13 3 C12.01 3.495 12.01 3.495 11 4 C6.545 3.01 6.545 3.01 2 2 C1.67 31.37 1.34 60.74 1 91 C6.28 91 11.56 91 17 91 C17 91.33 17 91.66 17 92 C11.39 92 5.78 92 0 92 C0 61.64 0 31.28 0 0 Z " fill="#2FD6A1" transform="translate(100,12)"/>
<path d="M0 0 C2.04469193 3.06703789 3.06901263 5.73404809 4.27734375 9.20703125 C4.70853516 10.43357422 5.13972656 11.66011719 5.58398438 12.92382812 C6.03562019 14.21989051 6.48678817 15.51611601 6.9375 16.8125 C7.81705648 19.34150382 8.70193467 21.8684233 9.58984375 24.39453125 C9.98034912 25.51706299 10.37085449 26.63959473 10.77319336 27.79614258 C11.9627171 31.06160878 11.9627171 31.06160878 13.65063477 34.2878418 C15 37 15 37 15 39 C8.4 39 1.8 39 -5 39 C-7.97476025 31.92212217 -9.93376415 25.5761981 -12 18 C-27.84 18.495 -27.84 18.495 -44 19 C-44.99 21.97 -45.98 24.94 -47 28 C-47.33 28 -47.66 28 -48 28 C-47.67 24.7 -47.34 21.4 -47 18 C-47.66 17.67 -48.32 17.34 -49 17 C-45.2256582 14.48377213 -42.39778849 14.83685163 -38.05078125 15.0234375 C-37.27816452 15.04846344 -36.50554779 15.07348938 -35.70951843 15.09927368 C-33.2433946 15.18140352 -30.77808012 15.27801875 -28.3125 15.375 C-26.64000695 15.43324683 -24.96748075 15.49054996 -23.29492188 15.546875 C-19.19614963 15.6869716 -15.098044 15.84006091 -11 16 C-9.82807565 19.12305373 -8.66336124 22.24874739 -7.5 25.375 C-7.16613281 26.26445313 -6.83226562 27.15390625 -6.48828125 28.0703125 C-6.17246094 28.92109375 -5.85664063 29.771875 -5.53125 30.6484375 C-5.23798828 31.43395996 -4.94472656 32.21948242 -4.64257812 33.02880859 C-4 35 -4 35 -4 37 C0.95 36.67 5.9 36.34 11 36 C10.52949219 34.81664062 10.05898438 33.63328125 9.57421875 32.4140625 C3.51708892 17.07495706 3.51708892 17.07495706 1.5078125 9.75 C1.03195908 7.91372223 1.03195908 7.91372223 0 6 C-0.039992 4.00039988 -0.04346799 1.99952758 0 0 Z " fill="#2AE2CA" transform="translate(333,65)"/>
<path d="M0 0 C0.33 0 0.66 0 1 0 C1 23.1 1 46.2 1 70 C5.62 70 10.24 70 15 70 C14.75443359 67.48826172 14.75443359 67.48826172 14.50390625 64.92578125 C13.7167258 54.69243538 13.89374164 44.44429366 13.9375 34.1875 C13.94252612 32.12695422 13.94708705 30.06640724 13.95117188 28.00585938 C13.9620869 23.00387639 13.97928996 18.00195163 14 13 C16.37597656 12.87426758 16.37597656 12.87426758 19 13 C20.984375 15.01171875 20.984375 15.01171875 22.75 17.6875 C23.34296875 18.55761719 23.9359375 19.42773438 24.546875 20.32421875 C25.97490734 22.95379442 26.59653973 25.05367827 27 28 C24.49280542 25.67350413 22.67816399 23.17318479 20.8125 20.3125 C20.28269531 19.50425781 19.75289062 18.69601563 19.20703125 17.86328125 C18.80871094 17.24839844 18.41039063 16.63351563 18 16 C17.08536593 19.1155829 16.87845039 21.89395628 16.88647461 25.13574219 C16.88658791 26.66687653 16.88658791 26.66687653 16.88670349 28.22894287 C16.89186478 29.32386047 16.89702606 30.41877808 16.90234375 31.546875 C16.9037587 32.6732135 16.90517365 33.799552 16.90663147 34.96002197 C16.91222801 38.55670835 16.9247799 42.15333244 16.9375 45.75 C16.94251545 48.18880118 16.94707828 50.62760334 16.95117188 53.06640625 C16.96219631 59.04429483 16.9794586 65.02213685 17 71 C11.39 71 5.78 71 0 71 C0 47.57 0 24.14 0 0 Z " fill="#23EEC4" transform="translate(101,32)"/>
<path d="M0 0 C6.6 0 13.2 0 20 0 C22.36358834 5.77766038 24.64384649 11.5837374 26.8125 17.4375 C27.25207031 18.61183594 27.69164062 19.78617188 28.14453125 20.99609375 C29 24 29 24 28 27 C27.32404685 25.58774074 26.65959941 24.16997095 26 22.75 C25.62875 21.96109375 25.2575 21.1721875 24.875 20.359375 C24 18 24 18 24 14 C23.01 14.33 22.02 14.66 21 15 C19.5 13.625 19.5 13.625 18 12 C18 11.34 18 10.68 18 10 C17.34 9.67 16.68 9.34 16 9 C16.66 9 17.32 9 18 9 C18 8.01 18 7.02 18 6 C17.34 5.67 16.68 5.34 16 5 C15.67 4.67 15.34 4.34 15 4 C12.98035801 3.92755947 10.95832876 3.91622812 8.9375 3.9375 C7.83277344 3.94652344 6.72804688 3.95554687 5.58984375 3.96484375 C4.73519531 3.97644531 3.88054688 3.98804688 3 4 C3 5.32 3 6.64 3 8 C2.55505645 9.59967799 2.05261616 11.18425423 1.5 12.75 C1.2215625 13.54921875 0.943125 14.3484375 0.65625 15.171875 C0.33140625 16.07679687 0.33140625 16.07679687 0 17 C-0.66 17 -1.32 17 -2 17 C-2 16.01 -2 15.02 -2 14 C-4.47197926 21.29233882 -6.75723186 28.63415742 -9 36 C-9.66 36 -10.32 36 -11 36 C-9.44435164 28.0764504 -6.97360331 20.57495755 -4.375 12.9375 C-3.95476563 11.69033203 -3.53453125 10.44316406 -3.1015625 9.15820312 C-2.07181966 6.10407947 -1.03647576 3.05184528 0 0 Z " fill="#27F38E" transform="translate(40,12)"/>
<path d="M0 0 C0.33 0 0.66 0 1 0 C1 23.43 1 46.86 1 71 C-5.27 71 -11.54 71 -18 71 C-22.11340082 66.78250496 -23.73142831 64.59612724 -26.0625 59.5 C-27.26014015 57.20620634 -28.45936217 54.91323792 -29.66015625 52.62109375 C-30.21977051 51.49300293 -30.77938477 50.36491211 -31.35595703 49.20263672 C-33.61974942 44.79271267 -36.2646786 40.69025056 -39 36.5625 C-40.4276262 34.39996741 -41.7407854 32.26973432 -43 30 C-42.67 29.34 -42.34 28.68 -42 28 C-41.03760548 29.24687592 -40.08025991 30.49764969 -39.125 31.75 C-38.59132812 32.44609375 -38.05765625 33.1421875 -37.5078125 33.859375 C-36 36 -36 36 -35.02734375 38.18359375 C-34.0148446 40.43053603 -34.0148446 40.43053603 -30.4375 41.3125 C-29.303125 41.869375 -28.16875 42.42625 -27 43 C-26.3125 46.125 -26.3125 46.125 -26 50 C-25.21662269 52.29478462 -24.26531896 54.40801285 -23.19140625 56.58203125 C-22 59 -22 59 -20.96484375 61.76171875 C-19.67371535 65.00884329 -19.67371535 65.00884329 -16 69 C-10.72 69.33 -5.44 69.66 0 70 C0 46.9 0 23.8 0 0 Z " fill="#24F4D0" transform="translate(171,32)"/>
<path d="M0 0 C0.33 0 0.66 0 1 0 C1.68160898 20.67486827 2.17071683 41.31174684 2 62 C3.32 62.33 4.64 62.66 6 63 C6.33 61.35 6.66 59.7 7 58 C8.32 58.33 9.64 58.66 11 59 C10.79375 57.948125 10.5875 56.89625 10.375 55.8125 C10.00036896 52.00375113 10.28369933 50.33164248 12 47 C15.2491944 52.16800998 14.11765695 58.11715274 14 64 C9.38 64 4.76 64 0 64 C0 42.88 0 21.76 0 0 Z " fill="#00E7A6" transform="translate(102,38)"/>
<path d="M0 0 C11.22 0.33 22.44 0.66 34 1 C34 1.33 34 1.66 34 2 C23.44 2 12.88 2 2 2 C1.67 4.31 1.34 6.62 1 9 C0.22783653 11.47822735 -0.60625301 13.9379806 -1.5 16.375 C-1.9434375 17.59960938 -2.386875 18.82421875 -2.84375 20.0859375 C-4 23 -4 23 -5 24 C-6.34267413 24.08631874 -7.68974322 24.10706473 -9.03515625 24.09765625 C-9.84404297 24.09443359 -10.65292969 24.09121094 -11.48632812 24.08789062 C-12.33646484 24.07951172 -13.18660156 24.07113281 -14.0625 24.0625 C-14.91650391 24.05798828 -15.77050781 24.05347656 -16.65039062 24.04882812 C-18.76695663 24.03700373 -20.88348685 24.01906769 -23 24 C-23 23.01 -23 22.02 -23 21 C-17.72 21.33 -12.44 21.66 -7 22 C-5.9057191 15.51854497 -5.9057191 15.51854497 -6 11 C-5 8.75 -5 8.75 -4 7 C-3.01 7.33 -2.02 7.66 -1 8 C-0.67 5.36 -0.34 2.72 0 0 Z " fill="#18E0C3" transform="translate(32,80)"/>
<path d="M0 0 C2.7203288 1.3601644 3.04224008 2.88587275 4.3125 5.625 C5.92069741 8.97062497 7.578084 11.97309013 9.8125 14.9375 C12 18 12 18 12 21 C12.66 21 13.32 21 14 21 C15.5078125 23.08203125 15.5078125 23.08203125 17.125 25.8125 C17.66382813 26.70582031 18.20265625 27.59914063 18.7578125 28.51953125 C20 31 20 31 20 34 C21.485 34.495 21.485 34.495 23 35 C24.39453125 37.15234375 24.39453125 37.15234375 25.8125 39.9375 C28.32362841 44.75836307 31.02141972 49.39330084 33.8984375 54.00390625 C35 56 35 56 35 58 C40.28 58 45.56 58 51 58 C51 58.33 51 58.66 51 59 C45.32813076 59.94750484 39.58060131 60.7893398 34 59 C29.70232559 55.63351033 27.55398987 50.23855792 25.22314453 45.43408203 C23.10000867 41.20899929 20.58785019 37.22056023 18.125 33.1875 C17.12200947 31.50413639 16.11940842 29.82054067 15.1171875 28.13671875 C12.99184473 24.60057643 10.80663723 21.11152987 8.5703125 17.64453125 C7.73669189 16.34962769 7.73669189 16.34962769 6.88623047 15.02856445 C5.81773864 13.37736035 4.74155573 11.73110075 3.65673828 10.09057617 C3.1770459 9.34912354 2.69735352 8.6076709 2.203125 7.84375 C1.77676758 7.19599609 1.35041016 6.54824219 0.91113281 5.88085938 C0 4 0 4 0 0 Z " fill="#2EE1C4" transform="translate(205,45)"/>
<path d="M0 0 C0.83265381 0.00523682 1.66530762 0.01047363 2.52319336 0.01586914 C3.33280518 0.0183667 4.14241699 0.02086426 4.9765625 0.0234375 C6.01159912 0.0325415 7.04663574 0.04164551 8.11303711 0.05102539 C11.39241211 0.07165039 14.67178711 0.09227539 18.05053711 0.11352539 C22.01053711 11.33352539 25.97053711 22.55352539 30.05053711 34.11352539 C29.06053711 34.60852539 29.06053711 34.60852539 28.05053711 35.11352539 C24.26481816 25.63859398 20.5952995 16.23680658 17.77709961 6.42211914 C17.26500475 4.17392139 17.26500475 4.17392139 16.05053711 3.11352539 C13.19175802 2.876513 10.35170414 2.69133357 7.48803711 2.55102539 C6.68172852 2.5078418 5.87541992 2.4646582 5.04467773 2.42016602 C3.04684906 2.31377277 1.04871641 2.21311651 -0.94946289 2.11352539 C-1.14282227 2.86118164 -1.33618164 3.60883789 -1.53540039 4.37915039 C-1.79579102 5.36399414 -2.05618164 6.34883789 -2.32446289 7.36352539 C-2.57969727 8.33805664 -2.83493164 9.31258789 -3.09790039 10.31665039 C-3.84544798 12.77189842 -4.72070106 14.86969944 -5.94946289 17.11352539 C-6.60946289 16.78352539 -7.26946289 16.45352539 -7.94946289 16.11352539 C-7.14057241 13.6331269 -6.32754388 11.15422327 -5.51196289 8.67602539 C-5.28186523 7.96897461 -5.05176758 7.26192383 -4.81469727 6.53344727 C-2.70981988 0.15780416 -2.70981988 0.15780416 0 0 Z " fill="#40E4A9" transform="translate(296.949462890625,11.886474609375)"/>
<path d="M0 0 C0.33 0 0.66 0 1 0 C1 19.47 1 38.94 1 59 C-4.28 59 -9.56 59 -15 59 C-15.99 57.35 -16.98 55.7 -18 54 C-17.34 53.01 -16.68 52.02 -16 51 C-15.54625 51.78375 -15.0925 52.5675 -14.625 53.375 C-10.90441321 57.09558679 -7.08655077 57.34962042 -2 58 C-2.020625 57.278125 -2.04125 56.55625 -2.0625 55.8125 C-2 53 -2 53 -1.5 50.72265625 C-0.80867854 46.95819484 -0.94182467 43.24798394 -1 39.4375 C-1.1104439 26.27961532 -0.53558314 13.14457758 0 0 Z " fill="#00E8B4" transform="translate(170,43)"/>
<path d="M0 0 C1.40898627 3.76250073 0.5539836 5.97056279 -0.87109375 9.640625 C-1.28037109 10.71054688 -1.68964844 11.78046875 -2.11132812 12.8828125 C-2.54896484 13.99398437 -2.98660156 15.10515625 -3.4375 16.25 C-3.87126953 17.37664062 -4.30503906 18.50328125 -4.75195312 19.6640625 C-5.82484363 22.4465038 -6.91115489 25.22376335 -8 28 C-3.05 28.33 1.9 28.66 7 29 C7.66 26.03 8.32 23.06 9 20 C9.66 20 10.32 20 11 20 C10.69078116 21.45903258 10.37751201 22.91720722 10.0625 24.375 C9.88847656 25.18710938 9.71445312 25.99921875 9.53515625 26.8359375 C9 29 9 29 8 31 C1.73 31 -4.54 31 -11 31 C-8.96832738 24.07610957 -6.76737078 17.24460585 -4.375 10.4375 C-4.06304687 9.53708984 -3.75109375 8.63667969 -3.4296875 7.70898438 C-3.130625 6.85498047 -2.8315625 6.00097656 -2.5234375 5.12109375 C-2.25450684 4.3520874 -1.98557617 3.58308105 -1.70849609 2.79077148 C-1 1 -1 1 0 0 Z " fill="#2AE0CB" transform="translate(274,73)"/>
<path d="M0 0 C5.28 0 10.56 0 16 0 C16 6.27 16 12.54 16 19 C15.67 19 15.34 19 15 19 C14.95101562 18.34773438 14.90203125 17.69546875 14.8515625 17.0234375 C14.42757771 12.06720147 13.84334427 7.66980549 12 3 C11.01 3.33 10.02 3.66 9 4 C6.3125 3.5625 6.3125 3.5625 4 3 C1.54274575 10.86321361 1.3769224 18.82673527 1 27 C0.67 27 0.34 27 0 27 C0 18.09 0 9.18 0 0 Z " fill="#41F9AB" transform="translate(156,13)"/>
<path d="M0 0 C0.66 0 1.32 0 2 0 C0.58341931 7.10612611 -1.53108811 13.7870467 -3.96484375 20.6015625 C-4.22652344 21.35695313 -4.48820312 22.11234375 -4.7578125 22.890625 C-4.9964502 23.56125977 -5.23508789 24.23189453 -5.48095703 24.92285156 C-6.20202358 27.45163837 -6.20202358 27.45163837 -6 32 C0.27 32 6.54 32 13 32 C13.33 31.34 13.66 30.68 14 30 C14 30.99 14 31.98 14 33 C6.41 33.33 -1.18 33.66 -9 34 C-9.86988854 29.65055731 -10.03595522 28.02871475 -9 24 C-8.34 24 -7.68 24 -7 24 C-7.0825 23.175 -7.165 22.35 -7.25 21.5 C-6.97248059 17.61472821 -5.91393911 15.58395936 -4.08984375 12.234375 C-2.18935381 8.33803004 -1.12885586 4.17334589 0 0 Z " fill="#2AE4B9" transform="translate(301,37)"/>
<path d="M0 0 C0.763125 0.20625 1.52625 0.4125 2.3125 0.625 C2.56 1.5325 2.8075 2.44 3.0625 3.375 C4.34388018 7.94868546 5.98428693 12.39292233 7.60546875 16.85546875 C8.31966862 19.65308041 8.30974078 20.96357396 7.3125 23.625 C4.73633482 17.3611263 2.37014921 11.07853615 0.3125 4.625 C-1.0075 4.955 -2.3275 5.285 -3.6875 5.625 C-3.6875 7.275 -3.6875 8.925 -3.6875 10.625 C-5.625 10.25 -5.625 10.25 -7.6875 9.625 C-8.35416667 8.29166667 -9.02083333 6.95833333 -9.6875 5.625 C-9.0275 5.625 -8.3675 5.625 -7.6875 5.625 C-7.419375 5.00625 -7.15125 4.3875 -6.875 3.75 C-5.09239606 0.56007716 -3.66326416 -0.51115314 0 0 Z " fill="#1BEFA9" transform="translate(304.6875,31.375)"/>
<path d="M0 0 C1.5131898 0.04235908 3.02608912 0.09602971 4.53857422 0.15869141 C5.33480194 0.18371735 6.13102966 0.20874329 6.9513855 0.23452759 C9.49910476 0.31682088 12.04605946 0.41337293 14.59326172 0.51025391 C16.31849072 0.56848402 18.04375126 0.6257875 19.76904297 0.68212891 C24.00255709 0.82241331 28.23543979 0.97548903 32.46826172 1.13525391 C32.46826172 1.79525391 32.46826172 2.45525391 32.46826172 3.13525391 C16.13326172 3.63025391 16.13326172 3.63025391 -0.53173828 4.13525391 C-1.52173828 7.10525391 -2.51173828 10.07525391 -3.53173828 13.13525391 C-3.86173828 13.13525391 -4.19173828 13.13525391 -4.53173828 13.13525391 C-4.20173828 9.83525391 -3.87173828 6.53525391 -3.53173828 3.13525391 C-4.19173828 2.80525391 -4.85173828 2.47525391 -5.53173828 2.13525391 C-3.53173828 0.13525391 -3.53173828 0.13525391 0 0 Z " fill="#26D3B1" transform="translate(289.53173828125,79.86474609375)"/>
<path d="M0 0 C2.79192205 -0.05380578 5.5828141 -0.09357669 8.375 -0.125 C9.1690625 -0.14175781 9.963125 -0.15851562 10.78125 -0.17578125 C12.85492015 -0.19335473 14.92883241 -0.10335168 17 0 C20.93239315 3.93239315 21.90780214 10.21750806 22.1875 15.625 C22.0946875 16.800625 22.0946875 16.800625 22 18 C19.50907189 19.24546405 18.58919267 18.7767578 16 18 C16 13 16 8 16 3 C12.53777385 1.93276039 9.35960734 1.89826514 5.75 1.9375 C4.67234375 1.94652344 3.5946875 1.95554687 2.484375 1.96484375 C1.25460937 1.98224609 1.25460937 1.98224609 0 2 C0 1.34 0 0.68 0 0 Z " fill="#1DF393" transform="translate(296,14)"/>
<path d="M0 0 C6.6 0 13.2 0 20 0 C22.36358834 5.77766038 24.64384649 11.5837374 26.8125 17.4375 C27.25207031 18.61183594 27.69164063 19.78617188 28.14453125 20.99609375 C29 24 29 24 28 27 C19 7.66666667 19 7.66666667 19 2 C13.06 2 7.12 2 1 2 C1 2.66 1 3.32 1 4 C0.34 4 -0.32 4 -1 4 C-0.67 2.68 -0.34 1.36 0 0 Z " fill="#45E1A3" transform="translate(40,12)"/>
<path d="M0 0 C11.22 0.33 22.44 0.66 34 1 C34 1.33 34 1.66 34 2 C23.44 2 12.88 2 2 2 C1.67 4.31 1.34 6.62 1 9 C0.52801643 10.6605018 0.01334939 12.31009956 -0.5625 13.9375 C-0.83191406 14.70964844 -1.10132813 15.48179688 -1.37890625 16.27734375 C-1.58386719 16.84582031 -1.78882813 17.41429688 -2 18 C-2.33 18 -2.66 18 -3 18 C-3.33 14.37 -3.66 10.74 -4 7 C-3.01 7.33 -2.02 7.66 -1 8 C-0.67 5.36 -0.34 2.72 0 0 Z " fill="#20EABE" transform="translate(32,80)"/>
<path d="M0 0 C2 1 4 2 6 3 C5.67 4.98 5.34 6.96 5 9 C9.33168317 9.26252625 12.8803623 8.29243536 17 7 C17.66 8.32 18.32 9.64 19 11 C13.72 11 8.44 11 3 11 C0 4 0 4 0 0 Z " fill="#01DAB7" transform="translate(326,91)"/>
<path d="M0 0 C2.9793044 2.73102904 5.09765548 4.98530752 6.875 8.625 C8.73779531 12.31100127 8.73779531 12.31100127 12.6875 13.5 C13.780625 13.995 14.87375 14.49 16 15 C16.8125 18.5 16.8125 18.5 17 22 C17.66 22.99 18.32 23.98 19 25 C18.67 25.99 18.34 26.98 18 28 C14 21.375 14 21.375 14 18 C12.91138672 17.98259766 12.91138672 17.98259766 11.80078125 17.96484375 C7.52595788 16.49220585 6.31037399 13.38791187 4.1875 9.5625 C3.78080078 8.86833984 3.37410156 8.17417969 2.95507812 7.45898438 C0 2.32857143 0 2.32857143 0 0 Z " fill="#19ECBA" transform="translate(128,60)"/>
<path d="M0 0 C3.50202263 2.33468175 4.33823637 4.20168313 6 8 C6 8.66 6 9.32 6 10 C6.66 10 7.32 10 8 10 C13 15.47619048 13 15.47619048 13 18 C12.34 18 11.68 18 11 18 C9.375 16 9.375 16 8 14 C7.1028125 14.2784375 7.1028125 14.2784375 6.1875 14.5625 C4 15 4 15 1 14 C0.875 6.25 0.875 6.25 2 4 C1.34 4 0.68 4 0 4 C0 2.68 0 1.36 0 0 Z " fill="#15F796" transform="translate(208,26)"/>
<path d="M0 0 C1.485 0.99 1.485 0.99 3 2 C3 2.99 3 3.98 3 5 C3.59167969 5.06316406 4.18335937 5.12632813 4.79296875 5.19140625 C7.91999333 6.3370595 8.66758698 8.09257599 10.3125 10.9375 C10.84488281 11.83339844 11.37726563 12.72929688 11.92578125 13.65234375 C12.28027344 14.42707031 12.63476562 15.20179687 13 16 C12.67 16.66 12.34 17.32 12 18 C11.67 17.01 11.34 16.02 11 15 C10.34 15 9.68 15 9 15 C8.34 13.02 7.68 11.04 7 9 C6.01 9 5.02 9 4 9 C4 9.66 4 10.32 4 11 C2.68 11 1.36 11 0 11 C0 7.37 0 3.74 0 0 Z " fill="#2EF2A2" transform="translate(120,21)"/>
<path d="M0 0 C0.33 0 0.66 0 1 0 C1 5.94 1 11.88 1 18 C1.66 18 2.32 18 3 18 C4.6442351 22.93270529 3.18615592 25.54024193 1 30 C-0.5 28.625 -0.5 28.625 -2 27 C-2 26.34 -2 25.68 -2 25 C-1.34 25 -0.68 25 0 25 C0 16.75 0 8.5 0 0 Z " fill="#13F3B2" transform="translate(156,40)"/>
<path d="M0 0 C0.33 0 0.66 0 1 0 C0.59051766 8.05315277 -1.93032748 14.59352269 -5 22 C-5.77271828 23.93674901 -6.54375708 25.87416964 -7.3125 27.8125 C-7.87408783 29.20870058 -8.43620608 30.60468879 -9 32 C-9.66 31.67 -10.32 31.34 -11 31 C-7.37 20.77 -3.74 10.54 0 0 Z " fill="#30E2C0" transform="translate(22,65)"/>
<path d="M0 0 C0.66 0 1.32 0 2 0 C0.93844241 5.2828101 -0.37336968 10.35811348 -2.13671875 15.44921875 C-3.87789681 20.59396661 -5.41806436 25.80450579 -7 31 C-7.66 31 -8.32 31 -9 31 C-7.56220082 23.9780212 -5.59318032 17.24983833 -3.375 10.4375 C-2.88773438 8.92446289 -2.88773438 8.92446289 -2.390625 7.38085938 C-1.59735302 4.91938308 -0.80041857 2.4591597 0 0 Z " fill="#3CE8B0" transform="translate(38,17)"/>
<path d="M0 0 C3.30048693 3.80825415 5.80025927 7.89640428 8.3359375 12.2265625 C10.69035211 16.15058685 13.23301685 19.94701457 15.77734375 23.75 C16.18082031 24.4925 16.58429688 25.235 17 26 C16.67 26.66 16.34 27.32 16 28 C15.34 26.68 14.68 25.36 14 24 C13.34 24 12.68 24 12 24 C11.72027344 23.47792969 11.44054687 22.95585938 11.15234375 22.41796875 C8.15150008 16.90838117 4.87213704 11.67673981 1.35546875 6.48046875 C0 4 0 4 0 0 Z " fill="#4AECB0" transform="translate(202,12)"/>
<path d="M0 0 C1.859375 0.23828125 1.859375 0.23828125 4 1 C5.203125 2.79296875 5.203125 2.79296875 6.25 5.1875 C8.39111767 9.81204568 10.76373873 14.21743949 13.3125 18.625 C13.6744043 19.25301514 14.03630859 19.88103027 14.40917969 20.52807617 C15.27048264 22.0200498 16.13490001 23.51022483 17 25 C16.34 25.33 15.68 25.66 15 26 C12.86097315 22.45960715 10.72480315 18.91750891 8.59130859 15.3737793 C7.86456079 14.16757304 7.13702314 12.96184231 6.40869141 11.7565918 C5.3641519 10.02777233 4.32265213 8.29711741 3.28125 6.56640625 C2.65283203 5.52427979 2.02441406 4.48215332 1.37695312 3.40844727 C0 1 0 1 0 0 Z " fill="#2CEAC8" transform="translate(138,77)"/>
<path d="M0 0 C2.475 0.495 2.475 0.495 5 1 C5.309375 2.2375 5.309375 2.2375 5.625 3.5 C6.86456827 6.65526469 8.00038145 8.45641732 10.0625 11.0625 C12.38544606 14.00715912 13.75904429 16.14470865 14 20 C14.66 20 15.32 20 16 20 C16.33 20.99 16.66 21.98 17 23 C16.01 23 15.02 23 14 23 C10 16.25 10 16.25 10 14 C9.34 14 8.68 14 8 14 C7.67386719 13.40832031 7.34773437 12.81664063 7.01171875 12.20703125 C4.7386325 8.09670124 2.45504201 4.00559486 0 0 Z " fill="#04F2B0" transform="translate(209,52)"/>
<path d="M0 0 C0.33 0 0.66 0 1 0 C1.19810076 4.18706847 1.38158516 8.37465655 1.5625 12.5625 C1.61857422 13.74392578 1.67464844 14.92535156 1.73242188 16.14257812 C1.97482635 21.91180462 2.12515684 27.32420883 1 33 C1.66 33.33 2.32 33.66 3 34 C2.34 34.66 1.68 35.32 1 36 C0.30251417 37.31747324 -0.36959957 38.64914193 -1 40 C-1.66 39.01 -2.32 38.02 -3 37 C-2.67854004 36.49694336 -2.35708008 35.99388672 -2.02587891 35.47558594 C-0.64332849 32.13930292 -0.64453553 28.94768407 -0.5859375 25.390625 C-0.56657135 24.66381531 -0.5472052 23.93700562 -0.5272522 23.18817139 C-0.46765729 20.87556552 -0.42115242 18.56290933 -0.375 16.25 C-0.33680164 14.67836418 -0.29774883 13.10674887 -0.2578125 11.53515625 C-0.16197257 7.69027158 -0.07786805 3.84528893 0 0 Z " fill="#01F2AC" transform="translate(241,39)"/>
<path d="M0 0 C4.62 0 9.24 0 14 0 C14 2.64 14 5.28 14 8 C13.34 7.67 12.68 7.34 12 7 C11.375 4.4375 11.375 4.4375 11 2 C10.01 2.33 9.02 2.66 8 3 C5.3125 2.5625 5.3125 2.5625 3 2 C2.34 4.64 1.68 7.28 1 10 C0.67 10 0.34 10 0 10 C0 6.7 0 3.4 0 0 Z " fill="#2CF38C" transform="translate(157,14)"/>
<path d="M0 0 C2.28613874 3.42920811 3.63366973 6.97795064 5.0625 10.8125 C5.33126953 11.51181641 5.60003906 12.21113281 5.87695312 12.93164062 C7.38179402 16.94329878 8.45616581 20.72318054 9 25 C5.69608355 23.34804178 5.15578094 19.74256873 3.9375 16.4375 C3.66873047 15.74591797 3.39996094 15.05433594 3.12304688 14.34179688 C1.32882187 9.54079082 0.46508557 5.1044577 0 0 Z " fill="#2FE3C1" transform="translate(74,53)"/>
<path d="M0 0 C3.12569907 5.98077485 5.14111602 12.30070495 6 19 C5.34 18.67 4.68 18.34 4 18 C4 17.34 4 16.68 4 16 C3.34 16 2.68 16 2 16 C1.67 16.66 1.34 17.32 1 18 C0.67 16.35 0.34 14.7 0 13 C0.66 13 1.32 13 2 13 C2 11.02 2 9.04 2 7 C1.34 7 0.68 7 0 7 C0 4.69 0 2.38 0 0 Z " fill="#02EAAB" transform="translate(80,73)"/>
<path d="M0 0 C1.98 0.66 3.96 1.32 6 2 C6 4.31 6 6.62 6 9 C6.66 9.33 7.32 9.66 8 10 C7.34 10 6.68 10 6 10 C5.67 11.32 5.34 12.64 5 14 C4.16465351 11.85494956 3.33177374 9.70893835 2.5 7.5625 C2.0359375 6.36753906 1.571875 5.17257813 1.09375 3.94140625 C0 1 0 1 0 0 Z " fill="#19ECB7" transform="translate(312,56)"/>
<path d="M0 0 C0.33 0.66 0.66 1.32 1 2 C0.67 2.66 0.34 3.32 0 4 C0.66 4 1.32 4 2 4 C2 5.98 2 7.96 2 10 C1.34 10 0.68 10 0 10 C-0.66 11.98 -1.32 13.96 -2 16 C-2.66 16 -3.32 16 -4 16 C-4.6319296 9.99666876 -2.37544123 5.36595205 0 0 Z " fill="#0DF595" transform="translate(38,25)"/>
<path d="M0 0 C9 10.66666667 9 10.66666667 9 15 C4.34782609 13.53089245 4.34782609 13.53089245 2.8125 11.1875 C2.544375 10.465625 2.27625 9.74375 2 9 C1.62875 8.175 1.2575 7.35 0.875 6.5 C0 4 0 4 0 0 Z " fill="#1CF1B1" transform="translate(222,45)"/>
<path d="M0 0 C4.62 0 9.24 0 14 0 C10.91111478 2.05925681 10.29064073 2.2390374 6.8125 2.125 C4.9253125 2.063125 4.9253125 2.063125 3 2 C1.95229158 5.14312525 1.98279278 7.70921075 2.03125 10.9921875 C1.99354373 13.41481509 1.58674523 15.65301908 1 18 C0.67 18 0.34 18 0 18 C0 12.06 0 6.12 0 0 Z " fill="#20F688" transform="translate(188,14)"/>
<path d="M0 0 C0.99 0.639375 1.98 1.27875 3 1.9375 C7.00282486 4.25406326 10.41921002 4.67854105 15 5 C15 3.35 15 1.7 15 0 C17 3 17 3 18 6 C15.37438891 6.08074203 12.75124324 6.1403623 10.125 6.1875 C9.00544922 6.22520508 9.00544922 6.22520508 7.86328125 6.26367188 C5.6953125 6.29296875 5.6953125 6.29296875 2 6 C0 3 0 3 0 0 Z " fill="#01DBB1" transform="translate(73,96)"/>
<path d="M0 0 C2.475 0.99 2.475 0.99 5 2 C5 2.99 5 3.98 5 5 C5.94978897 7.15028304 5.94978897 7.15028304 7 9 C6.01 9.66 5.02 10.32 4 11 C2.35 7.7 0.7 4.4 -1 1 C-0.67 0.67 -0.34 0.34 0 0 Z " fill="#02E8B0" transform="translate(234,89)"/>
<path d="M0 0 C1.97398735 7.89594939 -2.63955528 16.77504386 -6 24 C-6.66 23.67 -7.32 23.34 -8 23 C-5.36 15.41 -2.72 7.82 0 0 Z " fill="#34E4BE" transform="translate(282,48)"/>
<path d="M0 0 C1.65 0 3.3 0 5 0 C3.77472971 4.05281712 2.30119506 7.44360764 0 11 C-0.66 10.67 -1.32 10.34 -2 10 C-1.77183594 9.44570313 -1.54367187 8.89140625 -1.30859375 8.3203125 C-1.02113281 7.59585938 -0.73367188 6.87140625 -0.4375 6.125 C-0.14746094 5.40570313 0.14257812 4.68640625 0.44140625 3.9453125 C1.2537118 1.94350596 1.2537118 1.94350596 0 0 Z " fill="#13F29D" transform="translate(289,29)"/>
<path d="M0 0 C0.66 0 1.32 0 2 0 C2.33 1.32 2.66 2.64 3 4 C6.63 4.33 10.26 4.66 14 5 C14 5.33 14 5.66 14 6 C8.72 6 3.44 6 -2 6 C-1.34 4.02 -0.68 2.04 0 0 Z " fill="#01DAB6" transform="translate(267,96)"/>
<path d="M0 0 C0.33 0 0.66 0 1 0 C0.58411954 6.19518473 -0.60251894 11.26689311 -3 17 C-3.33 17 -3.66 17 -4 17 C-4.67012098 10.80138093 -2.24947173 5.64376389 0 0 Z " fill="#23E8C3" transform="translate(22,65)"/>
<path d="M0 0 C1.98 0 3.96 0 6 0 C5.01 0.33 4.02 0.66 3 1 C2.67 4.63 2.34 8.26 2 12 C1.34 12 0.68 12 0 12 C0 8.04 0 4.08 0 0 Z " fill="#27F287" transform="translate(102,14)"/>
<path d="M0 0 C3.125 0.375 3.125 0.375 6 1 C4.68 1.33 3.36 1.66 2 2 C1.87625 3.0725 1.7525 4.145 1.625 5.25 C1 9 1 9 -1 13 C-0.67 9.7 -0.34 6.4 0 3 C-0.66 2.67 -1.32 2.34 -2 2 C-1.34 1.34 -0.68 0.68 0 0 Z " fill="#1CE9C2" transform="translate(286,80)"/>
<path d="M0 0 C0.99 0.33 1.98 0.66 3 1 C3.33 2.65 3.66 4.3 4 6 C1.50907189 7.24546405 0.58919267 6.7767578 -2 6 C-1.34 4.02 -0.68 2.04 0 0 Z " fill="#10F794" transform="translate(314,26)"/>
<path d="M0 0 C1.485 0.99 1.485 0.99 3 2 C3 2.99 3 3.98 3 5 C3.66 4.01 4.32 3.02 5 2 C5.625 4.375 5.625 4.375 6 7 C5.34 7.66 4.68 8.32 4 9 C3.01 8.34 2.02 7.68 1 7 C0.3125 3.375 0.3125 3.375 0 0 Z " fill="#0EF4B8" transform="translate(152,69)"/>
<path d="M0 0 C0.66 0 1.32 0 2 0 C1.690625 1.0725 1.38125 2.145 1.0625 3.25 C0.33187904 5.82866222 -0.37482904 8.39512102 -1 11 C-1.66 11 -2.32 11 -3 11 C-2.88590407 9.54077307 -2.75834456 8.08259402 -2.625 6.625 C-2.55539063 5.81289063 -2.48578125 5.00078125 -2.4140625 4.1640625 C-2 2 -2 2 0 0 Z " fill="#1BF894" transform="translate(41,18)"/>
<path d="M0 0 C0.66 0.33 1.32 0.66 2 1 C1.24964259 4.11799003 0.36636589 7.18070403 -0.5625 10.25 C-0.83191406 11.14203125 -1.10132813 12.0340625 -1.37890625 12.953125 C-1.58386719 13.62859375 -1.78882813 14.3040625 -2 15 C-2.33 15 -2.66 15 -3 15 C-2.5547115 9.72684667 -1.91626837 4.98229776 0 0 Z " fill="#2DE1AE" transform="translate(48,34)"/>
<path d="M0 0 C1.32 1.32 2.64 2.64 4 4 C3.01 4.495 3.01 4.495 2 5 C2 6.98 2 8.96 2 11 C-0.15377564 8.37801226 -1.40072174 6.35595828 -2 3 C-1.34 2.67 -0.68 2.34 0 2 C0 1.34 0 0.68 0 0 Z " fill="#03E9B1" transform="translate(324,80)"/>
<path d="M0 0 C2.66735273 2.48952921 4.55746343 4.63408134 6 8 C3.69 8 1.38 8 -1 8 C-0.67 5.36 -0.34 2.72 0 0 Z " fill="#23E9B4" transform="translate(146,60)"/>
<path d="M0 0 C4.03810445 1.34603482 5.47295076 3.65336723 8 7 C8 7.66 8 8.32 8 9 C6 9 6 9 3.5 6.5625 C2.675 5.716875 1.85 4.87125 1 4 C0.34 3.67 -0.32 3.34 -1 3 C-0.67 2.01 -0.34 1.02 0 0 Z " fill="#1DF3A8" transform="translate(213,35)"/>
<path d="M0 0 C2.74277578 3.19990508 4.6302836 6.00499382 6 10 C3 9 3 9 1.3125 6.6875 C0 4 0 4 0 0 Z " fill="#2AE9BB" transform="translate(222,45)"/>
<path d="M0 0 C0.66 0.33 1.32 0.66 2 1 C5.28738549 1.939253 8.62665985 2.46333225 12 3 C12 3.33 12 3.66 12 4 C7.71 4 3.42 4 -1 4 C-0.67 2.68 -0.34 1.36 0 0 Z " fill="#00D5AD" transform="translate(12,98)"/>
<path d="M0 0 C0.66 0 1.32 0 2 0 C1.67 3.63 1.34 7.26 1 11 C0.67 11 0.34 11 0 11 C-0.66 8.03 -1.32 5.06 -2 2 C-1.34 2 -0.68 2 0 2 C0 1.34 0 0.68 0 0 Z " fill="#04ECAF" transform="translate(70,81)"/>
<path d="M0 0 C1.98 0 3.96 0 6 0 C6.33 1.65 6.66 3.3 7 5 C6.01 5 5.02 5 4 5 C3.71125 4.360625 3.4225 3.72125 3.125 3.0625 C2.17176549 0.84793921 2.17176549 0.84793921 0 0 Z " fill="#1DF595" transform="translate(56,21)"/>
<path d="M0 0 C4.62 0 9.24 0 14 0 C10.94669853 2.03553431 10.41134829 2.24129596 7 2.125 C6.319375 2.10695313 5.63875 2.08890625 4.9375 2.0703125 C3.9784375 2.03550781 3.9784375 2.03550781 3 2 C2.01 2 1.02 2 0 2 C0 1.34 0 0.68 0 0 Z " fill="#2DF284" transform="translate(188,14)"/>
<path d="M0 0 C3.08089673 2.77280706 4.68775452 5.06326356 6 9 C2.83884224 7.63016497 2.0072908 7.0109362 0 4 C0 2.68 0 1.36 0 0 Z " fill="#33E5B5" transform="translate(139,49)"/>
<path d="M0 0 C0.99 0 1.98 0 3 0 C3.33 1.65 3.66 3.3 4 5 C2.68 5.33 1.36 5.66 0 6 C-0.38218767 4.34385343 -0.71395102 2.67542976 -1 1 C-0.67 0.67 -0.34 0.34 0 0 Z " fill="#1DE19A" transform="translate(302,31)"/>
<path d="M0 0 C0 0.66 0 1.32 0 2 C0.66 2.33 1.32 2.66 2 3 C1.01 3.66 0.02 4.32 -1 5 C-1.66 4.01 -2.32 3.02 -3 2 C-3.33 2.99 -3.66 3.98 -4 5 C-4.33 4.01 -4.66 3.02 -5 2 C-2 0 -2 0 0 0 Z " fill="#11E0B4" transform="translate(15,96)"/>
<path d="M0 0 C1.32 0.33 2.64 0.66 4 1 C4.33 2.32 4.66 3.64 5 5 C3.35 5 1.7 5 0 5 C0 3.35 0 1.7 0 0 Z " fill="#01E4B3" transform="translate(337,90)"/>
<path d="M0 0 C1.96301592 3.50538557 2.95902388 7.13351728 4 11 C3.01 11.495 3.01 11.495 2 12 C2 10.35 2 8.7 2 7 C1.34 7 0.68 7 0 7 C0 4.69 0 2.38 0 0 Z " fill="#07F0B7" transform="translate(80,73)"/>
<path d="M0 0 C2 3 2 3 1.625 5.6875 C1.41875 6.450625 1.2125 7.21375 1 8 C0.01 7.67 -0.98 7.34 -2 7 C-1.34 4.69 -0.68 2.38 0 0 Z " fill="#18D8B6" transform="translate(27,95)"/>
<path d="M0 0 C0.33 0 0.66 0 1 0 C1 3.63 1 7.26 1 11 C0.01 9.68 -0.98 8.36 -2 7 C-1.1875 3.25 -1.1875 3.25 0 0 Z " fill="#04ECB6" transform="translate(115,89)"/>
</svg>
