<?xml version="1.0" encoding="UTF-8"?>
<svg version="1.1" xmlns="http://www.w3.org/2000/svg" width="482" height="157">
<path d="M0 0 C159.06 0 318.12 0 482 0 C482 51.81 482 103.62 482 157 C322.94 157 163.88 157 0 157 C0 105.19 0 53.38 0 0 Z " fill="#1A2634" transform="translate(0,0)"/>
<path d="M0 0 C6.27 0 12.54 0 19 0 C22.98233673 9.65716658 26.57385432 19.37789837 29.97119141 29.25537109 C32.30107912 36.02030748 34.72066604 42.74363656 37.21679688 49.44873047 C39.41126595 55.36078725 41.53685719 61.29559974 43.64624023 67.23852539 C47.14634087 77.09558703 50.65851027 86.94877239 54.3125 96.75 C54.76387329 97.98919189 54.76387329 97.98919189 55.22436523 99.25341797 C58.48134298 108.34135572 58.48134298 108.34135572 64.86376953 115.15917969 C66.98621222 116.11469215 66.98621222 116.11469215 70 117 C70 119.31 70 121.62 70 124 C54.49 124 38.98 124 23 124 C23 122.02 23 120.04 23 118 C24.7015625 117.5359375 24.7015625 117.5359375 26.4375 117.0625 C29.78775099 116.37075469 29.78775099 116.37075469 31 115 C31.42689876 106.1093694 28.19506467 97.97277704 25.27734375 89.74609375 C24 86 24 86 24 84 C9.48 84 -5.04 84 -20 84 C-20.99 86.97 -21.98 89.94 -23 93 C-23.38542969 94.14726563 -23.77085937 95.29453125 -24.16796875 96.4765625 C-26.93412578 104.58617272 -26.93412578 104.58617272 -27 113 C-26.12870693 115.03882095 -26.12870693 115.03882095 -24 116 C-21.31824378 116.53423546 -18.73630552 116.77571266 -16 117 C-16 119.64 -16 122.28 -16 125 C-28.87 125 -41.74 125 -55 125 C-55 122.36 -55 119.72 -55 117 C-52.98177083 116.64192708 -50.96354167 116.28385417 -48.9453125 115.92578125 C-46.1562861 114.5984735 -46.06718305 112.84446793 -45 110 C-44.22588231 108.42291038 -43.43502232 106.85394496 -42.62890625 105.29296875 C-40.15337484 100.38625732 -37.99183164 95.40778627 -35.9375 90.3125 C-35.56246338 89.38969238 -35.18742676 88.46688477 -34.80102539 87.51611328 C-30.89046868 77.83501413 -27.13971963 68.09152987 -23.38598633 58.34887695 C-19.61926488 48.57470116 -15.77373708 38.83493279 -11.85400391 29.12109375 C-11.01646827 27.04090233 -10.18476511 24.95848838 -9.35546875 22.875 C-6.30799022 15.21934731 -3.18920589 7.59781404 0 0 Z " fill="#E8E3DC" transform="translate(378,17)"/>
<path d="M0 0 C1.76682129 0.0148645 1.76682129 0.0148645 3.56933594 0.0300293 C15.58038495 0.2848641 25.77323187 2.63846183 36.75 7.5 C37.74263429 16.85912329 37.85731538 26.10394198 37.75 35.5 C35.44 36.16 33.13 36.82 30.75 37.5 C30.47027344 36.71496094 30.19054687 35.92992187 29.90234375 35.12109375 C25.57918172 23.79190708 20.5776679 18.78570041 9.609375 13.65625 C6.25275266 12.29892731 3.37079452 11.63926133 -0.25 11.5 C-1.549375 11.4175 -2.84875 11.335 -4.1875 11.25 C-9.47259181 11.36244876 -14.09081267 12.51879341 -18.05078125 16.15234375 C-22.04271551 20.65875163 -23.64499922 24.10003843 -23.51953125 30.31640625 C-22.84072508 35.81571999 -20.22224425 40.04084938 -16 43.5625 C-8.55554701 48.6589808 0.31440588 51.80260308 8.69921875 55.03125 C21.55613597 59.983277 34.26300882 65.47301452 41.6875 77.6875 C45.09380462 86.70418871 44.43932849 95.65953361 40.75 104.5 C34.59632662 116.21306677 24.73262561 122.65456669 12.75 127.5 C-5.31092784 132.7397557 -27.33728425 129.53966778 -44.25 121.5 C-46.28325208 118.45012188 -46.56920016 117.36494066 -46.8828125 113.859375 C-46.96660156 112.95316406 -47.05039063 112.04695313 -47.13671875 111.11328125 C-47.21535156 110.16839844 -47.29398438 109.22351563 -47.375 108.25 C-47.46136719 107.32058594 -47.54773438 106.39117187 -47.63671875 105.43359375 C-48.08212118 100.43518873 -48.34702192 95.51741928 -48.25 90.5 C-45.28 90.005 -45.28 90.005 -42.25 89.5 C-41.4146875 90.89412109 -41.4146875 90.89412109 -40.5625 92.31640625 C-36.21189212 99.4231031 -32.14035506 105.58488006 -25.25 110.5 C-24.46625 111.0775 -23.6825 111.655 -22.875 112.25 C-13.19121733 116.86132508 -3.66798269 118.2112567 6.625 114.8125 C11.63889435 112.78834579 15.01284883 110.3808272 17.84765625 105.6796875 C19.59940063 101.44820108 19.25268537 96.98499803 18.75 92.5 C15.90673672 85.94813245 9.52444975 82.22771824 3.19360352 79.32983398 C0.56187226 78.29211781 -2.08303535 77.31833684 -4.75 76.375 C-15.19750316 72.58835038 -24.86699521 68.51305237 -34.25 62.5 C-35.1575 61.9225 -36.065 61.345 -37 60.75 C-44.1692676 53.5807324 -46.37881114 46.07449095 -46.5 36.1875 C-46.47116629 25.79482717 -43.60035674 18.97129497 -36.25 11.5 C-25.40976609 2.82781287 -13.69638277 -0.222905 0 0 Z " fill="#E8E3DC" transform="translate(265.25,14.5)"/>
<path d="M0 0 C14.85 0 29.7 0 45 0 C45 1.98 45 3.96 45 6 C42.36 6.66 39.72 7.32 37 8 C36.2222607 11.1109572 35.86881883 13.20995131 35.84178162 16.31536865 C35.82709839 17.59836098 35.82709839 17.59836098 35.81211853 18.90727234 C35.80636307 19.83731583 35.8006076 20.76735931 35.79467773 21.72558594 C35.78477814 22.71128067 35.77487854 23.6969754 35.76467896 24.71253967 C35.73309786 27.9697937 35.70831983 31.22706231 35.68359375 34.484375 C35.6630213 36.74310688 35.64202475 39.00183493 35.62062073 41.26055908 C35.56543011 47.20514834 35.5160075 53.14977216 35.46777344 59.09442139 C35.41753648 65.16063514 35.36186186 71.22679869 35.30664062 77.29296875 C35.19909585 89.19526962 35.09764265 101.09761407 35 113 C39.16075986 112.90015595 43.32048496 112.77635982 47.48046875 112.6484375 C48.65089722 112.62064209 49.82132568 112.59284668 51.02722168 112.56420898 C61.86948919 112.20984916 70.82523035 110.05881015 80 104 C83.44896298 99.63807623 85.20812039 95.19645086 87 90 C88.66611905 89.957279 90.33382885 89.95936168 92 90 C92.33 90.33 92.66 90.66 93 91 C92.98774682 93.3526114 92.89714189 95.65464748 92.75 98 C92.68296875 99.27875 92.6159375 100.5575 92.546875 101.875 C91.75435955 109.30200194 90.29803148 116.64448827 89 124 C59.3 124 29.6 124 -1 124 C-1 122.02 -1 120.04 -1 118 C-0.36191406 117.80664062 0.27617188 117.61328125 0.93359375 117.4140625 C2.17302734 117.02347656 2.17302734 117.02347656 3.4375 116.625 C4.26121094 116.36976563 5.08492187 116.11453125 5.93359375 115.8515625 C8.17798016 115.19117773 8.17798016 115.19117773 9 113 C9.09980464 111.64080716 9.13935505 110.27692281 9.14717102 108.91409302 C9.15432632 108.05888062 9.16148163 107.20366821 9.16885376 106.32254028 C9.17154266 105.38223969 9.17423157 104.44193909 9.17700195 103.47314453 C9.18357315 102.48441345 9.19014435 101.49568237 9.19691467 100.47698975 C9.21667272 97.19559663 9.22831477 93.91424928 9.23828125 90.6328125 C9.24235678 89.51431789 9.2464323 88.39582329 9.25063133 87.24343491 C9.271501 81.3255405 9.28579985 75.40766936 9.29516602 69.48974609 C9.30624301 63.36711621 9.34065549 57.24484851 9.38033772 51.12234688 C9.40643745 46.42295642 9.41485186 41.7236532 9.41844749 37.02419662 C9.42332926 34.76669743 9.43498811 32.50920253 9.45348549 30.25177383 C9.47773928 27.09610215 9.47693711 23.94138017 9.4699707 20.78564453 C9.48918579 19.38126633 9.48918579 19.38126633 9.50878906 17.94851685 C9.50719768 12.84230326 9.50719768 12.84230326 7.14250183 8.43527222 C4.73641756 6.82342486 2.86243765 6.31804863 0 6 C0 4.02 0 2.04 0 0 Z " fill="#E8E4DC" transform="translate(33,17)"/>
<path d="M0 0 C15.51 0 31.02 0 47 0 C47 1.98 47 3.96 47 6 C45.3603125 6.37125 45.3603125 6.37125 43.6875 6.75 C39.27680969 8.22969237 39.27680969 8.22969237 37 12 C36.55236193 15.18918147 36.58011418 18.3541775 36.59594727 21.5703125 C36.58565239 23.02458649 36.58565239 23.02458649 36.57514954 24.50823975 C36.55684335 27.71397532 36.5607242 30.91922335 36.56640625 34.125 C36.56184662 36.35172689 36.55654171 38.57845236 36.55052185 40.80517578 C36.54158348 45.47238888 36.54402261 50.13943094 36.55395508 54.80664062 C36.56545149 60.79250944 36.54522621 66.77778894 36.51603794 72.76358032 C36.49770811 77.36177327 36.4979619 81.95982413 36.50367546 86.55804443 C36.50382904 88.76528755 36.49775482 90.97254008 36.48538399 93.17974854 C36.47053511 96.26343983 36.48110621 99.34603104 36.49829102 102.4296875 C36.48378906 103.80130035 36.48378906 103.80130035 36.46899414 105.20062256 C36.49203667 110.2143754 36.49203667 110.2143754 38.85948181 114.52001953 C41.16024624 116.11079621 43.35035447 117.11678482 46 118 C46 119.98 46 121.96 46 124 C31.15 124 16.3 124 1 124 C1 122.02 1 120.04 1 118 C2.7578125 117.34895833 4.515625 116.69791667 6.2734375 116.046875 C8.53326579 114.67666237 8.99651735 113.42486209 10 111 C10.2987297 108.97173633 10.2987297 108.97173633 10.26069641 106.83216858 C10.26778122 106.00930862 10.27486603 105.18644867 10.28216553 104.33865356 C10.27968811 103.44451752 10.27721069 102.55038147 10.2746582 101.62915039 C10.27976913 100.68074783 10.28488007 99.73234528 10.29014587 98.75520325 C10.30404906 95.61929011 10.30308457 92.48359655 10.30078125 89.34765625 C10.30466771 87.16816628 10.30900227 84.98867707 10.31376648 82.80918884 C10.32123021 78.24036199 10.32093623 73.67161241 10.31567383 69.1027832 C10.30987828 63.24714871 10.32681169 57.39183042 10.3500185 51.53624821 C10.36474803 47.03496958 10.36562861 42.53376725 10.36250877 38.0324688 C10.36302235 35.87350272 10.36826693 33.71453241 10.37832069 31.55558968 C10.39065277 28.53693192 10.38391264 25.51889196 10.37231445 22.50024414 C10.37995819 21.60813232 10.38760193 20.71602051 10.39547729 19.796875 C10.35554683 15.09651796 10.20167269 11.72878415 7 8 C3.42003741 6.63099646 3.42003741 6.63099646 0 6 C0 4.02 0 2.04 0 0 Z " fill="#EAE5DD" transform="translate(145,17)"/>
<path d="M0 0 C2.99111105 3.4485751 4.32590968 7.23804142 5.75 11.5 C6.27059156 13.0196141 6.79143591 14.53914161 7.3125 16.05859375 C7.58449219 16.85894043 7.85648437 17.65928711 8.13671875 18.48388672 C9.03124614 21.09106978 9.94971405 23.68873914 10.875 26.28515625 C11.34341309 27.60386719 11.34341309 27.60386719 11.82128906 28.94921875 C12.42541206 30.64914844 13.03143095 32.34840597 13.63964844 34.046875 C13.9184082 34.83707031 14.19716797 35.62726563 14.484375 36.44140625 C14.72897461 37.12920166 14.97357422 37.81699707 15.22558594 38.52563477 C16.30440407 41.97261514 17.12399563 45.4959825 18 49 C6.12 49 -5.76 49 -18 49 C-16.02658104 41.76413049 -14.03880583 35.15591022 -11.1875 28.3125 C-10.48030313 26.58263054 -9.77459494 24.85215181 -9.0703125 23.12109375 C-8.72258789 22.26757324 -8.37486328 21.41405273 -8.01660156 20.53466797 C-6.19943706 16.00397587 -4.50433532 11.4285091 -2.81518555 6.84887695 C-1.08789358 2.17578716 -1.08789358 2.17578716 0 0 Z " fill="#1C2734" transform="translate(380,42)"/>
<path d="M0 0 C0.99 0.33 1.98 0.66 3 1 C-0.42346555 4.14958831 -3.44262737 4.56179109 -8 5 C-7.01 4.34 -6.02 3.68 -5 3 C-3.7625 2.1646875 -3.7625 2.1646875 -2.5 1.3125 C-1.675 0.879375 -0.85 0.44625 0 0 Z " fill="#D7D6D3" transform="translate(111,122)"/>
</svg>
