<?xml version="1.0" encoding="UTF-8"?>
<svg version="1.1" xmlns="http://www.w3.org/2000/svg" width="347" height="112">
<path d="M0 0 C3.84398222 0.46959643 7.7105754 0.07475819 11.56640625 -0.1796875 C14.23828125 0.2734375 14.23828125 0.2734375 15.74551392 2.33818054 C17.45380678 5.69722948 18.66157253 9.10920687 19.79443359 12.69067383 C20.03067947 13.41982498 20.26692535 14.14897614 20.5103302 14.90022278 C21.02041214 16.47676998 21.52772238 18.0542161 22.03254318 19.63245583 C22.83417522 22.13657049 23.64434743 24.63777346 24.4569397 27.13835144 C26.76514515 34.24624316 29.05873885 41.35881084 31.34472656 48.47387695 C32.7460331 52.83335168 34.15794711 57.18927752 35.57616043 61.54327965 C36.11208364 63.19601872 36.64391293 64.8500915 37.17142868 66.50553322 C40.89980798 78.50509214 40.89980798 78.50509214 47.23828125 89.2734375 C47.89828125 89.6034375 48.55828125 89.9334375 49.23828125 90.2734375 C49.23828125 90.9334375 49.23828125 91.5934375 49.23828125 92.2734375 C39.33828125 92.2734375 29.43828125 92.2734375 19.23828125 92.2734375 C19.56828125 89.3034375 19.89828125 86.3334375 20.23828125 83.2734375 C20.05944841 80.76432495 20.05944841 80.76432495 19.4609375 78.67578125 C19.18540039 77.56879883 19.18540039 77.56879883 18.90429688 76.43945312 C18.70513672 75.70404297 18.50597656 74.96863281 18.30078125 74.2109375 C18.10548828 73.44072266 17.91019531 72.67050781 17.70898438 71.87695312 C17.23242333 70.00557926 16.73732004 68.13894302 16.23828125 66.2734375 C15.5316333 66.43642334 14.82498535 66.59940918 14.09692383 66.76733398 C11.16183586 67.28697164 8.47839432 67.38702099 5.5 67.37109375 C3.89995117 67.36625977 3.89995117 67.36625977 2.26757812 67.36132812 C0.61338867 67.34875977 0.61338867 67.34875977 -1.07421875 67.3359375 C-2.19634766 67.33142578 -3.31847656 67.32691406 -4.47460938 67.32226562 C-7.23703385 67.31051063 -9.99934873 67.29407827 -12.76171875 67.2734375 C-12.90351563 68.3459375 -13.0453125 69.4184375 -13.19140625 70.5234375 C-13.60657078 73.25328648 -14.08611644 75.65738489 -14.88671875 78.2734375 C-16.18737099 83.23518492 -15.36899381 87.45161231 -13.76171875 92.2734375 C-21.68171875 92.2734375 -29.60171875 92.2734375 -37.76171875 92.2734375 C-35.78171875 88.9734375 -33.80171875 85.6734375 -31.76171875 82.2734375 C-30.54775087 79.44891831 -29.44255181 76.71606681 -28.4296875 73.828125 C-28.15149673 73.06304123 -27.87330597 72.29795746 -27.58668518 71.50968933 C-26.69790956 69.05928926 -25.82347023 66.60405211 -24.94921875 64.1484375 C-24.33541091 62.44808847 -23.72049323 60.74813969 -23.10449219 59.04858398 C-22.18361778 56.50705255 -21.26358562 53.96524993 -20.34768677 51.42192078 C-17.46262864 43.41186083 -14.46332843 35.44744254 -11.42651367 27.49365234 C-6.44693339 14.69882673 -6.44693339 14.69882673 -7.76171875 1.2734375 C-4.39294517 -0.97241155 -3.7491662 -0.72253738 0 0 Z M2.23828125 24.2734375 C0.78418572 28.34452482 -0.65794452 32.41959187 -2.08911133 36.4987793 C-2.57769893 37.8860046 -3.06954374 39.27208716 -3.56469727 40.65698242 C-4.27568276 42.64731393 -4.97487057 44.641455 -5.671875 46.63671875 C-6.09605713 47.83594971 -6.52023926 49.03518066 -6.95727539 50.27075195 C-8.06194516 53.29102121 -8.06194516 53.29102121 -6.76171875 56.2734375 C-0.49171875 55.9434375 5.77828125 55.6134375 12.23828125 55.2734375 C9.7793807 44.75480738 6.55890582 34.54695559 3.23828125 24.2734375 C2.90828125 24.2734375 2.57828125 24.2734375 2.23828125 24.2734375 Z " fill="#1387FB" transform="translate(262.76171875,9.7265625)"/>
<path d="M0 0 C1 1 1 1 1.11352539 2.94946289 C1.10828857 3.7821167 1.10305176 4.61477051 1.09765625 5.47265625 C1.09443359 6.37177734 1.09121094 7.27089844 1.08789062 8.19726562 C1.07532227 9.61555664 1.07532227 9.61555664 1.0625 11.0625 C1.05798828 12.01189453 1.05347656 12.96128906 1.04882812 13.93945312 C1.0370011 16.29303065 1.02052025 18.64648477 1 21 C0.34 21 -0.32 21 -1 21 C-2.55078125 19.35546875 -2.55078125 19.35546875 -4.3125 17.1875 C-7.90560619 12.96820932 -11.3514511 9.80693556 -17 9 C-23.33566271 8.51992315 -23.33566271 8.51992315 -29 11 C-31.02273558 14.03410337 -31.31526269 14.85371 -31.375 18.3125 C-31.41753906 19.42044922 -31.41753906 19.42044922 -31.4609375 20.55078125 C-30.64702738 24.87554094 -28.57834477 27.82009731 -25.05126953 30.45678711 C-22.69034869 31.96770461 -20.29483571 33.39796368 -17.875 34.8125 C2.3621623 47.1272732 2.3621623 47.1272732 5.6875 58.3125 C6.80469508 67.92037768 5.18944774 74.1220211 -0.125 82.25 C-8.77638445 90.5252373 -20.17550151 92.46779493 -31.76953125 92.2578125 C-48.92312373 90.88884381 -48.92312373 90.88884381 -54 86 C-54.6238052 82.5889466 -54.46823613 79.26505014 -54.3125 75.8125 C-54.28994141 74.87212891 -54.26738281 73.93175781 -54.24414062 72.96289062 C-54.18519227 70.64032527 -54.10297785 68.32096224 -54 66 C-53.34 66 -52.68 66 -52 66 C-50.7734375 67.5390625 -50.7734375 67.5390625 -49.375 69.625 C-44.68057717 76.0669817 -39.04807243 80.72925172 -31 82 C-26.24123384 81.91097546 -22.14812458 81.45716934 -18 79 C-15.75228432 76.1903554 -15.03867136 74.25619775 -14.5 70.6875 C-15.29061137 64.85674117 -17.60557472 60.99608396 -22.13671875 57.21875 C-24.71101535 55.39477174 -27.33373192 53.68667235 -30 52 C-32.10822339 50.6312281 -34.21235272 49.25613134 -36.3125 47.875 C-37.27800781 47.25367188 -38.24351562 46.63234375 -39.23828125 45.9921875 C-45.09662494 41.76622529 -50.62104183 36.32408916 -52 29 C-52.82197566 20.33402808 -52.39057544 13.09613856 -47 6 C-33.71520116 -6.92445167 -16.47561497 -5.92836435 0 0 Z " fill="#1196FC" transform="translate(216,12)"/>
<path d="M0 0 C1.11890625 -0.01224609 2.2378125 -0.02449219 3.390625 -0.03710938 C4.99164063 -0.04000977 4.99164063 -0.04000977 6.625 -0.04296875 C7.60726562 -0.04707764 8.58953125 -0.05118652 9.6015625 -0.05541992 C12 0.1875 12 0.1875 14 2.1875 C13.5155542 2.77853516 13.0311084 3.36957031 12.53198242 3.97851562 C10.25008245 8.75832331 10.51961583 13.29588086 10.48828125 18.53125 C10.47033005 19.6507605 10.45237885 20.770271 10.43388367 21.92370605 C10.37980134 25.51159781 10.34602272 29.09936338 10.3125 32.6875 C10.27929464 35.04038329 10.24480205 37.39324878 10.20898438 39.74609375 C10.01130374 53.55988614 9.95815326 67.37249532 10 81.1875 C29.34225786 81.66105904 29.34225786 81.66105904 45.67578125 72.4921875 C47 71.1875 47 71.1875 49 71.1875 C48.91155191 73.18825676 48.80337177 75.188144 48.6875 77.1875 C48.62949219 78.30125 48.57148437 79.415 48.51171875 80.5625 C48 84.1875 48 84.1875 45 92.1875 C25.2 92.1875 5.4 92.1875 -15 92.1875 C-13 87.1875 -13 87.1875 -11.89117432 84.81088257 C-10.7687154 81.50665901 -10.74572846 78.70288049 -10.74121094 75.21337891 C-10.7377063 74.53138931 -10.73420166 73.84939972 -10.73059082 73.14674377 C-10.72182137 70.90241172 -10.72760688 68.65839752 -10.734375 66.4140625 C-10.73302666 64.84613993 -10.73108472 63.27821777 -10.72857666 61.71029663 C-10.72563162 58.42694105 -10.7299019 55.14369445 -10.73925781 51.86035156 C-10.75063317 47.66518247 -10.74410119 43.47026986 -10.73211288 39.27511024 C-10.72486142 36.03734429 -10.72719759 32.79963841 -10.73236847 29.56187057 C-10.73369687 28.01581161 -10.73208581 26.46974708 -10.72740936 24.92369461 C-10.72229197 22.75578779 -10.73012751 20.58828699 -10.74121094 18.42041016 C-10.74280212 17.18972809 -10.74439331 15.95904602 -10.74603271 14.69107056 C-11.0924043 9.91274924 -12.49348565 5.70704304 -14 1.1875 C-9.88137709 -0.87181145 -4.52640955 0.00260738 0 0 Z " fill="#0F92FC" transform="translate(63,9.8125)"/>
<path d="M0 0 C1.12341797 -0.01224609 2.24683594 -0.02449219 3.40429688 -0.03710938 C5.01208008 -0.04000977 5.01208008 -0.04000977 6.65234375 -0.04296875 C8.13528931 -0.04913208 8.13528931 -0.04913208 9.64819336 -0.05541992 C12.0625 0.1875 12.0625 0.1875 14.0625 2.1875 C13.5780542 2.91461182 13.0936084 3.64172363 12.59448242 4.39086914 C10.04197329 9.53930284 10.58092266 15.31724365 10.55078125 20.93359375 C10.53283005 22.17689957 10.51487885 23.42020538 10.49638367 24.70118713 C10.45145087 28.004711 10.41915874 31.30804014 10.39294434 34.61175537 C10.36343116 37.92295326 10.31641919 41.23390287 10.27148438 44.54492188 C10.19110675 50.71808832 10.13561299 56.8911196 10.09088135 63.06463623 C10.066433 65.75474288 10.02575982 68.44361199 9.97412109 71.13330078 C9.95559082 72.44153809 9.93706055 73.74977539 9.91796875 75.09765625 C9.89758545 76.14187744 9.87720215 77.18609863 9.85620117 78.26196289 C10.21849611 83.39969092 11.77118178 87.60486355 14.0625 92.1875 C4.4925 92.1875 -5.0775 92.1875 -14.9375 92.1875 C-13.6175 89.8775 -12.2975 87.5675 -10.9375 85.1875 C-9.77755452 81.25375104 -9.79952506 77.42479042 -9.77636719 73.33691406 C-9.77140228 72.66789062 -9.76643738 71.99886719 -9.76132202 71.30957031 C-9.74677893 69.1074112 -9.73991101 66.90532415 -9.734375 64.703125 C-9.73154762 63.94666435 -9.72872025 63.1902037 -9.72580719 62.41082001 C-9.71084498 58.40636346 -9.70159725 54.40194266 -9.69726562 50.39746094 C-9.6917904 46.2809024 -9.66777413 42.16467618 -9.63929367 38.04822159 C-9.62057907 34.865286 -9.61545699 31.68242899 -9.61392975 28.49944305 C-9.61092174 26.98292986 -9.60295653 25.46641743 -9.58974457 23.9499588 C-9.52412557 15.83828544 -9.7360533 8.75897427 -12.9375 1.1875 C-10.40440278 -1.34559722 -3.40755092 0.00194829 0 0 Z " fill="#1098FB" transform="translate(136.9375,9.8125)"/>
<path d="M0 0 C3.84398222 0.46959643 7.7105754 0.07475819 11.56640625 -0.1796875 C14.23828125 0.2734375 14.23828125 0.2734375 15.7510376 2.36764526 C17.40219648 5.59369679 18.56696143 8.77790751 19.70605469 12.21923828 C19.93243118 12.89789948 20.15880768 13.57656067 20.39204407 14.27578735 C21.13354428 16.50474451 21.86600716 18.73654154 22.59765625 20.96875 C23.11115421 22.52392527 23.62493199 24.07900817 24.13897705 25.63400269 C25.21220981 28.88567142 26.28072989 32.13884342 27.34619141 35.39306641 C28.71352087 39.56736303 30.09455546 43.73697954 31.4793663 47.90550423 C32.54248819 51.11185812 33.59733848 54.32088683 34.6497879 57.5307579 C35.15575983 59.06989229 35.66455535 60.60810138 36.17620087 62.14535904 C36.88874666 64.28967864 37.58984362 66.43741334 38.28808594 68.58642578 C38.68985046 69.8082254 39.09161499 71.03002502 39.5055542 72.28884888 C40.23828125 75.2734375 40.23828125 75.2734375 39.23828125 78.2734375 C39.23828125 77.6134375 39.23828125 76.9534375 39.23828125 76.2734375 C38.57828125 76.2734375 37.91828125 76.2734375 37.23828125 76.2734375 C37.04194092 75.61859375 36.84560059 74.96375 36.64331055 74.2890625 C35.74027216 71.28300349 34.83305762 68.27822001 33.92578125 65.2734375 C33.61705078 64.24347656 33.30832031 63.21351562 32.99023438 62.15234375 C31.05380684 55.73641047 31.05380684 55.73641047 28.78515625 49.43359375 C26.17504139 42.69101475 24.27326347 35.68095216 22.22045898 28.75219727 C20.14067336 21.75016445 18.06842899 15.4941558 14.23828125 9.2734375 C14.23828125 8.2834375 14.23828125 7.2934375 14.23828125 6.2734375 C13.57828125 6.6034375 12.91828125 6.9334375 12.23828125 7.2734375 C12.23828125 8.5934375 12.23828125 9.9134375 12.23828125 11.2734375 C12.89828125 11.6034375 13.55828125 11.9334375 14.23828125 12.2734375 C14.23828125 12.9334375 14.23828125 13.5934375 14.23828125 14.2734375 C13.57828125 14.6034375 12.91828125 14.9334375 12.23828125 15.2734375 C12.09390625 16.3046875 11.94953125 17.3359375 11.80078125 18.3984375 C11.23828125 22.2734375 11.23828125 22.2734375 9.55078125 25.4609375 C6.297883 32.52210687 10.16706527 41.43672646 12.63671875 48.296875 C13.46426369 51.01595123 13.51966173 53.45963272 13.23828125 56.2734375 C12.23828125 57.2734375 12.23828125 57.2734375 10.38061523 57.38696289 C9.19447632 57.37910767 9.19447632 57.37910767 7.984375 57.37109375 C7.13037109 57.36787109 6.27636719 57.36464844 5.39648438 57.36132812 C4.49865234 57.35294922 3.60082031 57.34457031 2.67578125 57.3359375 C1.77408203 57.33142578 0.87238281 57.32691406 -0.05664062 57.32226562 C-2.29173189 57.31043975 -4.52669312 57.2939597 -6.76171875 57.2734375 C-6.43171875 56.6134375 -6.10171875 55.9534375 -5.76171875 55.2734375 C0.17828125 55.2734375 6.11828125 55.2734375 12.23828125 55.2734375 C8.93828125 45.7034375 5.63828125 36.1334375 2.23828125 26.2734375 C-0.5985009 35.02082736 -0.5985009 35.02082736 -3.4152832 43.7746582 C-3.77323975 44.86351318 -4.13119629 45.95236816 -4.5 47.07421875 C-4.86134033 48.18966064 -5.22268066 49.30510254 -5.5949707 50.4543457 C-6.69501413 53.11226608 -7.56579727 54.47526784 -9.76171875 56.2734375 C-9.76171875 55.2834375 -9.76171875 54.2934375 -9.76171875 53.2734375 C-10.42171875 52.9434375 -11.08171875 52.6134375 -11.76171875 52.2734375 C-12.76171875 51.2734375 -12.76171875 51.2734375 -13.76171875 48.2734375 C-15.74171875 48.7684375 -15.74171875 48.7684375 -17.76171875 49.2734375 C-18.0246875 50.39363281 -18.28765625 51.51382813 -18.55859375 52.66796875 C-21.6186516 64.87867329 -25.75627853 79.74767556 -32.76171875 90.2734375 C-35.35888672 91.41943359 -35.35888672 91.41943359 -37.76171875 92.2734375 C-37.23058472 91.50604248 -37.23058472 91.50604248 -36.6887207 90.72314453 C-31.30482291 82.41395766 -28.24844987 73.41538219 -24.94921875 64.1484375 C-24.33541091 62.44808847 -23.72049323 60.74813969 -23.10449219 59.04858398 C-22.18361778 56.50705255 -21.26358562 53.96524993 -20.34768677 51.42192078 C-17.46262864 43.41186083 -14.46332843 35.44744254 -11.42651367 27.49365234 C-6.44693339 14.69882673 -6.44693339 14.69882673 -7.76171875 1.2734375 C-4.39294517 -0.97241155 -3.7491662 -0.72253738 0 0 Z " fill="#0BAEFA" transform="translate(262.76171875,9.7265625)"/>
<path d="M0 0 C1 1 1 1 1.11352539 2.94946289 C1.10828857 3.7821167 1.10305176 4.61477051 1.09765625 5.47265625 C1.09443359 6.37177734 1.09121094 7.27089844 1.08789062 8.19726562 C1.07532227 9.61555664 1.07532227 9.61555664 1.0625 11.0625 C1.05798828 12.01189453 1.05347656 12.96128906 1.04882812 13.93945312 C1.0370011 16.29303065 1.02052025 18.64648477 1 21 C0.34 21 -0.32 21 -1 21 C-2.55078125 19.35546875 -2.55078125 19.35546875 -4.3125 17.1875 C-7.90560619 12.96820932 -11.3514511 9.80693556 -17 9 C-23.33566271 8.51992315 -23.33566271 8.51992315 -29 11 C-31.02273558 14.03410337 -31.31526269 14.85371 -31.375 18.3125 C-31.41753906 19.42044922 -31.41753906 19.42044922 -31.4609375 20.55078125 C-30.64702738 24.87554094 -28.57834477 27.82009731 -25.05126953 30.45678711 C-22.69034869 31.96770461 -20.29483571 33.39796368 -17.875 34.8125 C2.3621623 47.1272732 2.3621623 47.1272732 5.6875 58.3125 C6.41904728 64.60380661 6.44231561 70.0468557 4 76 C3.67 76 3.34 76 3 76 C3.08701172 74.33324219 3.08701172 74.33324219 3.17578125 72.6328125 C3.64411204 60.02079543 3.64411204 60.02079543 -2 49 C-7.07366459 44.02801206 -13.27594515 40.50144978 -19.28125 36.7734375 C-22.74090326 34.51670965 -25.93285798 31.99989952 -29.125 29.3828125 C-31.05580051 27.80996511 -31.05580051 27.80996511 -34 27 C-33.03644647 12.21867882 -33.03644647 12.21867882 -32 6 C-33.32 6 -34.64 6 -36 6 C-36.33 5.34 -36.66 4.68 -37 4 C-39.0245738 5.93254772 -40.42105792 7.63158688 -42 10 C-46.44444444 13 -46.44444444 13 -49 13 C-49.99992489 27.27548412 -49.99992489 27.27548412 -43.66796875 39.484375 C-39.3660662 43.53578702 -34.18902959 46.46812015 -29.21020508 49.60424805 C-15.88235057 58.08235864 -15.88235057 58.08235864 -13 65 C-13.495 66.485 -13.495 66.485 -14 68 C-14.31710938 67.43152344 -14.63421875 66.86304687 -14.9609375 66.27734375 C-18.96452212 59.65262777 -23.51129192 56.07472717 -30 52 C-32.10864395 50.63187609 -34.21275875 49.25674855 -36.3125 47.875 C-37.27800781 47.25367188 -38.24351562 46.63234375 -39.23828125 45.9921875 C-45.09662494 41.76622529 -50.62104183 36.32408916 -52 29 C-52.82197566 20.33402808 -52.39057544 13.09613856 -47 6 C-33.71520116 -6.92445167 -16.47561497 -5.92836435 0 0 Z " fill="#08BBF9" transform="translate(216,12)"/>
<path d="M0 0 C2.475 0.99 2.475 0.99 5 2 C5 2.66 5 3.32 5 4 C7.64 4.33 10.28 4.66 13 5 C13.05449838 6.72880982 13.09301688 8.45812712 13.125 10.1875 C13.14820313 11.15042969 13.17140625 12.11335938 13.1953125 13.10546875 C12.9913544 16.12812778 12.26874632 18.26769985 11 21 C11.763125 21 12.52625 21 13.3125 21 C16.20833333 21 19.10416667 21 22 21 C21.79375 19.741875 21.5875 18.48375 21.375 17.1875 C20.78664331 13.5985242 20.83382585 13.24926122 23 10 C22.34 9.67 21.68 9.34 21 9 C21.66 9 22.32 9 23 9 C23 8.34 23 7.68 23 7 C23.66 7 24.32 7 25 7 C24.96178427 22.9168499 24.96178427 22.9168499 21.5625 27.1875 C12.63383861 35.32771158 0.92825751 37.46967413 -10.76953125 37.2578125 C-27.92312373 35.88884381 -27.92312373 35.88884381 -33 31 C-33.6238052 27.5889466 -33.46823613 24.26505014 -33.3125 20.8125 C-33.28994141 19.87212891 -33.26738281 18.93175781 -33.24414062 17.96289062 C-33.18519227 15.64032527 -33.10297785 13.32096224 -33 11 C-32.34 11 -31.68 11 -31 11 C-29.7734375 12.5390625 -29.7734375 12.5390625 -28.375 14.625 C-23.68057717 21.0669817 -18.04807243 25.72925172 -10 27 C-5.23612252 26.91087984 -1.15643914 26.44964605 3 24 C5.87741616 20.48315803 6.86804802 16.80172333 7.27734375 12.3515625 C6.76007252 7.96568532 3.83379456 5.19376306 1 2 C0.505 1.01 0.505 1.01 0 0 Z " fill="#156AF9" transform="translate(195,67)"/>
<path d="M0 0 C1.11890625 -0.01224609 2.2378125 -0.02449219 3.390625 -0.03710938 C4.99164063 -0.04000977 4.99164063 -0.04000977 6.625 -0.04296875 C7.60726562 -0.04707764 8.58953125 -0.05118652 9.6015625 -0.05541992 C12 0.1875 12 0.1875 14 2.1875 C13.51359039 2.89177628 13.02718079 3.59605255 12.52603149 4.32167053 C10.8151185 7.53470046 10.61234729 9.42828168 10.58349609 13.04077148 C10.56692963 14.19645126 10.55036316 15.35213104 10.53329468 16.54283142 C10.53004181 17.78553299 10.52678894 19.02823456 10.5234375 20.30859375 C10.49962095 22.28289658 10.47580071 24.25719936 10.4517765 26.23149967 C10.42183025 28.9971248 10.40538765 31.76277127 10.38873291 34.52850342 C10.35728376 39.32960063 10.3053448 44.13051157 10.25234985 48.93141174 C10.225545 51.48143816 10.20401808 54.03152782 10.18881226 56.58164978 C10.11736347 64.82543017 9.67842793 72.97195815 9 81.1875 C8.67 81.1875 8.34 81.1875 8 81.1875 C7.65688155 74.20878096 7.32405282 67.22963071 7 60.25 C6.95231476 59.22384583 6.90462952 58.19769165 6.85549927 57.14044189 C6.25813586 44.10447416 5.77414567 31.11124149 5.98632812 18.05883789 C6.00663086 16.72647095 6.00663086 16.72647095 6.02734375 15.3671875 C6.04531006 14.62194824 6.06327637 13.87670898 6.08178711 13.10888672 C5.94761438 9.95682894 5.22207744 8.40957744 3 6.1875 C3 5.8575 3 5.5275 3 5.1875 C1.72125 5.125625 0.4425 5.06375 -0.875 5 C-1.95394531 4.94779297 -1.95394531 4.94779297 -3.0546875 4.89453125 C-4.01761719 5.03955078 -4.01761719 5.03955078 -5 5.1875 C-7.03563021 8.24094532 -7.25449266 8.89435977 -7.30297852 12.33813477 C-7.31965576 13.17575851 -7.33633301 14.01338226 -7.35351562 14.87638855 C-7.36189453 15.78471939 -7.37027344 16.69305023 -7.37890625 17.62890625 C-7.3955835 18.57667435 -7.41226074 19.52444244 -7.42944336 20.50093079 C-7.48225863 23.5838809 -7.52221724 26.66686315 -7.5625 29.75 C-7.63131462 33.94148001 -7.70661577 38.13283891 -7.78125 42.32421875 C-7.7986171 43.35335388 -7.81598419 44.38248901 -7.83387756 45.44281006 C-7.97628993 53.65461233 -8.22200528 61.85651752 -8.5625 70.0625 C-8.60640869 71.12283447 -8.65031738 72.18316895 -8.69555664 73.27563477 C-8.79355013 75.57976866 -8.89441782 77.88370358 -9 80.1875 C-9.33 80.1875 -9.66 80.1875 -10 80.1875 C-10.00808685 79.33860703 -10.01617371 78.48971405 -10.02450562 77.61509705 C-10.10259703 69.59685114 -10.18993126 61.57876982 -10.28752708 53.56073666 C-10.33737371 49.43904391 -10.38370433 45.31737536 -10.421875 41.19555664 C-10.45887535 37.21430834 -10.50527438 33.23326832 -10.55806351 29.25219917 C-10.57652937 27.73687982 -10.59166585 26.22151594 -10.60334396 24.70612907 C-10.62034107 22.57592527 -10.64940624 20.44619041 -10.68115234 18.31616211 C-10.70113785 16.50081215 -10.70113785 16.50081215 -10.7215271 14.64878845 C-11.10363885 9.89931735 -12.50094499 5.68466503 -14 1.1875 C-9.88137709 -0.87181145 -4.52640955 0.00260738 0 0 Z " fill="#0DBEF3" transform="translate(63,9.8125)"/>
<path d="M0 0 C1 1 1 1 1.11352539 2.94946289 C1.10828857 3.7821167 1.10305176 4.61477051 1.09765625 5.47265625 C1.09443359 6.37177734 1.09121094 7.27089844 1.08789062 8.19726562 C1.07532227 9.61555664 1.07532227 9.61555664 1.0625 11.0625 C1.05798828 12.01189453 1.05347656 12.96128906 1.04882812 13.93945312 C1.0370011 16.29303065 1.02052025 18.64648477 1 21 C0.34 21 -0.32 21 -1 21 C-2.55078125 19.35546875 -2.55078125 19.35546875 -4.3125 17.1875 C-6.9767666 14.05339385 -9.25477046 11.82200356 -13 10 C-13.763125 9.608125 -14.52625 9.21625 -15.3125 8.8125 C-16.1478125 8.4103125 -16.1478125 8.4103125 -17 8 C-11.92890658 7.62894438 -8.47622533 8.58972482 -4 11 C-2.796875 13.109375 -2.796875 13.109375 -2 15 C-2.01160156 14.15695313 -2.02320313 13.31390625 -2.03515625 12.4453125 C-2.04417969 11.34960938 -2.05320313 10.25390625 -2.0625 9.125 C-2.07410156 8.03445312 -2.08570313 6.94390625 -2.09765625 5.8203125 C-2 3 -2 3 -1 1 C-2.5159375 0.7834375 -2.5159375 0.7834375 -4.0625 0.5625 C-6.44275734 0.22246324 -8.81966375 -0.14464654 -11.1875 -0.5625 C-20.79446296 -1.66493837 -30.55883693 -1.92985704 -39.25 2.75 C-44.78113681 7.27547557 -48.58474848 11.95854041 -49.3359375 19.26953125 C-49.42539677 27.38348738 -49.17792584 33.30749092 -43.66796875 39.49609375 C-39.35071327 43.52917545 -34.18866813 46.46834783 -29.21020508 49.60424805 C-15.88235057 58.08235864 -15.88235057 58.08235864 -13 65 C-13.495 66.485 -13.495 66.485 -14 68 C-14.31710938 67.43152344 -14.63421875 66.86304687 -14.9609375 66.27734375 C-18.96452212 59.65262777 -23.51129192 56.07472717 -30 52 C-32.10864395 50.63187609 -34.21275875 49.25674855 -36.3125 47.875 C-37.27800781 47.25367188 -38.24351562 46.63234375 -39.23828125 45.9921875 C-45.09662494 41.76622529 -50.62104183 36.32408916 -52 29 C-52.82197566 20.33402808 -52.39057544 13.09613856 -47 6 C-33.71520116 -6.92445167 -16.47561497 -5.92836435 0 0 Z " fill="#30CCE7" transform="translate(216,12)"/>
<path d="M0 0 C0.33 0 0.66 0 1 0 C1.08751499 4.52071021 1.1405661 9.0412007 1.1875 13.5625 C1.21263672 14.83931641 1.23777344 16.11613281 1.26367188 17.43164062 C1.27817383 19.29272461 1.27817383 19.29272461 1.29296875 21.19140625 C1.3086792 22.32779541 1.32438965 23.46418457 1.34057617 24.63500977 C1 28 1 28 -2 35 C16.15 35 34.3 35 53 35 C53.66 31.04 54.32 27.08 55 23 C55.33 22.34 55.66 21.68 56 21 C55.41992188 21.40992187 54.83984375 21.81984375 54.2421875 22.2421875 C53.46101563 22.78101562 52.67984375 23.31984375 51.875 23.875 C50.72644531 24.67550781 50.72644531 24.67550781 49.5546875 25.4921875 C42.86315195 29.44162591 36.68953899 29.24610715 29.125 29.125 C28.05507812 29.11597656 26.98515625 29.10695313 25.8828125 29.09765625 C23.25511144 29.07419463 20.62752628 29.03832696 18 29 C18 23.72 18 18.44 18 13 C18.33 13 18.66 13 19 13 C19 17.62 19 22.24 19 27 C36.98385952 27.27706716 36.98385952 27.27706716 53 20 C53.55300781 19.44054687 54.10601562 18.88109375 54.67578125 18.3046875 C56 17 56 17 58 17 C57.91155191 19.00075676 57.80337177 21.000644 57.6875 23 C57.60048828 24.670625 57.60048828 24.670625 57.51171875 26.375 C57 30 57 30 54 38 C34.2 38 14.4 38 -6 38 C-4 33 -4 33 -2.41796875 30.02734375 C-0.04832186 24.52600493 -0.42496637 18.4525247 -0.3125 12.5625 C-0.27833984 11.35400391 -0.24417969 10.14550781 -0.20898438 8.90039062 C-0.12690165 5.93368651 -0.05761985 2.96726324 0 0 Z " fill="#2370DB" transform="translate(54,64)"/>
<path d="M0 0 C1.12341797 -0.01224609 2.24683594 -0.02449219 3.40429688 -0.03710938 C5.01208008 -0.04000977 5.01208008 -0.04000977 6.65234375 -0.04296875 C8.13528931 -0.04913208 8.13528931 -0.04913208 9.64819336 -0.05541992 C12.0625 0.1875 12.0625 0.1875 14.0625 2.1875 C13.5780542 2.98945801 13.0936084 3.79141602 12.59448242 4.61767578 C10.70575384 9.01878963 10.58755842 12.57303884 10.55078125 17.3046875 C10.53283005 18.16184357 10.51487885 19.01899963 10.49638367 19.90213013 C10.44248595 22.62220436 10.40845142 25.3421052 10.375 28.0625 C10.34180874 29.91408652 10.30731741 31.76565022 10.27148438 33.6171875 C10.18677148 38.14049948 10.1198628 42.66376186 10.0625 47.1875 C9.4025 46.8575 8.7425 46.5275 8.0625 46.1875 C7.5675 25.3975 7.5675 25.3975 7.0625 4.1875 C2.7725 4.1875 -1.5175 4.1875 -5.9375 4.1875 C-7.2575 3.8575 -8.5775 3.5275 -9.9375 3.1875 C-9.61218292 3.71885559 -9.28686584 4.25021118 -8.95169067 4.79766846 C-7.67080189 7.81594549 -7.6973372 10.14680074 -7.71044922 13.42480469 C-7.71060028 14.68580994 -7.71075134 15.94681519 -7.71090698 17.24603271 C-7.72111944 18.61714842 -7.73155142 19.98826251 -7.7421875 21.359375 C-7.74591943 22.76613158 -7.74876555 24.17289077 -7.75076294 25.57965088 C-7.75838524 29.27536239 -7.77802155 32.97091575 -7.8001709 36.66656494 C-7.82065964 40.44044862 -7.82977112 44.21435794 -7.83984375 47.98828125 C-7.86126888 55.38809279 -7.89538774 62.7877742 -7.9375 70.1875 C-8.2675 70.1875 -8.5975 70.1875 -8.9375 70.1875 C-8.94336624 69.45580093 -8.94923248 68.72410187 -8.95527649 67.9702301 C-9.01341616 61.04153326 -9.08561309 54.11310661 -9.17321491 47.18472385 C-9.2177562 43.6235796 -9.25704678 40.06254546 -9.28393555 36.5012207 C-9.31515655 32.39766331 -9.36993778 28.29470301 -9.42578125 24.19140625 C-9.43217117 22.92543106 -9.4385611 21.65945587 -9.44514465 20.3551178 C-9.56101168 13.32749243 -10.29338986 7.71620502 -12.9375 1.1875 C-10.40440278 -1.34559722 -3.40755092 0.00194829 0 0 Z " fill="#30C2E7" transform="translate(136.9375,9.8125)"/>
<path d="M0 0 C1 4 1 4 0.125 6.5 C-1.48929739 11.52225854 -2.09483128 16.72105872 -2 22 C-1.34 22.66 -0.68 23.32 0 24 C-6.6 24 -13.2 24 -20 24 C-19.67 23.34 -19.34 22.68 -19 22 C-18.34 22 -17.68 22 -17 22 C-16.81050781 21.15308594 -16.81050781 21.15308594 -16.6171875 20.2890625 C-15.96577172 17.87305206 -15.11603199 15.67204314 -14.125 13.375 C-13.63386719 12.21097656 -13.63386719 12.21097656 -13.1328125 11.0234375 C-12 9 -12 9 -9 7 C-7.34450469 6.61500109 -5.6777567 6.27206865 -4 6 C-3.67 7.32 -3.34 8.64 -3 10 C-2.01 6.7 -1.02 3.4 0 0 Z " fill="#1468F2" transform="translate(247,78)"/>
<path d="M0 0 C1.25159912 0.00523682 2.50319824 0.01047363 3.79272461 0.01586914 C4.78942421 0.01799156 4.78942421 0.01799156 5.80625916 0.02015686 C7.93590735 0.02577021 10.06545175 0.03832485 12.19506836 0.05102539 C13.63582205 0.05603868 15.07657739 0.06060188 16.51733398 0.06469727 C20.05577938 0.07574394 23.59416375 0.09301747 27.13256836 0.11352539 C27.7816699 1.6955217 28.4267153 3.27918263 29.07006836 4.86352539 C29.60954102 6.18610352 29.60954102 6.18610352 30.15991211 7.53540039 C32.41836381 13.52165792 32.20854831 18.73120923 32.13256836 25.11352539 C38.40256836 24.78352539 44.67256836 24.45352539 51.13256836 24.11352539 C50.63756836 18.66852539 50.63756836 18.66852539 50.13256836 13.11352539 C52.15544121 16.14783466 54.03630889 19.24597152 55.91381836 22.37133789 C57.02924358 24.26042459 57.02924358 24.26042459 59.13256836 25.11352539 C59.13256836 25.77352539 59.13256836 26.43352539 59.13256836 27.11352539 C49.23256836 27.11352539 39.33256836 27.11352539 29.13256836 27.11352539 C29.46256836 24.14352539 29.79256836 21.17352539 30.13256836 18.11352539 C29.95373552 15.60441284 29.95373552 15.60441284 29.35522461 13.51586914 C29.0796875 12.40888672 29.0796875 12.40888672 28.79858398 11.27954102 C28.59942383 10.54413086 28.40026367 9.8087207 28.19506836 9.05102539 C27.99977539 8.28081055 27.80448242 7.5105957 27.60327148 6.71704102 C27.12671044 4.84566715 26.63160715 2.97903091 26.13256836 1.11352539 C25.42592041 1.27651123 24.71927246 1.43949707 23.99121094 1.60742188 C21.05612297 2.12705954 18.37268143 2.22710888 15.39428711 2.21118164 C14.32758789 2.20795898 13.26088867 2.20473633 12.16186523 2.20141602 C10.50767578 2.18884766 10.50767578 2.18884766 8.82006836 2.17602539 C7.69793945 2.17151367 6.57581055 2.16700195 5.41967773 2.16235352 C2.65725326 2.15059852 -0.10506162 2.13416616 -2.86743164 2.11352539 C-3.00922852 3.18602539 -3.15102539 4.25852539 -3.29711914 5.36352539 C-3.71228367 8.09337437 -4.19182933 10.49747278 -4.99243164 13.11352539 C-6.29308388 18.07527282 -5.47470671 22.2917002 -3.86743164 27.11352539 C-6.17743164 26.78352539 -8.48743164 26.45352539 -10.86743164 26.11352539 C-9.87743164 25.78352539 -8.88743164 25.45352539 -7.86743164 25.11352539 C-7.91383789 24.38649414 -7.96024414 23.65946289 -8.00805664 22.91040039 C-8.29412652 14.94131077 -6.97372409 8.46134166 -3.86743164 1.11352539 C-2.86743164 0.11352539 -2.86743164 0.11352539 0 0 Z " fill="#3E96EA" transform="translate(252.867431640625,74.886474609375)"/>
<path d="M0 0 C-0.4851709 0.71736328 -0.9703418 1.43472656 -1.47021484 2.17382812 C-4.08522896 7.44958211 -3.4614525 13.47021387 -3.4765625 19.21875 C-3.50037894 21.19088068 -3.52419907 23.16301131 -3.5482235 25.13513947 C-3.57813628 27.89327295 -3.59460366 30.65142756 -3.61126709 33.40966797 C-3.64275134 38.20199124 -3.69466518 42.99412863 -3.74765015 47.78625488 C-3.77444539 50.33071691 -3.79597613 52.87524216 -3.81118774 55.4197998 C-3.88275644 63.6549055 -4.32261043 71.79307072 -5 80 C-5.33 80 -5.66 80 -6 80 C-6.04636473 70.56835215 -6.08189024 61.1367436 -6.10362434 51.7050066 C-6.11405624 47.32535078 -6.12820461 42.94577301 -6.15087891 38.56616211 C-6.17262844 34.33865785 -6.1845731 30.11122861 -6.18975449 25.88367271 C-6.19344645 24.27175402 -6.20065593 22.65983937 -6.21146011 21.04795265 C-6.22600315 18.78814484 -6.22797678 16.528646 -6.22705078 14.26879883 C-6.231492 12.98306473 -6.23593323 11.69733063 -6.24050903 10.37263489 C-6 7 -6 7 -4 2 C-8.95 2 -13.9 2 -19 2 C-19 1.34 -19 0.68 -19 0 C-12.48755792 -0.69508823 -6.4489191 -1.31909709 0 0 Z " fill="#3AB8E4" transform="translate(77,11)"/>
<path d="M0 0 C1.32 0.66 2.64 1.32 4 2 C3.34 2.33 2.68 2.66 2 3 C1.34 2.67 0.68 2.34 0 2 C0.2475 2.7425 0.2475 2.7425 0.5 3.5 C1.88537207 10.42686034 0.74919096 15.85570529 -1.703125 22.3046875 C-1.98218689 23.0687088 -2.26124878 23.8327301 -2.54876709 24.61990356 C-3.43720745 27.04288058 -4.34337269 29.45877777 -5.25 31.875 C-5.84359689 33.48785884 -6.43605457 35.10113745 -7.02734375 36.71484375 C-9.65394255 43.85562711 -12.31916265 50.97496279 -15.23413086 58.00415039 C-16.06259463 60.16312118 -16.70109236 62.33310203 -17.3125 64.5625 C-19.35135815 71.66452255 -22.3127034 78.47259601 -25.24658203 85.24511719 C-25.8326447 86.61019123 -26.37623794 87.99352877 -26.90234375 89.3828125 C-28.46783661 91.68926818 -30.44052185 92.0537204 -33 93 C-32.46886597 92.23260498 -32.46886597 92.23260498 -31.92700195 91.44970703 C-26.54310416 83.14052016 -23.48673112 74.14194469 -20.1875 64.875 C-19.57369216 63.17465097 -18.95877448 61.47470219 -18.34277344 59.77514648 C-17.42189903 57.23361505 -16.50186687 54.69181243 -15.58596802 52.14848328 C-12.70090989 44.13842333 -9.70160968 36.17400504 -6.66479492 28.22021484 C-1.68521464 15.42538923 -1.68521464 15.42538923 -3 2 C-2.01 1.34 -1.02 0.68 0 0 Z " fill="#35A6DF" transform="translate(258,9)"/>
<path d="M0 0 C2.26921536 -0.13489391 4.5407067 -0.23193995 6.8125 -0.3125 C8.70935547 -0.39951172 8.70935547 -0.39951172 10.64453125 -0.48828125 C11.75183594 -0.32714844 12.85914063 -0.16601562 14 0 C16.71591079 3.6603785 18.04485488 7.6470014 19.46777344 11.94580078 C19.69414993 12.62446198 19.92052643 13.30312317 20.15376282 14.00234985 C20.89526303 16.23130701 21.62772591 18.46310404 22.359375 20.6953125 C22.87287296 22.25048777 23.38665074 23.80557067 23.9006958 25.36056519 C24.97392856 28.61223392 26.04244864 31.86540592 27.10791016 35.11962891 C28.47523962 39.29392553 29.85627421 43.46354204 31.24108505 47.63206673 C32.30420694 50.83842062 33.35905723 54.04744933 34.41150665 57.2573204 C34.91747858 58.79645479 35.4262741 60.33466388 35.93791962 61.87192154 C36.65046541 64.01624114 37.35156237 66.16397584 38.04980469 68.31298828 C38.45156921 69.5347879 38.85333374 70.75658752 39.26727295 72.01541138 C40 75 40 75 39 78 C39 77.34 39 76.68 39 76 C38.34 76 37.68 76 37 76 C36.80365967 75.34515625 36.60731934 74.6903125 36.4050293 74.015625 C35.50199091 71.00956599 34.59477637 68.00478251 33.6875 65 C33.2244043 63.45505859 33.2244043 63.45505859 32.75195312 61.87890625 C30.81303185 55.45612086 30.81303185 55.45612086 28.546875 49.14453125 C26.21274662 43.10866373 24.44685415 36.87468534 22.5625 30.6875 C20.14122798 22.7377249 17.67772316 14.85210374 14.71459961 7.08520508 C14 5 14 5 14 3 C7.07 2.505 7.07 2.505 0 2 C0 1.34 0 0.68 0 0 Z " fill="#37BDE3" transform="translate(263,10)"/>
<path d="M0 0 C0.91007813 0.00902344 1.82015625 0.01804687 2.7578125 0.02734375 C3.45648438 0.03894531 4.15515625 0.05054687 4.875 0.0625 C4.875 0.3925 4.875 0.7225 4.875 1.0625 C4.19953125 1.16046875 3.5240625 1.2584375 2.828125 1.359375 C-1.06429188 2.01186107 -4.33636588 2.59307493 -7.75 4.625 C-9.83391448 8.31921202 -10.03305805 11.93617737 -9.125 16.0625 C-6.11223126 22.09609302 -1.61624754 24.59197294 4 27.875 C24.2371623 40.1897732 24.2371623 40.1897732 27.5625 51.375 C28.29404728 57.66630661 28.31731561 63.1093557 25.875 69.0625 C25.545 69.0625 25.215 69.0625 24.875 69.0625 C24.96201172 67.39574219 24.96201172 67.39574219 25.05078125 65.6953125 C25.51911204 53.08329543 25.51911204 53.08329543 19.875 42.0625 C14.80133541 37.09051206 8.59905485 33.56394978 2.59375 29.8359375 C-0.86590326 27.57920965 -4.05785798 25.06239952 -7.25 22.4453125 C-9.18080051 20.87246511 -9.18080051 20.87246511 -12.125 20.0625 C-12.06465068 17.83259273 -11.9757725 15.6034464 -11.875 13.375 C-11.82859375 12.13363281 -11.7821875 10.89226563 -11.734375 9.61328125 C-11.04762196 5.61162411 -9.94719688 3.92183105 -7.125 1.0625 C-4.60024538 -0.19987731 -2.81299534 -0.03606404 0 0 Z " fill="#3DADE1" transform="translate(194.125,18.9375)"/>
<path d="M0 0 C-0.30742903 2.31317961 -0.62107702 4.62553352 -0.9375 6.9375 C-1.19853516 8.86916016 -1.19853516 8.86916016 -1.46484375 10.83984375 C-2 14 -2 14 -3 15 C-4.99964982 15.08758003 -7.0023611 15.10696576 -9.00390625 15.09765625 C-10.21884766 15.09443359 -11.43378906 15.09121094 -12.68554688 15.08789062 C-13.96494141 15.07951172 -15.24433594 15.07113281 -16.5625 15.0625 C-17.84576172 15.05798828 -19.12902344 15.05347656 -20.45117188 15.04882812 C-23.63416022 15.03699545 -26.81705762 15.02051068 -30 15 C-30 14.67 -30 14.34 -30 14 C-27.56288386 13.80515062 -25.12562602 13.61884822 -22.6875 13.4375 C-21.99720703 13.38142578 -21.30691406 13.32535156 -20.59570312 13.26757812 C-17.37487726 13.03418495 -15.09672655 12.96775782 -12 14 C-12.33 12.35 -12.66 10.7 -13 9 C-13.66 9 -14.32 9 -15 9 C-15 9.66 -15 10.32 -15 11 C-15.66 10.67 -16.32 10.34 -17 10 C-17 9.34 -17 8.68 -17 8 C-16.12988281 7.63648437 -16.12988281 7.63648437 -15.2421875 7.265625 C-11.49369637 5.65736148 -7.92089623 4.08337704 -4.5625 1.75 C-2 0 -2 0 0 0 Z " fill="#156CF9" transform="translate(110,85)"/>
<path d="M0 0 C1.91821088 5.72722962 0.29588981 12.59042584 -1.8046875 18.1171875 C-2.625 19.75 -2.625 19.75 -4 22 C-4.33 21.01 -4.66 20.02 -5 19 C-5.66 18.67 -6.32 18.34 -7 18 C-8 17 -8 17 -9 14 C-9.99 14.33 -10.98 14.66 -12 15 C-11.52343588 13.20763933 -11.04366502 11.41613103 -10.5625 9.625 C-10.29566406 8.62726562 -10.02882812 7.62953125 -9.75390625 6.6015625 C-9 4 -9 4 -8 2 C-5.36 2 -2.72 2 0 2 C0 1.34 0 0.68 0 0 Z " fill="#1798F5" transform="translate(258,44)"/>
<path d="M0 0 C2.64 0 5.28 0 8 0 C3.75530671 5.40233692 -2.889347 7.30874378 -9.375 8.75 C-18.55180201 9.3828829 -27.00258518 8.98368201 -36 7 C-36 6.67 -36 6.34 -36 6 C-31.38 6 -26.76 6 -22 6 C-22.33 5.01 -22.66 4.02 -23 3 C-21.26043342 1.26043342 -18.8063378 1.62809614 -16.4375 1.4375 C-14.91962891 1.31181641 -14.91962891 1.31181641 -13.37109375 1.18359375 C-12.58863281 1.12300781 -11.80617187 1.06242187 -11 1 C-11.99 1.495 -11.99 1.495 -13 2 C-12.67 2.99 -12.34 3.98 -12 5 C-9.69 5.33 -7.38 5.66 -5 6 C-5 5.34 -5 4.68 -5 4 C-1.535 3.505 -1.535 3.505 2 3 C2 2.34 2 1.68 2 1 C1.34 0.67 0.68 0.34 0 0 Z " fill="#1E67E9" transform="translate(206,95)"/>
<path d="M0 0 C0.33 0 0.66 0 1 0 C1 4.62 1 9.24 1 14 C18.98385952 14.27706716 18.98385952 14.27706716 35 7 C35.55300781 6.44054687 36.10601562 5.88109375 36.67578125 5.3046875 C38 4 38 4 40 4 C39.22095672 17.6332574 39.22095672 17.6332574 37 24 C36.67 24 36.34 24 36 24 C36.14063135 21.70800823 36.28765943 19.41640814 36.4375 17.125 C36.51871094 15.84882812 36.59992188 14.57265625 36.68359375 13.2578125 C37 10 37 10 38 8 C37.41992188 8.40992187 36.83984375 8.81984375 36.2421875 9.2421875 C35.46101563 9.78101562 34.67984375 10.31984375 33.875 10.875 C32.72644531 11.67550781 32.72644531 11.67550781 31.5546875 12.4921875 C24.86315195 16.44162591 18.68953899 16.24610715 11.125 16.125 C10.05507812 16.11597656 8.98515625 16.10695313 7.8828125 16.09765625 C5.25511144 16.07419463 2.62752628 16.03832696 0 16 C0 10.72 0 5.44 0 0 Z " fill="#317CD4" transform="translate(72,77)"/>
<path d="M0 0 C0.33 0 0.66 0 1 0 C1.22224251 2.58281836 1.42823488 5.16522187 1.625 7.75 C1.68945312 8.47960937 1.75390625 9.20921875 1.8203125 9.9609375 C2.13213013 14.24842986 1.98070573 16.03858853 0 20 C6.27 19.67 12.54 19.34 19 19 C18.34 17.68 17.68 16.36 17 15 C16.8046875 11.765625 16.8046875 11.765625 16.875 8.25 C16.89304688 7.07953125 16.91109375 5.9090625 16.9296875 4.703125 C16.95289063 3.81109375 16.97609375 2.9190625 17 2 C17.33 2 17.66 2 18 2 C18.10957031 2.96421875 18.21914062 3.9284375 18.33203125 4.921875 C18.49058594 6.18515625 18.64914063 7.4484375 18.8125 8.75 C18.96332031 10.00296875 19.11414063 11.2559375 19.26953125 12.546875 C19.99132479 15.95898991 20.79038925 17.40900438 23 20 C23 20.66 23 21.32 23 22 C13.43 22 3.86 22 -6 22 C-4.68 19.69 -3.36 17.38 -2 15 C-1.31745927 12.91510736 -1.31745927 12.91510736 -1.171875 11.03515625 C-0.95784168 9.01967582 -0.74340705 7.0042073 -0.515625 4.99023438 C-0.32967845 3.32833709 -0.16279112 1.66432501 0 0 Z " fill="#2C74DA" transform="translate(128,80)"/>
<path d="M0 0 C2.475 0.99 2.475 0.99 5 2 C5 2.66 5 3.32 5 4 C7.64 4.33 10.28 4.66 13 5 C13 8.63 13 12.26 13 16 C12.01 16.33 11.02 16.66 10 17 C8.6911303 18.76170181 8.6911303 18.76170181 7.5625 20.875 C4.20907156 26.44408652 4.20907156 26.44408652 1 28 C-2.25 28.1875 -2.25 28.1875 -5 28 C-1 26 -1 26 1.0625 25.1875 C4.36330758 23.16442438 5.5179131 20.59881983 6.6171875 16.953125 C7.32635534 13.34507808 7.54754752 11.00583965 5.75390625 7.7109375 C4.24638814 5.72260426 2.65509384 3.86533549 1 2 C0.67 1.34 0.34 0.68 0 0 Z " fill="#157DFD" transform="translate(195,67)"/>
<path d="M0 0 C0.87454834 0.04713135 1.74909668 0.0942627 2.65014648 0.14282227 C4.06650391 0.21533203 4.06650391 0.21533203 5.51147461 0.28930664 C6.50469727 0.34538086 7.49791992 0.40145508 8.52124023 0.45922852 C9.51833008 0.51143555 10.51541992 0.56364258 11.54272461 0.61743164 C14.01501545 0.74755221 16.48694653 0.88253033 18.95874023 1.02172852 C18.95874023 1.35172852 18.95874023 1.68172852 18.95874023 2.02172852 C9.55374023 2.51672852 9.55374023 2.51672852 -0.04125977 3.02172852 C0.61874023 4.34172852 1.27874023 5.66172852 1.95874023 7.02172852 C2.19924927 9.89447021 2.19924927 9.89447021 2.18579102 13.2590332 C2.18563995 14.52003845 2.18548889 15.7810437 2.18533325 17.08026123 C2.17512079 18.45137694 2.16468882 19.82249103 2.15405273 21.19360352 C2.1503208 22.6003601 2.14747468 24.00711928 2.14547729 25.41387939 C2.13785499 29.1095909 2.11821869 32.80514427 2.09606934 36.50079346 C2.0755806 40.27467713 2.06646911 44.04858646 2.05639648 47.82250977 C2.03497135 55.22232131 2.0008525 62.62200272 1.95874023 70.02172852 C1.62874023 70.02172852 1.29874023 70.02172852 0.95874023 70.02172852 C0.95287399 69.29002945 0.94700775 68.55833038 0.94096375 67.80445862 C0.88282408 60.87576177 0.81062715 53.94733513 0.72302532 47.01895237 C0.67848403 43.45780811 0.63919345 39.89677398 0.61230469 36.33544922 C0.58108368 32.23189182 0.52630245 28.12893153 0.47045898 24.02563477 C0.46406906 22.75965958 0.45767914 21.49368439 0.45109558 20.18934631 C0.33522856 13.16172095 -0.39714962 7.55043354 -3.04125977 1.02172852 C-2.04125977 0.02172852 -2.04125977 0.02172852 0 0 Z " fill="#3DC2EF" transform="translate(127.041259765625,9.978271484375)"/>
<path d="M0 0 C0.66 0 1.32 0 2 0 C3.2265625 1.5390625 3.2265625 1.5390625 4.625 3.625 C10.947117 12.2115291 17.63684282 15.03100014 28 17 C28 17.33 28 17.66 28 18 C21.43147634 18.47771081 16.62056137 17.54572676 11 14 C8.10731292 11.47792341 5.60133191 8.83781663 3 6 C3 10.29 3 14.58 3 19 C5.475 19.99 5.475 19.99 8 21 C8 21.66 8 22.32 8 23 C4.62537285 22.45276317 2.91765 21.9451 0 20 C-0.34057617 17.93701172 -0.34057617 17.93701172 -0.29296875 15.4296875 C-0.28330078 14.53378906 -0.27363281 13.63789062 -0.26367188 12.71484375 C-0.23853516 11.77769531 -0.21339844 10.84054688 -0.1875 9.875 C-0.17396484 8.93011719 -0.16042969 7.98523438 -0.14648438 7.01171875 C-0.11106306 4.67391221 -0.06167271 2.33723763 0 0 Z " fill="#3688DF" transform="translate(162,78)"/>
<path d="M0 0 C0.66 0.33 1.32 0.66 2 1 C1.67 4.63 1.34 8.26 1 12 C0.34 12 -0.32 12 -1 12 C-1 12.66 -1 13.32 -1 14 C-3.875 14.625 -3.875 14.625 -7 15 C-7.66 14.34 -8.32 13.68 -9 13 C-7.08031022 6.7076835 -5.36505028 3.81514686 0 0 Z " fill="#11A4FA" transform="translate(259,32)"/>
<path d="M0 0 C2.16522246 3.2478337 3.2603321 6.44968555 4.4375 10.125 C4.87732925 11.48055798 5.31743248 12.8360271 5.7578125 14.19140625 C6.07540527 15.17391357 6.07540527 15.17391357 6.39941406 16.17626953 C7.16052343 18.48744311 7.99042207 20.77242577 8.8125 23.0625 C9.94871854 26.45831699 10.36074089 29.39259111 10 33 C9 34 9 34 7.14233398 34.11352539 C5.95619507 34.10567017 5.95619507 34.10567017 4.74609375 34.09765625 C3.89208984 34.09443359 3.03808594 34.09121094 2.15820312 34.08789062 C1.26037109 34.07951172 0.36253906 34.07113281 -0.5625 34.0625 C-1.46419922 34.05798828 -2.36589844 34.05347656 -3.29492188 34.04882812 C-5.53001314 34.03700225 -7.76497437 34.0205222 -10 34 C-9.67 33.34 -9.34 32.68 -9 32 C-3.06 32 2.88 32 9 32 C8.3503125 30.10894531 7.700625 28.21789062 7.03125 26.26953125 C6.40521652 24.42621046 5.77923744 22.58287071 5.15478516 20.73901367 C4.50818581 18.83658434 3.85375058 16.93682413 3.19921875 15.03710938 C2.79316406 13.83505859 2.38710938 12.63300781 1.96875 11.39453125 C1.59169922 10.28956299 1.21464844 9.18459473 0.82617188 8.04614258 C0.05198837 5.19168408 -0.17197068 2.93544395 0 0 Z " fill="#3AAEE4" transform="translate(266,33)"/>
<path d="M0 0 C0.66 0.66 1.32 1.32 2 2 C4.60280568 1.67958603 4.60280568 1.67958603 7 1 C8.23593891 4.70781672 7.5678132 5.67510253 6.0625 9.1875 C5.68222656 10.08855469 5.30195313 10.98960938 4.91015625 11.91796875 C4.60980469 12.60503906 4.30945313 13.29210937 4 14 C3.34 13.67 2.68 13.34 2 13 C-1.05244749 11.9611641 -1.05244749 11.9611641 -4 13 C-3.40895235 8.15340923 -2.02055843 4.39251833 0 0 Z " fill="#1677FA" transform="translate(240,74)"/>
<path d="M0 0 C3 1 3 1 4.17330933 3.10820007 C5.17396924 6.60855196 5.23963411 9.62592473 5.22705078 13.26879883 C5.22734283 13.98153961 5.22763489 14.6942804 5.22793579 15.42861938 C5.22654857 17.77154956 5.21101636 20.11415701 5.1953125 22.45703125 C5.1915802 24.08656134 5.18873425 25.71609369 5.18673706 27.34562683 C5.17911767 31.62493129 5.1594838 35.904099 5.1373291 40.18334961 C5.11683411 44.55385488 5.10772754 48.92438235 5.09765625 53.29492188 C5.07623625 61.86334385 5.04212085 70.43165489 5 79 C4.67 79 4.34 79 4 79 C3.99191315 78.15110703 3.98382629 77.30221405 3.97549438 76.42759705 C3.89740297 68.40935114 3.81006874 60.39126982 3.71247292 52.37323666 C3.66262629 48.25154391 3.61629567 44.12987536 3.578125 40.00805664 C3.54112465 36.02680834 3.49472562 32.04576832 3.44193649 28.06469917 C3.42347063 26.54937982 3.40833415 25.03401594 3.39665604 23.51862907 C3.37965893 21.38842527 3.35059376 19.25869041 3.31884766 17.12866211 C3.29886215 15.31331215 3.29886215 15.31331215 3.2784729 13.46128845 C2.89636115 8.71181735 1.49905501 4.49716503 0 0 Z " fill="#45AAD5" transform="translate(49,11)"/>
<path d="M0 0 C0.66 0 1.32 0 2 0 C2.515625 1.19625 3.03125 2.3925 3.5625 3.625 C7.52438311 11.39900432 14.61038077 15.08198362 21.78979492 19.60424805 C35.11764943 28.08235864 35.11764943 28.08235864 38 35 C37.67 35.99 37.34 36.98 37 38 C36.52433594 37.14728516 36.52433594 37.14728516 36.0390625 36.27734375 C32.03547788 29.65262777 27.48870808 26.07472717 21 22 C18.89135605 20.63187609 16.78724125 19.25674855 14.6875 17.875 C13.72199219 17.25367187 12.75648438 16.63234375 11.76171875 15.9921875 C6.78721334 12.40378898 3.10338846 8.28725442 0 3 C0 2.01 0 1.02 0 0 Z " fill="#42B5E4" transform="translate(165,42)"/>
<path d="M0 0 C2.02287285 3.03430927 3.90374053 6.13244613 5.78125 9.2578125 C6.89667522 11.1468992 6.89667522 11.1468992 9 12 C9 12.66 9 13.32 9 14 C-0.9 14 -10.8 14 -21 14 C-17.50355468 12.25177734 -16.30028401 11.74144074 -12.671875 11.5859375 C-11.87265625 11.54726562 -11.0734375 11.50859375 -10.25 11.46875 C-9.425 11.4378125 -8.6 11.406875 -7.75 11.375 C-6.48929687 11.31699219 -6.48929687 11.31699219 -5.203125 11.2578125 C-3.13576618 11.16384164 -1.06791373 11.08084436 1 11 C0.67 7.37 0.34 3.74 0 0 Z " fill="#2365D3" transform="translate(303,88)"/>
<path d="M0 0 C2.2150308 3.3225462 3.38088519 6.6567103 4.63671875 10.40625 C4.88041702 11.12735962 5.1241153 11.84846924 5.37519836 12.59143066 C5.88767805 14.11370504 6.3977298 15.63679865 6.90551758 17.16064453 C7.68570591 19.49463285 8.48016243 21.82344361 9.27539062 24.15234375 C9.77171482 25.63251722 10.26718674 27.11297679 10.76171875 28.59375 C11.0012175 29.2906897 11.24071625 29.98762939 11.48747253 30.70568848 C13.11441812 35.65674565 13.11441812 35.65674565 12 39 C12 38.34 12 37.68 12 37 C11.34 37 10.68 37 10 37 C9.80365967 36.34515625 9.60731934 35.6903125 9.4050293 35.015625 C8.50199091 32.00956599 7.59477637 29.00478251 6.6875 26 C6.37876953 24.97003906 6.07003906 23.94007812 5.75195312 22.87890625 C4.38287065 18.35372839 2.99774194 13.87547878 1.28125 9.46875 C0.01159768 6.03139859 -0.27190297 3.62537298 0 0 Z " fill="#359FDC" transform="translate(290,49)"/>
<path d="M0 0 C2.20509496 4.23144675 3.67209459 8.61087471 5.1875 13.125 C5.47302734 13.94871094 5.75855469 14.77242187 6.05273438 15.62109375 C6.31763672 16.40871094 6.58253906 17.19632813 6.85546875 18.0078125 C7.09934326 18.72598145 7.34321777 19.44415039 7.59448242 20.18408203 C8 22 8 22 7 24 C5.68 21.03 4.36 18.06 3 15 C2.01 15.33 1.02 15.66 0 16 C-1.75747614 11.49646738 -2.19294408 7.82360189 -2 3 C-1.34 3 -0.68 3 0 3 C0 2.01 0 1.02 0 0 Z " fill="#0A9FF1" transform="translate(282,29)"/>
<path d="M0 0 C1.32 0.66 2.64 1.32 4 2 C3.34 2.66 2.68 3.32 2 4 C2.66 4.66 3.32 5.32 4 6 C3.34 6 2.68 6 2 6 C2.495 6.825 2.99 7.65 3.5 8.5 C5.32352081 12.75488188 5.23673689 15.42308671 5 20 C5.90363281 19.90460938 6.80726563 19.80921875 7.73828125 19.7109375 C9.50751953 19.54464844 9.50751953 19.54464844 11.3125 19.375 C12.48425781 19.25898437 13.65601563 19.14296875 14.86328125 19.0234375 C18 19 18 19 21 21 C14.73 21 8.46 21 2 21 C1.0625 13.8125 1.0625 13.8125 0.77368164 11.57739258 C0.39599437 8.71477818 -0.02193522 5.89795353 -0.62890625 3.07421875 C-0.75136719 2.38972656 -0.87382812 1.70523438 -1 1 C-0.67 0.67 -0.34 0.34 0 0 Z " fill="#135CF7" transform="translate(283,79)"/>
<path d="M0 0 C0.556875 0.37511719 1.11375 0.75023437 1.6875 1.13671875 C6.73448638 4.52126874 11.82564989 7.81361546 17 11 C14.35261084 12.4606285 13.10551666 13 10 13 C10 12.01 10 11.02 10 10 C9.01 9.67 8.02 9.34 7 9 C6.34 8.34 5.68 7.68 5 7 C2.89179203 7.3185177 2.89179203 7.3185177 1 8 C-1.125 3.375 -1.125 3.375 0 0 Z " fill="#0FA3F6" transform="translate(185,40)"/>
<path d="M0 0 C0.33 0 0.66 0 1 0 C1 6.6 1 13.2 1 20 C0.34 20 -0.32 20 -1 20 C-2.55078125 18.35546875 -2.55078125 18.35546875 -4.3125 16.1875 C-6.9767666 13.05339385 -9.25477046 10.82200356 -13 9 C-14.1446875 8.4121875 -14.1446875 8.4121875 -15.3125 7.8125 C-16.1478125 7.4103125 -16.1478125 7.4103125 -17 7 C-11.92890658 6.62894438 -8.47622533 7.58972482 -4 10 C-2.6875 12.125 -2.6875 12.125 -2 14 C-1.34 14.33 -0.68 14.66 0 15 C0 10.05 0 5.1 0 0 Z " fill="#40C5DC" transform="translate(216,13)"/>
<path d="M0 0 C0.66 0 1.32 0 2 0 C3.49821059 3.37097383 4 5.20442119 4 9 C4.66 9 5.32 9 6 9 C6.99 12.63 7.98 16.26 9 20 C6.5 18.3125 6.5 18.3125 4 16 C3.6875 13.25 3.6875 13.25 4 11 C2.68 10.67 1.36 10.34 0 10 C0.185625 8.906875 0.37125 7.81375 0.5625 6.6875 C1.2578068 3.06375867 1.2578068 3.06375867 0 0 Z " fill="#166FF5" transform="translate(296,77)"/>
<path d="M0 0 C-0.474375 0.86625 -0.94875 1.7325 -1.4375 2.625 C-2.93234895 5.85387374 -3.58218313 8.49033826 -4 12 C-4.33 12 -4.66 12 -5 12 C-5.125 4.25 -5.125 4.25 -4 2 C-8.95 2 -13.9 2 -19 2 C-19 1.34 -19 0.68 -19 0 C-12.48755792 -0.69508823 -6.4489191 -1.31909709 0 0 Z " fill="#32D4EE" transform="translate(77,11)"/>
<path d="M0 0 C0.99 0.33 1.98 0.66 3 1 C2.34 1 1.68 1 1 1 C0.814375 2.485 0.814375 2.485 0.625 4 C0.24720918 6.75565072 -0.35313238 9.32975528 -1.125 12 C-2.42565224 16.96174742 -1.60727506 21.17817481 0 26 C-2.31 25.67 -4.62 25.34 -7 25 C-6.01 24.67 -5.02 24.34 -4 24 C-4.04640625 23.27296875 -4.0928125 22.5459375 -4.140625 21.796875 C-4.42875778 13.77031889 -2.95490308 7.44002382 0 0 Z " fill="#3581DB" transform="translate(249,76)"/>
<path d="M0 0 C1.98 0.495 1.98 0.495 4 1 C3.625 2.9375 3.625 2.9375 3 5 C2.01 5.495 2.01 5.495 1 6 C0.79799087 11.15123278 0.70054359 15.27333961 3 20 C3.67795528 21.99620166 4.34733531 23.99538701 5 26 C0.80644697 22.22580228 -0.85085751 19.22955384 -1.23046875 13.5546875 C-1.21628906 12.34039062 -1.20210937 11.12609375 -1.1875 9.875 C-1.18105469 8.65554687 -1.17460937 7.43609375 -1.16796875 6.1796875 C-1 3 -1 3 0 0 Z " fill="#0BA4EE" transform="translate(167,25)"/>
<path d="M0 0 C2.64 0 5.28 0 8 0 C4.39318049 4.59049756 -0.5451417 6.3961213 -6 8 C-8.45849004 8.27848383 -10.52172587 8.2155021 -13 8 C-9.91190305 6.23537317 -8.76687864 6 -5 6 C-5 5.34 -5 4.68 -5 4 C-1.535 3.505 -1.535 3.505 2 3 C2 2.34 2 1.68 2 1 C1.34 0.67 0.68 0.34 0 0 Z " fill="#2C72DC" transform="translate(206,95)"/>
<path d="M0 0 C0.66 0 1.32 0 2 0 C1.96683318 2.56590557 1.89953481 5.12332066 1.8125 7.6875 C1.80669922 8.40873047 1.80089844 9.12996094 1.79492188 9.87304688 C1.61947196 14.14232808 1.32567086 15.61448151 -1.55078125 19.01953125 C-2.35902344 19.67308594 -3.16726562 20.32664062 -4 21 C-3.77183594 20.33613281 -3.54367188 19.67226562 -3.30859375 18.98828125 C-3.02113281 18.10527344 -2.73367187 17.22226563 -2.4375 16.3125 C-2.14746094 15.44238281 -1.85742188 14.57226562 -1.55859375 13.67578125 C-0.81774373 11.00632685 -0.81774373 11.00632685 -1.53515625 8.35546875 C-2 6 -2 6 0 3 C-0.66 2.67 -1.32 2.34 -2 2 C-1.34 2 -0.68 2 0 2 C0 1.34 0 0.68 0 0 Z " fill="#1E7CEB" transform="translate(218,74)"/>
<path d="M0 0 C0.33 0.66 0.66 1.32 1 2 C1.59167969 1.98839844 2.18335938 1.97679687 2.79296875 1.96484375 C7.00231785 1.91677614 10.8922333 1.93993117 15 3 C13.25 4.5625 13.25 4.5625 11 6 C9.25 5.6875 9.25 5.6875 7 5 C5.64617029 4.96979285 4.29139294 4.97277363 2.9375 5 C-1 5 -1 5 -4 4 C-4 3.01 -4 2.02 -4 1 C-2.68 0.67 -1.36 0.34 0 0 Z " fill="#0CC3F4" transform="translate(262,10)"/>
<path d="M0 0 C0.33 0 0.66 0 1 0 C1.042721 1.66611905 1.04063832 3.33382885 1 5 C0 6 0 6 -2.59204102 6.11352539 C-3.71795654 6.10828857 -4.84387207 6.10305176 -6.00390625 6.09765625 C-7.21884766 6.09443359 -8.43378906 6.09121094 -9.68554688 6.08789062 C-10.96494141 6.07951172 -12.24433594 6.07113281 -13.5625 6.0625 C-14.84576172 6.05798828 -16.12902344 6.05347656 -17.45117188 6.04882812 C-20.63416022 6.03699545 -23.81705762 6.02051068 -27 6 C-27 5.67 -27 5.34 -27 5 C-24.14596025 4.83087172 -21.29179998 4.66462837 -18.4375 4.5 C-17.23770508 4.42845703 -17.23770508 4.42845703 -16.01367188 4.35546875 C-11.33281023 4.08799094 -6.68841621 3.94965459 -2 4 C-1.34 2.68 -0.68 1.36 0 0 Z " fill="#1063F7" transform="translate(107,94)"/>
<path d="M0 0 C0.33 0 0.66 0 1 0 C1.22801811 3.35312796 1.42881968 6.70737072 1.625 10.0625 C1.68945312 11.00544922 1.75390625 11.94839844 1.8203125 12.91992188 C2.12879889 18.4533965 1.89759544 22.77799117 0 28 C-0.33 28 -0.66 28 -1 28 C-1.1170409 18.59771406 -0.88495497 9.37104106 0 0 Z " fill="#1087F5" transform="translate(130,60)"/>
<path d="M0 0 C0.91007813 0.00902344 1.82015625 0.01804687 2.7578125 0.02734375 C3.45648438 0.03894531 4.15515625 0.05054687 4.875 0.0625 C4.875 0.3925 4.875 0.7225 4.875 1.0625 C4.19953125 1.16046875 3.5240625 1.2584375 2.828125 1.359375 C-1.00119765 2.00128458 -4.32766247 2.62586278 -7.75 4.5 C-9.72779484 8.18589038 -9.27562676 11.49218066 -8.97265625 15.6015625 C-9.04806641 16.81972656 -9.04806641 16.81972656 -9.125 18.0625 C-10.115 18.7225 -11.105 19.3825 -12.125 20.0625 C-12.06465068 17.83259273 -11.9757725 15.6034464 -11.875 13.375 C-11.82859375 12.13363281 -11.7821875 10.89226563 -11.734375 9.61328125 C-11.04762196 5.61162411 -9.94719688 3.92183105 -7.125 1.0625 C-4.60024538 -0.19987731 -2.81299534 -0.03606404 0 0 Z " fill="#2BBCD9" transform="translate(194.125,18.9375)"/>
<path d="M0 0 C0.33 0 0.66 0 1 0 C1.66 2.31 2.32 4.62 3 7 C2.34 7 1.68 7 1 7 C1.11478413 9.06309376 1.24226198 11.12548354 1.375 13.1875 C1.44460937 14.33605469 1.51421875 15.48460938 1.5859375 16.66796875 C1.97509574 19.79959117 2.6809851 22.15285809 4 25 C2.68 25 1.36 25 0 25 C-0.1972935 21.58382503 -0.38112295 18.16705407 -0.5625 14.75 C-0.61857422 13.78191406 -0.67464844 12.81382813 -0.73242188 11.81640625 C-0.78076172 10.88183594 -0.82910156 9.94726562 -0.87890625 8.984375 C-0.9260376 8.12553711 -0.97316895 7.26669922 -1.02172852 6.38183594 C-1.00066921 4.07335735 -0.66206871 2.20243733 0 0 Z " fill="#1173F0" transform="translate(144,75)"/>
<path d="M0 0 C3 1 3 1 4.9375 3.125 C9.08354184 7.51568406 14.77252288 10.10696242 20 13 C19.67 13.99 19.34 14.98 19 16 C16.39221627 14.23444843 13.78943919 12.46165114 11.1875 10.6875 C10.44951172 10.18798828 9.71152344 9.68847656 8.95117188 9.17382812 C8.23896484 8.68720703 7.52675781 8.20058594 6.79296875 7.69921875 C6.1383667 7.25408936 5.48376465 6.80895996 4.80932617 6.3503418 C3.01389817 5.01037253 1.46825507 3.69304881 0 2 C0 1.34 0 0.68 0 0 Z " fill="#3BC1E8" transform="translate(184,37)"/>
<path d="M0 0 C0.66 0 1.32 0 2 0 C2.50537432 5.30643041 1.30655751 7.86680312 -2 12 C-4.57472817 14.57472817 -5.55710128 14.97444815 -9.25 15.1875 C-10.1575 15.125625 -11.065 15.06375 -12 15 C-8 13 -8 13 -5.9375 12.1875 C-3.25184681 10.5414545 -2.3499037 8.82836966 -1 6 C-0.28598768 2.80604974 -0.28598768 2.80604974 0 0 Z " fill="#2C87E2" transform="translate(202,80)"/>
<path d="M0 0 C2.475 0.99 2.475 0.99 5 2 C5 2.66 5 3.32 5 4 C6.65 4.33 8.3 4.66 10 5 C9.814375 5.556875 9.62875 6.11375 9.4375 6.6875 C8.92448835 9.399133 9.3359276 11.34371039 10 14 C7.48811576 12.74405788 7.2709532 11.7692029 6.125 9.25 C4.45963532 5.76901216 2.55426896 2.91916452 0 0 Z " fill="#1280EF" transform="translate(195,67)"/>
<path d="M0 0 C0.33 0 0.66 0 1 0 C1.06058594 0.90363281 1.12117188 1.80726562 1.18359375 2.73828125 C1.26738281 3.91777344 1.35117188 5.09726563 1.4375 6.3125 C1.55931641 8.07013672 1.55931641 8.07013672 1.68359375 9.86328125 C1.8867371 13.02590958 1.8867371 13.02590958 3 16 C3.99 16.33 4.98 16.66 6 17 C5.34 17.66 4.68 18.32 4 19 C4 18.34 4 17.68 4 17 C2.68 17 1.36 17 0 17 C-0.33 17.66 -0.66 18.32 -1 19 C-0.67 12.73 -0.34 6.46 0 0 Z " fill="#1175F9" transform="translate(69,77)"/>
<path d="M0 0 C1.32 0.66 2.64 1.32 4 2 C3.34 2.66 2.68 3.32 2 4 C2.66 4.66 3.32 5.32 4 6 C3.34 6 2.68 6 2 6 C2.33 6.66 2.66 7.32 3 8 C3.06996014 9.70702735 3.08440154 11.41668003 3.0625 13.125 C3.05347656 14.03507812 3.04445313 14.94515625 3.03515625 15.8828125 C3.01775391 16.93082031 3.01775391 16.93082031 3 18 C2.67 18 2.34 18 2 18 C1.86722656 17.19175781 1.73445313 16.38351563 1.59765625 15.55078125 C1.42105469 14.48214844 1.24445313 13.41351563 1.0625 12.3125 C0.88847656 11.25675781 0.71445312 10.20101562 0.53515625 9.11328125 C0.19304975 7.12307047 -0.19112483 5.13934472 -0.62890625 3.16796875 C-0.75136719 2.45253906 -0.87382812 1.73710938 -1 1 C-0.67 0.67 -0.34 0.34 0 0 Z " fill="#1173F6" transform="translate(283,79)"/>
<path d="M0 0 C5.49891126 3.72506892 9.62168351 7.22416858 13 13 C12.67 13.99 12.34 14.98 12 16 C11.63648438 15.40832031 11.27296875 14.81664063 10.8984375 14.20703125 C7.70158407 9.18223342 4.66331835 5.66403584 0 2 C0 1.34 0 0.68 0 0 Z " fill="#3EA1E7" transform="translate(190,64)"/>
<path d="M0 0 C2.12508244 3.18762365 2.5020163 5.26512223 3 9 C2.01 9.66 1.02 10.32 0 11 C-2.46977731 4.60763521 -2.46977731 4.60763521 -1 1 C-0.67 0.67 -0.34 0.34 0 0 Z " fill="#139FFD" transform="translate(282,34)"/>
<path d="M0 0 C2 2 2 2 2.265625 3.953125 C2.2333496 8.69760936 1.82950826 12.54057362 0 17 C-0.33 17 -0.66 17 -1 17 C-0.67 11.39 -0.34 5.78 0 0 Z " fill="#3592DF" transform="translate(220,71)"/>
<path d="M0 0 C0.66 0 1.32 0 2 0 C2.69848264 1.93356782 3.38344814 3.87202298 4.0625 5.8125 C4.44535156 6.89144531 4.82820313 7.97039062 5.22265625 9.08203125 C6 12 6 12 5 15 C5 14.34 5 13.68 5 13 C4.34 13 3.68 13 3 13 C2.49242138 11.58603098 1.99425075 10.16868271 1.5 8.75 C1.08234375 7.56664063 1.08234375 7.56664063 0.65625 6.359375 C0 4 0 4 0 0 Z " fill="#358CDB" transform="translate(297,73)"/>
<path d="M0 0 C0.66 0.33 1.32 0.66 2 1 C1.67 1.66 1.34 2.32 1 3 C0.77377919 4.70363822 0.59111527 6.41328701 0.4375 8.125 C0.35371094 9.03507812 0.26992187 9.94515625 0.18359375 10.8828125 C0.12300781 11.58148438 0.06242188 12.28015625 0 13 C-0.33 13 -0.66 13 -1 13 C-1.33 10.69 -1.66 8.38 -2 6 C-2.66 6.66 -3.32 7.32 -4 8 C-4.66 6.02 -5.32 4.04 -6 2 C-4.35 2 -2.7 2 -1 2 C-0.67 1.34 -0.34 0.68 0 0 Z " fill="#14BFF9" transform="translate(183,22)"/>
<path d="M0 0 C0.33 0 0.66 0 1 0 C1 3.3 1 6.6 1 10 C-0.65 10 -2.3 10 -4 10 C-3.49396008 7.83125748 -3.00016187 6.00032373 -2 4 C-1.34 4 -0.68 4 0 4 C0 2.68 0 1.36 0 0 Z " fill="#0EA9F7" transform="translate(181,27)"/>
<path d="M0 0 C2.01260216 2.01260216 3.2517644 3.86475593 4.6875 6.3125 C5.14511719 7.07175781 5.60273438 7.83101562 6.07421875 8.61328125 C7.19396303 11.50004816 6.85524192 13.07144433 6 16 C4 15 4 15 3.18359375 13.14453125 C1.7861179 8.77650464 0.58561996 4.56783569 0 0 Z " fill="#0D94F2" transform="translate(271,45)"/>
<path d="M0 0 C0.66 0 1.32 0 2 0 C0.9318153 5.11365014 -0.23107476 10.07227969 -2 15 C-2.33 15 -2.66 15 -3 15 C-2.22095672 4.44191344 -2.22095672 4.44191344 0 0 Z " fill="#37B6E1" transform="translate(261,39)"/>
<path d="M0 0 C1.98 0 3.96 0 6 0 C5.625 2.4375 5.625 2.4375 5 5 C4.01 5.495 4.01 5.495 3 6 C2.34 6.99 1.68 7.98 1 9 C0.67 6.03 0.34 3.06 0 0 Z " fill="#03B6F6" transform="translate(258,14)"/>
<path d="M0 0 C4.62 0 9.24 0 14 0 C14 0.99 14 1.98 14 3 C7.07 2.505 7.07 2.505 0 2 C0 1.34 0 0.68 0 0 Z " fill="#39BED3" transform="translate(263,10)"/>
<path d="M0 0 C2.475 0.495 2.475 0.495 5 1 C4.525625 1.86625 4.05125 2.7325 3.5625 3.625 C2.06765105 6.85387374 1.41781687 9.49033826 1 13 C0.67 13 0.34 13 0 13 C0 8.71 0 4.42 0 0 Z " fill="#36D1DF" transform="translate(72,10)"/>
<path d="M0 0 C3 2 3 2 3.6875 5.125 C3.8421875 6.548125 3.8421875 6.548125 4 8 C3.01 8 2.02 8 1 8 C0.67 8.99 0.34 9.98 0 11 C0 7.37 0 3.74 0 0 Z " fill="#12AEEB" transform="translate(260,31)"/>
<path d="M0 0 C3 1 3 1 4.1875 3.3125 C5 6 5 6 5 10 C4.34 10 3.68 10 3 10 C2.690625 8.906875 2.38125 7.81375 2.0625 6.6875 C1.41662103 4.44592006 0.7376883 2.2130649 0 0 Z " fill="#31D3DC" transform="translate(49,11)"/>
<path d="M0 0 C0 1.65 0 3.3 0 5 C-2.31 5 -4.62 5 -7 5 C-2.25 0 -2.25 0 0 0 Z " fill="#4097D8" transform="translate(112,81)"/>
<path d="M0 0 C0.33 0.66 0.66 1.32 1 2 C3.02463255 2.65213292 3.02463255 2.65213292 5 3 C4.01 3 3.02 3 2 3 C2.33 5.31 2.66 7.62 3 10 C1.00902154 7.01353231 0.05875074 4.40312738 -1 1 C-0.67 0.67 -0.34 0.34 0 0 Z " fill="#2ED4E4" transform="translate(125,10)"/>
<path d="M0 0 C0.33 0 0.66 0 1 0 C1.33 3.3 1.66 6.6 2 10 C1.01 10.66 0.02 11.32 -1 12 C-0.67 8.04 -0.34 4.08 0 0 Z " fill="#1FB3D7" transform="translate(183,27)"/>
<path d="M0 0 C1.98 0.495 1.98 0.495 4 1 C3.6875 2.9375 3.6875 2.9375 3 5 C2.01 5.33 1.02 5.66 0 6 C-1 3 -1 3 0 0 Z " fill="#0CB0F9" transform="translate(167,25)"/>
</svg>
