<?xml version="1.0" encoding="UTF-8"?>
<svg xmlns="http://www.w3.org/2000/svg" xmlns:xlink="http://www.w3.org/1999/xlink" width="482px" height="157px" viewBox="0 0 404 157" version="1.1">
<g id="surface1">
<path style=" stroke:none;fill-rule:nonzero;fill:rgb(48.627451%,53.725493%,62.352943%);fill-opacity:1;" d="M 126.714844 115.636719 C 127.484375 115.632812 128.253906 115.628906 129.046875 115.625 C 131.632812 115.613281 134.21875 115.621094 136.804688 115.625 C 138.65625 115.621094 140.507812 115.617188 142.359375 115.609375 C 146.871094 115.597656 151.378906 115.597656 155.890625 115.601562 C 159.554688 115.605469 163.222656 115.605469 166.886719 115.601562 C 167.410156 115.601562 167.929688 115.597656 168.46875 115.597656 C 169.527344 115.597656 170.585938 115.597656 171.648438 115.59375 C 181.585938 115.585938 191.523438 115.589844 201.460938 115.597656 C 210.554688 115.605469 219.648438 115.597656 228.742188 115.578125 C 238.078125 115.5625 247.414062 115.558594 256.75 115.5625 C 261.988281 115.5625 267.230469 115.5625 272.472656 115.550781 C 276.9375 115.539062 281.398438 115.539062 285.859375 115.550781 C 288.136719 115.558594 290.414062 115.558594 292.6875 115.546875 C 295.15625 115.539062 297.625 115.546875 300.09375 115.558594 C 301.171875 115.550781 301.171875 115.550781 302.273438 115.539062 C 306.320312 115.578125 308.679688 115.878906 311.753906 118.59375 C 314.4375 122.171875 314.3125 126.429688 313.773438 130.722656 C 312.554688 133.121094 312.554688 133.121094 311.078125 134.765625 C 310.734375 135.167969 310.386719 135.570312 310.027344 135.984375 C 308.132812 137.550781 306.222656 137.542969 303.878906 137.550781 C 302.898438 137.554688 302.898438 137.554688 301.898438 137.558594 C 301.179688 137.558594 300.460938 137.558594 299.71875 137.558594 C 298.574219 137.5625 298.574219 137.5625 297.40625 137.566406 C 294.832031 137.574219 292.261719 137.574219 289.691406 137.578125 C 287.855469 137.582031 286.015625 137.585938 284.179688 137.59375 C 278.652344 137.605469 273.128906 137.613281 267.605469 137.617188 C 265.003906 137.621094 262.402344 137.625 259.800781 137.628906 C 251.15625 137.640625 242.511719 137.648438 233.863281 137.652344 C 231.621094 137.65625 229.378906 137.65625 227.132812 137.65625 C 226.578125 137.660156 226.019531 137.660156 225.445312 137.660156 C 216.410156 137.664062 207.371094 137.683594 198.335938 137.703125 C 189.0625 137.726562 179.785156 137.738281 170.511719 137.738281 C 165.300781 137.742188 160.09375 137.746094 154.886719 137.765625 C 150.449219 137.78125 146.015625 137.785156 141.578125 137.777344 C 139.316406 137.773438 137.054688 137.777344 134.792969 137.789062 C 132.339844 137.800781 129.886719 137.796875 127.433594 137.789062 C 126.359375 137.800781 126.359375 137.800781 125.265625 137.808594 C 121.21875 137.773438 118.898438 137.453125 115.8125 134.765625 C 113.171875 131.753906 112.886719 128.96875 112.929688 125.089844 C 113.289062 121.730469 114.484375 119.03125 117.082031 116.851562 C 120.253906 115.40625 123.269531 115.617188 126.714844 115.636719 Z M 126.714844 115.636719 "/>
<path style=" stroke:none;fill-rule:nonzero;fill:rgb(29.019609%,45.09804%,72.549021%);fill-opacity:1;" d="M 324.546875 49.863281 C 326.28125 50.441406 327.003906 50.832031 327.976562 52.386719 C 328.699219 54.183594 328.757812 55.535156 328.757812 57.464844 C 328.761719 58.175781 328.769531 58.886719 328.773438 59.621094 C 328.773438 60.386719 328.769531 61.152344 328.769531 61.9375 C 328.785156 63.5625 328.796875 65.1875 328.8125 66.8125 C 328.828125 69.371094 328.839844 71.929688 328.84375 74.488281 C 328.847656 76.957031 328.871094 79.429688 328.898438 81.902344 C 328.894531 82.660156 328.890625 83.421875 328.886719 84.203125 C 328.945312 88.789062 329.507812 91.773438 331.953125 95.683594 C 334.902344 98.542969 338.378906 98.613281 342.320312 98.566406 C 345.953125 98.175781 348.539062 96.628906 351.058594 94.039062 C 352.878906 91.164062 353.664062 88.792969 353.691406 85.386719 C 353.707031 84.347656 353.707031 84.347656 353.71875 83.289062 C 353.722656 82.550781 353.726562 81.808594 353.730469 81.046875 C 353.742188 80.277344 353.75 79.511719 353.761719 78.722656 C 353.804688 75.445312 353.828125 72.171875 353.859375 68.894531 C 353.878906 66.5 353.910156 64.109375 353.941406 61.714844 C 353.945312 60.972656 353.949219 60.230469 353.953125 59.464844 C 353.964844 58.429688 353.964844 58.429688 353.980469 57.375 C 353.984375 56.769531 353.988281 56.160156 353.996094 55.539062 C 354.1875 53.789062 354.597656 52.699219 355.519531 51.210938 C 357.691406 49.660156 359.640625 49.542969 362.253906 49.863281 C 364.039062 50.882812 364.039062 50.882812 365.621094 52.558594 C 365.953125 54.527344 366.066406 56.105469 366.035156 58.078125 C 366.039062 58.632812 366.042969 59.1875 366.046875 59.757812 C 366.054688 61.59375 366.039062 63.425781 366.019531 65.261719 C 366.019531 66.539062 366.019531 67.820312 366.019531 69.097656 C 366.019531 71.78125 366.007812 74.464844 365.984375 77.148438 C 365.957031 80.574219 365.957031 84 365.960938 87.425781 C 365.960938 90.070312 365.953125 92.714844 365.941406 95.359375 C 365.9375 96.621094 365.9375 97.882812 365.9375 99.144531 C 365.929688 108.210938 365.6875 116.066406 359.558594 123.308594 C 352.667969 129.96875 344.171875 130.988281 335.054688 130.867188 C 329.488281 130.683594 324.175781 129.644531 319.832031 126.003906 C 318.789062 123.914062 318.964844 122.246094 319.160156 119.941406 C 320.210938 117.960938 320.210938 117.960938 321.851562 116.570312 C 324.984375 115.996094 327.191406 116.765625 330.058594 117.917969 C 335.597656 120.054688 341.28125 120.066406 346.832031 117.898438 C 350.347656 116.105469 351.949219 113.484375 353.167969 109.878906 C 353.667969 107.78125 353.632812 105.917969 353.5 103.769531 C 352.984375 104.269531 352.472656 104.769531 351.941406 105.285156 C 346.117188 110.042969 339.207031 110.484375 331.953125 109.832031 C 327.574219 109.070312 324.046875 107.207031 321.179688 103.769531 C 318.660156 99.574219 317.066406 95.84375 317.011719 90.925781 C 317 90.085938 316.988281 89.242188 316.976562 88.375 C 316.96875 87.457031 316.960938 86.539062 316.957031 85.621094 C 316.953125 85.15625 316.949219 84.695312 316.945312 84.214844 C 316.925781 81.765625 316.914062 79.316406 316.902344 76.867188 C 316.894531 74.839844 316.875 72.8125 316.847656 70.785156 C 316.816406 68.339844 316.800781 65.890625 316.792969 63.441406 C 316.789062 62.507812 316.78125 61.574219 316.761719 60.644531 C 316.742188 59.339844 316.746094 58.035156 316.746094 56.730469 C 316.742188 55.988281 316.734375 55.246094 316.730469 54.480469 C 317.140625 52.558594 317.140625 52.558594 318.71875 50.964844 C 320.886719 49.628906 322.042969 49.542969 324.546875 49.863281 Z M 324.546875 49.863281 "/>
<path style=" stroke:none;fill-rule:nonzero;fill:rgb(100%,78.431374%,3.921569%);fill-opacity:1;" d="M 74 30.570312 C 76.226562 31.238281 77.253906 32.640625 78.78125 34.363281 C 79.625 35.988281 80.339844 37.519531 81.015625 39.207031 C 81.214844 39.683594 81.414062 40.164062 81.621094 40.660156 C 82.28125 42.25 82.929688 43.84375 83.578125 45.441406 C 84.042969 46.566406 84.507812 47.691406 84.972656 48.816406 C 85.976562 51.238281 86.96875 53.660156 87.960938 56.085938 C 89.621094 60.136719 91.289062 64.183594 92.960938 68.226562 C 94.640625 72.289062 96.316406 76.347656 97.988281 80.410156 C 98.246094 81.039062 98.503906 81.667969 98.769531 82.3125 C 99.273438 83.53125 99.773438 84.75 100.273438 85.964844 C 101.359375 88.601562 102.453125 91.230469 103.601562 93.84375 C 103.792969 94.273438 103.980469 94.707031 104.175781 95.152344 C 104.671875 96.273438 105.171875 97.390625 105.671875 98.507812 C 106.769531 101.410156 106.878906 103.398438 106.386719 106.464844 C 105.335938 108.191406 105.335938 108.191406 103.691406 109.160156 C 101.378906 109.539062 101.378906 109.539062 98.980469 109.160156 C 95.167969 106.289062 93.8125 102.136719 92.035156 97.832031 C 90.996094 95.34375 89.953125 92.855469 88.878906 90.292969 C 72.546875 89.957031 72.546875 89.957031 55.886719 89.617188 C 55.664062 90.730469 55.441406 91.839844 55.214844 92.988281 C 54.34375 95.414062 53.320312 97.773438 52.308594 100.144531 C 52.046875 100.789062 51.78125 101.433594 51.511719 102.09375 C 51.117188 103.019531 51.117188 103.019531 50.71875 103.964844 C 50.484375 104.523438 50.246094 105.085938 50.003906 105.664062 C 49.023438 107.363281 48.144531 108.164062 46.460938 109.160156 C 42.484375 109.578125 42.484375 109.578125 40.484375 108.441406 C 39.328125 106.449219 39.21875 104.710938 39.054688 102.421875 C 39.691406 100.109375 39.691406 100.109375 40.722656 97.644531 C 40.910156 97.183594 41.101562 96.726562 41.292969 96.253906 C 41.925781 94.722656 42.574219 93.203125 43.21875 91.679688 C 43.671875 90.597656 44.121094 89.511719 44.570312 88.425781 C 45.550781 86.0625 46.539062 83.699219 47.535156 81.339844 C 49.257812 77.25 50.957031 73.152344 52.660156 69.054688 C 54.414062 64.832031 56.167969 60.609375 57.929688 56.390625 C 58.203125 55.734375 58.476562 55.082031 58.757812 54.40625 C 59.292969 53.125 59.828125 51.84375 60.367188 50.566406 C 61.59375 47.632812 62.804688 44.695312 63.972656 41.738281 C 64.183594 41.210938 64.390625 40.683594 64.609375 40.140625 C 64.992188 39.167969 65.375 38.195312 65.746094 37.21875 C 67.519531 32.765625 69.046875 30.738281 74 30.570312 Z M 72.046875 51.210938 C 70.414062 55.035156 68.785156 58.863281 67.15625 62.6875 C 66.601562 63.992188 66.046875 65.292969 65.492188 66.597656 C 64.695312 68.464844 63.898438 70.332031 63.105469 72.203125 C 62.855469 72.789062 62.601562 73.375 62.34375 73.976562 C 62.117188 74.515625 61.886719 75.054688 61.652344 75.613281 C 61.449219 76.089844 61.242188 76.566406 61.035156 77.058594 C 60.558594 78.070312 60.558594 78.070312 60.601562 78.835938 C 68.378906 78.835938 76.152344 78.835938 84.167969 78.835938 C 82.898438 75.023438 81.625 71.328125 80.082031 67.632812 C 79.800781 66.953125 79.800781 66.953125 79.511719 66.261719 C 79.117188 65.316406 78.722656 64.371094 78.328125 63.425781 C 77.722656 61.976562 77.125 60.523438 76.523438 59.074219 C 76.140625 58.148438 75.753906 57.226562 75.367188 56.304688 C 75.191406 55.871094 75.011719 55.4375 74.828125 54.988281 C 73.949219 52.660156 73.949219 52.660156 72.046875 51.210938 Z M 72.046875 51.210938 "/>
<path style=" stroke:none;fill-rule:nonzero;fill:rgb(99.607843%,78.431374%,5.098039%);fill-opacity:1;" d="M 125 115.667969 C 125.867188 115.667969 125.867188 115.667969 126.753906 115.667969 C 128.660156 115.667969 130.566406 115.683594 132.46875 115.699219 C 133.792969 115.703125 135.117188 115.707031 136.441406 115.707031 C 139.921875 115.714844 143.398438 115.734375 146.878906 115.757812 C 150.429688 115.777344 153.984375 115.789062 157.535156 115.796875 C 164.5 115.820312 171.46875 115.855469 178.433594 115.898438 C 178.210938 117.453125 177.988281 119.011719 177.761719 120.613281 C 178.203125 120.613281 178.648438 120.613281 179.105469 120.613281 C 179.125 122.285156 179.136719 123.953125 179.148438 125.625 C 179.15625 126.101562 179.160156 126.578125 179.164062 127.070312 C 179.171875 128.285156 179.140625 129.503906 179.105469 130.722656 C 178.773438 131.054688 178.773438 131.054688 178.433594 131.394531 C 178.277344 132.414062 178.15625 133.441406 178.054688 134.46875 C 177.96875 135.304688 177.96875 135.304688 177.882812 136.15625 C 177.84375 136.585938 177.800781 137.015625 177.761719 137.460938 C 170.28125 137.523438 162.800781 137.570312 155.320312 137.597656 C 151.84375 137.613281 148.371094 137.632812 144.898438 137.664062 C 141.546875 137.691406 138.191406 137.707031 134.839844 137.714844 C 133.5625 137.71875 132.28125 137.730469 131.003906 137.746094 C 129.210938 137.765625 127.421875 137.765625 125.628906 137.765625 C 125.101562 137.773438 124.574219 137.785156 124.03125 137.792969 C 120.539062 137.769531 118.601562 137.039062 115.8125 134.765625 C 113.171875 131.753906 112.886719 128.96875 112.929688 125.089844 C 113.21875 122.363281 114.089844 120.058594 115.8125 117.917969 C 118.738281 115.648438 121.441406 115.621094 125 115.667969 Z M 125 115.667969 "/>
<path style=" stroke:none;fill-rule:nonzero;fill:rgb(29.019609%,45.09804%,72.549021%);fill-opacity:1;" d="M 306.367188 28.972656 C 307.714844 30.152344 307.714844 30.152344 308.386719 31.667969 C 308.246094 35.6875 308.246094 35.6875 306.839844 37.535156 C 305.402344 38.628906 304.703125 38.621094 302.914062 38.535156 C 302.117188 38.511719 302.117188 38.511719 301.304688 38.488281 C 300.191406 38.433594 299.074219 38.382812 297.960938 38.328125 C 297.164062 38.304688 297.164062 38.304688 296.351562 38.28125 C 295.867188 38.257812 295.382812 38.234375 294.882812 38.210938 C 293.15625 38.46875 292.613281 39.066406 291.554688 40.429688 C 290.808594 42.664062 290.664062 44.609375 290.5 46.957031 C 290.445312 47.75 290.386719 48.546875 290.332031 49.363281 C 290.269531 50.277344 290.269531 50.277344 290.207031 51.210938 C 291.042969 51.179688 291.878906 51.148438 292.738281 51.117188 C 293.84375 51.089844 294.949219 51.066406 296.054688 51.042969 C 296.605469 51.019531 297.15625 50.996094 297.722656 50.972656 C 300.445312 50.929688 301.964844 51.003906 304.378906 52.375 C 305.847656 54.082031 306.136719 54.761719 306.070312 56.980469 C 306.074219 57.753906 306.074219 57.753906 306.074219 58.539062 C 305.691406 59.96875 305.691406 59.96875 304.734375 61.0625 C 302.046875 62.503906 299.429688 62.203125 296.433594 62.117188 C 295.539062 62.105469 295.539062 62.105469 294.621094 62.089844 C 293.148438 62.066406 291.679688 62.03125 290.207031 61.992188 C 290.210938 62.523438 290.21875 63.058594 290.226562 63.605469 C 290.277344 68.632812 290.320312 73.660156 290.347656 78.683594 C 290.359375 81.269531 290.378906 83.851562 290.410156 86.4375 C 290.4375 88.933594 290.457031 91.425781 290.460938 93.921875 C 290.46875 94.871094 290.476562 95.824219 290.492188 96.773438 C 290.511719 98.105469 290.511719 99.441406 290.511719 100.773438 C 290.519531 101.535156 290.523438 102.292969 290.53125 103.074219 C 290.132812 105.578125 289.277344 106.699219 287.511719 108.484375 C 286.019531 108.910156 286.019531 108.910156 284.484375 108.863281 C 283.976562 108.863281 283.46875 108.867188 282.949219 108.867188 C 280.859375 108.332031 280.101562 107.46875 278.761719 105.789062 C 278.4375 103.804688 278.4375 103.804688 278.453125 101.464844 C 278.453125 100.148438 278.453125 100.148438 278.453125 98.804688 C 278.46875 97.851562 278.484375 96.898438 278.496094 95.945312 C 278.503906 94.96875 278.503906 93.988281 278.507812 93.011719 C 278.519531 90.441406 278.546875 87.871094 278.574219 85.300781 C 278.601562 82.675781 278.613281 80.054688 278.628906 77.429688 C 278.65625 72.28125 278.703125 67.136719 278.761719 61.992188 C 278.109375 62.03125 277.460938 62.070312 276.792969 62.109375 C 275.941406 62.140625 275.089844 62.171875 274.214844 62.203125 C 273.371094 62.242188 272.527344 62.28125 271.660156 62.320312 C 269.332031 61.992188 269.332031 61.992188 267.695312 60.382812 C 266.613281 58.578125 266.304688 57.882812 266.597656 55.84375 C 266.644531 55.394531 266.695312 54.949219 266.742188 54.488281 C 267.621094 52.554688 268.769531 52.070312 270.679688 51.210938 C 272.777344 51.011719 272.777344 51.011719 274.929688 51.082031 C 276.007812 51.109375 276.007812 51.109375 277.109375 51.140625 C 277.65625 51.164062 278.199219 51.1875 278.761719 51.210938 C 278.738281 50.4375 278.714844 49.664062 278.6875 48.871094 C 278.671875 47.839844 278.652344 46.808594 278.632812 45.777344 C 278.617188 45.269531 278.601562 44.765625 278.582031 44.242188 C 278.515625 39.015625 280.128906 35.277344 283.648438 31.382812 C 289.480469 26.109375 299.636719 24.960938 306.367188 28.972656 Z M 306.367188 28.972656 "/>
<path style=" stroke:none;fill-rule:nonzero;fill:rgb(29.019609%,45.09804%,72.549021%);fill-opacity:1;" d="M 161.9375 36.679688 C 162.445312 36.679688 162.949219 36.679688 163.472656 36.679688 C 165.640625 37.234375 166.382812 37.90625 167.660156 39.753906 C 167.980469 41.734375 167.914062 43.65625 167.828125 45.652344 C 167.816406 46.183594 167.804688 46.71875 167.792969 47.269531 C 167.761719 48.582031 167.710938 49.898438 167.660156 51.210938 C 168.453125 51.171875 169.25 51.132812 170.070312 51.09375 C 171.117188 51.058594 172.167969 51.03125 173.214844 51 C 173.738281 50.972656 174.261719 50.941406 174.800781 50.914062 C 178.695312 50.832031 178.695312 50.832031 180.804688 52.777344 C 182.011719 54.960938 182.164062 56.164062 181.800781 58.621094 C 180.601562 60.734375 180.101562 61.210938 177.761719 61.992188 C 176.027344 62.039062 174.316406 62.054688 172.582031 62.035156 C 171.875 62.027344 171.875 62.027344 171.152344 62.023438 C 169.988281 62.015625 168.824219 62.003906 167.660156 61.992188 C 167.738281 66.65625 167.824219 71.320312 167.910156 75.988281 C 167.941406 77.574219 167.96875 79.160156 167.996094 80.75 C 168.035156 83.03125 168.078125 85.308594 168.121094 87.589844 C 168.132812 88.300781 168.144531 89.011719 168.15625 89.746094 C 168.175781 90.738281 168.175781 90.738281 168.195312 91.75 C 168.210938 92.621094 168.210938 92.621094 168.226562 93.511719 C 168.28125 95.125 168.28125 95.125 169.007812 97.03125 C 171.324219 98.1875 173.96875 97.636719 176.515625 97.53125 C 178.433594 97.703125 178.433594 97.703125 179.675781 98.554688 C 180.785156 100.226562 180.808594 101.84375 180.742188 103.808594 C 180.453125 105.117188 180.453125 105.117188 178.855469 106.757812 C 174.40625 109.410156 168.164062 109.296875 163.152344 108.023438 C 160.09375 106.621094 158.457031 104.761719 156.886719 101.746094 C 156.195312 99.585938 156.132812 97.605469 156.136719 95.34375 C 156.136719 94.601562 156.136719 93.859375 156.136719 93.097656 C 156.140625 92.300781 156.144531 91.503906 156.148438 90.679688 C 156.148438 89.863281 156.148438 89.042969 156.152344 88.199219 C 156.152344 85.585938 156.164062 82.96875 156.171875 80.351562 C 156.175781 78.578125 156.175781 76.808594 156.179688 75.035156 C 156.1875 70.6875 156.199219 66.339844 156.214844 61.992188 C 155.703125 62.003906 155.191406 62.015625 154.667969 62.03125 C 153.664062 62.042969 153.664062 62.042969 152.640625 62.058594 C 151.976562 62.074219 151.316406 62.085938 150.632812 62.097656 C 148.808594 61.992188 148.808594 61.992188 146.703125 60.894531 C 145.140625 58.917969 144.765625 57.773438 144.765625 55.253906 C 145.53125 53.683594 146.226562 52.445312 147.460938 51.210938 C 148.933594 51.160156 150.40625 51.152344 151.878906 51.167969 C 153.089844 51.175781 153.089844 51.175781 154.320312 51.1875 C 154.945312 51.195312 155.570312 51.203125 156.214844 51.210938 C 156.183594 50.472656 156.152344 49.730469 156.117188 48.96875 C 156.09375 47.992188 156.070312 47.011719 156.046875 46.03125 C 156.011719 45.300781 156.011719 45.300781 155.976562 44.558594 C 155.929688 41.992188 156.0625 40.691406 157.382812 38.417969 C 159.074219 36.910156 159.707031 36.617188 161.9375 36.679688 Z M 161.9375 36.679688 "/>
<path style=" stroke:none;fill-rule:nonzero;fill:rgb(29.019609%,45.09804%,72.549021%);fill-opacity:1;" d="M 229.667969 49.785156 C 231.734375 51.257812 232.28125 52.449219 232.722656 54.917969 C 232.226562 57.691406 231.789062 58.84375 229.605469 60.644531 C 227.140625 60.894531 225.097656 60.777344 222.664062 60.410156 C 219.160156 59.894531 217.144531 59.835938 214.121094 61.992188 C 210.253906 65.667969 208.003906 69.550781 207.800781 74.9375 C 207.785156 76.289062 207.78125 77.640625 207.785156 78.988281 C 207.777344 79.707031 207.773438 80.425781 207.765625 81.164062 C 207.734375 84.222656 207.726562 87.28125 207.714844 90.339844 C 207.707031 92.578125 207.683594 94.816406 207.660156 97.054688 C 207.664062 97.746094 207.664062 98.4375 207.667969 99.148438 C 207.601562 105.183594 207.601562 105.183594 205.367188 107.8125 C 203.800781 108.59375 202.777344 108.617188 201.03125 108.652344 C 200.242188 108.679688 200.242188 108.679688 199.4375 108.707031 C 197.597656 108.429688 197.054688 107.925781 195.941406 106.464844 C 195.148438 104.089844 195.171875 102.195312 195.15625 99.6875 C 195.152344 98.96875 195.152344 98.96875 195.148438 98.230469 C 195.136719 96.640625 195.132812 95.046875 195.128906 93.457031 C 195.125 92.347656 195.121094 91.242188 195.117188 90.132812 C 195.109375 87.8125 195.105469 85.492188 195.105469 83.171875 C 195.101562 80.199219 195.085938 77.226562 195.066406 74.253906 C 195.054688 71.96875 195.050781 69.683594 195.046875 67.394531 C 195.046875 66.300781 195.042969 65.203125 195.03125 64.109375 C 195.019531 62.574219 195.023438 61.039062 195.027344 59.507812 C 195.023438 58.636719 195.023438 57.761719 195.019531 56.863281 C 195.285156 54.421875 195.808594 53.152344 197.285156 51.210938 C 199.441406 50.132812 201.679688 50.207031 204.019531 50.535156 C 206.582031 52.289062 207.257812 54.335938 208.058594 57.273438 C 208.371094 56.917969 208.679688 56.558594 209 56.191406 C 214.171875 50.585938 221.964844 46.53125 229.667969 49.785156 Z M 229.667969 49.785156 "/>
<path style=" stroke:none;fill-rule:nonzero;fill:rgb(100%,78.431374%,3.921569%);fill-opacity:1;" d="M 127.933594 31.667969 C 130.023438 32.914062 130.515625 33.359375 131.300781 35.710938 C 131.363281 36.652344 131.390625 37.597656 131.394531 38.542969 C 131.398438 39.40625 131.398438 39.40625 131.40625 40.289062 C 131.40625 40.917969 131.40625 41.546875 131.410156 42.199219 C 131.410156 42.863281 131.414062 43.527344 131.417969 44.214844 C 131.429688 46.417969 131.433594 48.621094 131.4375 50.824219 C 131.441406 52.355469 131.445312 53.886719 131.449219 55.414062 C 131.457031 58.625 131.460938 61.835938 131.460938 65.042969 C 131.464844 69.160156 131.480469 73.273438 131.5 77.386719 C 131.511719 80.546875 131.515625 83.707031 131.519531 86.867188 C 131.519531 88.386719 131.523438 89.902344 131.535156 91.417969 C 131.546875 93.539062 131.542969 95.660156 131.539062 97.78125 C 131.546875 98.410156 131.550781 99.039062 131.558594 99.683594 C 131.539062 102.933594 131.4375 105.191406 129.28125 107.8125 C 127.730469 108.585938 126.710938 108.640625 124.988281 108.695312 C 124.46875 108.722656 123.949219 108.746094 123.414062 108.773438 C 121.144531 108.351562 120.542969 107.667969 119.179688 105.789062 C 118.769531 103.519531 118.8125 101.269531 118.832031 98.96875 C 118.828125 98.277344 118.820312 97.585938 118.816406 96.871094 C 118.804688 94.578125 118.8125 92.289062 118.824219 89.996094 C 118.820312 88.40625 118.816406 86.816406 118.816406 85.222656 C 118.808594 81.886719 118.816406 78.554688 118.828125 75.21875 C 118.84375 70.941406 118.835938 66.664062 118.820312 62.382812 C 118.808594 59.097656 118.8125 55.8125 118.820312 52.527344 C 118.820312 50.949219 118.820312 49.371094 118.8125 47.796875 C 118.804688 45.589844 118.816406 43.386719 118.832031 41.183594 C 118.824219 40.53125 118.820312 39.875 118.816406 39.203125 C 118.871094 34.796875 118.871094 34.796875 120.421875 32.632812 C 123.121094 30.839844 124.859375 30.917969 127.933594 31.667969 Z M 127.933594 31.667969 "/>
<path style=" stroke:none;fill-rule:nonzero;fill:rgb(29.019609%,45.09804%,72.549021%);fill-opacity:1;" d="M 251.152344 49.863281 C 252.945312 50.902344 252.945312 50.902344 254.519531 52.558594 C 254.855469 54.414062 254.976562 55.855469 254.945312 57.707031 C 254.949219 58.222656 254.953125 58.738281 254.960938 59.269531 C 254.972656 60.96875 254.957031 62.667969 254.945312 64.371094 C 254.945312 65.554688 254.945312 66.738281 254.949219 67.921875 C 254.949219 70.398438 254.941406 72.878906 254.921875 75.355469 C 254.898438 78.53125 254.902344 81.710938 254.914062 84.886719 C 254.921875 87.328125 254.917969 89.773438 254.90625 92.214844 C 254.902344 93.386719 254.902344 94.558594 254.90625 95.730469 C 254.910156 97.367188 254.898438 99.003906 254.878906 100.640625 C 254.882812 101.125 254.886719 101.609375 254.890625 102.105469 C 254.847656 104.40625 254.671875 105.59375 253.246094 107.433594 C 251.621094 108.636719 250.796875 108.867188 248.796875 108.863281 C 248.289062 108.878906 247.78125 108.894531 247.261719 108.910156 C 244.992188 108.265625 244.339844 107.074219 243.074219 105.117188 C 242.8125 103.34375 242.703125 101.855469 242.726562 100.085938 C 242.71875 99.589844 242.714844 99.097656 242.710938 98.585938 C 242.699219 96.957031 242.707031 95.332031 242.714844 93.703125 C 242.714844 92.566406 242.710938 91.433594 242.707031 90.296875 C 242.703125 87.921875 242.710938 85.542969 242.722656 83.167969 C 242.738281 80.125 242.730469 77.082031 242.710938 74.039062 C 242.703125 71.695312 242.707031 69.351562 242.714844 67.007812 C 242.714844 65.886719 242.710938 64.765625 242.707031 63.644531 C 242.699219 62.074219 242.710938 60.503906 242.726562 58.933594 C 242.71875 58.472656 242.714844 58.011719 242.707031 57.539062 C 242.765625 54.367188 243.539062 52.769531 245.765625 50.535156 C 247.6875 49.574219 249.023438 49.652344 251.152344 49.863281 Z M 251.152344 49.863281 "/>
<path style=" stroke:none;fill-rule:nonzero;fill:rgb(29.019609%,45.09804%,72.549021%);fill-opacity:1;" d="M 252.5 30.996094 C 254.035156 31.773438 254.035156 31.773438 255.191406 33.015625 C 255.527344 34.914062 255.527344 34.914062 255.488281 37.058594 C 255.488281 37.769531 255.484375 38.476562 255.484375 39.207031 C 255.191406 41.101562 255.191406 41.101562 254.414062 42.347656 C 252.640625 43.457031 251.253906 43.417969 249.175781 43.417969 C 248.476562 43.433594 247.773438 43.445312 247.054688 43.457031 C 244.625 43.042969 243.847656 42.398438 242.398438 40.429688 C 241.859375 38.347656 241.984375 36.46875 242.398438 34.363281 C 244.792969 30.449219 248.253906 30.167969 252.5 30.996094 Z M 252.5 30.996094 "/>
<path style=" stroke:none;fill-rule:nonzero;fill:rgb(93.725491%,89.019608%,79.215688%);fill-opacity:1;" d="M 186.511719 123.308594 C 186.511719 123.976562 186.511719 124.644531 186.511719 125.332031 C 186.957031 125.332031 187.402344 125.332031 187.859375 125.332031 C 188.082031 124.664062 188.304688 123.996094 188.535156 123.308594 C 191.53125 122.976562 191.53125 122.976562 194.59375 122.636719 C 194.628906 124.054688 194.65625 125.472656 194.675781 126.890625 C 194.691406 127.679688 194.707031 128.46875 194.726562 129.28125 C 194.59375 131.394531 194.59375 131.394531 193.246094 133.417969 C 191.140625 133.542969 191.140625 133.542969 189.207031 133.417969 C 189.109375 132.902344 189.011719 132.386719 188.910156 131.859375 C 188.558594 129.992188 188.558594 129.992188 187.859375 128.027344 C 187.414062 128.027344 186.972656 128.027344 186.511719 128.027344 C 186.511719 128.914062 186.511719 129.804688 186.511719 130.722656 C 186.070312 130.722656 185.625 130.722656 185.167969 130.722656 C 185.167969 128.71875 185.167969 126.71875 185.167969 124.65625 C 183.832031 125.324219 183.832031 125.324219 182.472656 126.003906 C 181.921875 128.40625 181.921875 128.40625 181.800781 130.722656 C 181.355469 130.722656 180.910156 130.722656 180.453125 130.722656 C 180.453125 128.273438 180.453125 125.828125 180.453125 123.308594 C 183.035156 122.664062 184.039062 122.691406 186.511719 123.308594 Z M 186.511719 123.308594 "/>
<path style=" stroke:none;fill-rule:nonzero;fill:rgb(100%,96.078432%,83.529413%);fill-opacity:1;" d="M 175.738281 115.898438 C 176.628906 116.121094 177.519531 116.339844 178.433594 116.570312 C 178.210938 117.90625 177.988281 119.238281 177.761719 120.613281 C 178.203125 120.613281 178.648438 120.613281 179.105469 120.613281 C 179.105469 123.949219 179.105469 127.285156 179.105469 130.722656 C 178.21875 130.722656 177.328125 130.722656 176.414062 130.722656 C 175.96875 131.386719 175.523438 132.054688 175.066406 132.742188 C 172.625 132.867188 172.625 132.867188 170.351562 132.742188 C 170.351562 132.519531 170.351562 132.296875 170.351562 132.070312 C 171.6875 131.625 173.019531 131.179688 174.394531 130.722656 C 174.171875 130.722656 173.949219 130.722656 173.71875 130.722656 C 170.535156 130.230469 170.535156 130.230469 169.007812 128.699219 C 168.839844 126.679688 168.839844 126.679688 169.007812 124.65625 C 169.449219 124.210938 169.894531 123.765625 170.351562 123.308594 C 172.792969 123.5625 172.792969 123.5625 175.066406 123.984375 C 175.289062 121.316406 175.511719 118.644531 175.738281 115.898438 Z M 175.738281 115.898438 "/>
<path style=" stroke:none;fill-rule:nonzero;fill:rgb(100%,80.000001%,11.372549%);fill-opacity:1;" d="M 148.808594 119.941406 C 149.25 120.164062 149.695312 120.382812 150.152344 120.613281 C 150.152344 121.503906 150.152344 122.394531 150.152344 123.308594 C 150.695312 123.296875 151.238281 123.28125 151.792969 123.265625 C 153.519531 123.308594 153.519531 123.308594 154.191406 123.984375 C 154.242188 125.007812 154.25 126.03125 154.234375 127.058594 C 154.230469 127.613281 154.222656 128.171875 154.21875 128.746094 C 154.210938 129.175781 154.203125 129.605469 154.191406 130.046875 C 153.972656 130.046875 153.75 130.046875 153.519531 130.046875 C 153.296875 128.269531 153.074219 126.488281 152.847656 124.65625 C 152.179688 124.65625 151.511719 124.65625 150.828125 124.65625 C 150.605469 126.433594 150.382812 128.214844 150.152344 130.046875 C 149.074219 130.214844 147.996094 130.367188 146.914062 130.511719 C 146.3125 130.597656 145.710938 130.683594 145.089844 130.769531 C 143.421875 130.722656 143.421875 130.722656 142.179688 129.875 C 141.398438 128.699219 141.398438 128.699219 141.566406 126.257812 C 142.074219 123.984375 142.074219 123.984375 142.746094 123.308594 C 144.316406 123.28125 145.890625 123.28125 147.460938 123.308594 C 147.90625 122.195312 148.347656 121.085938 148.808594 119.941406 Z M 148.808594 119.941406 "/>
<path style=" stroke:none;fill-rule:nonzero;fill:rgb(75.686276%,68.627453%,55.686277%);fill-opacity:1;" d="M 204.019531 119.941406 C 204.464844 119.941406 204.910156 119.941406 205.367188 119.941406 C 205.367188 121.273438 205.367188 122.609375 205.367188 123.984375 C 206.019531 123.859375 206.671875 123.734375 207.34375 123.605469 C 208.367188 123.457031 208.367188 123.457031 209.40625 123.308594 C 210.078125 123.984375 210.078125 123.984375 210.144531 125.375 C 210.136719 125.929688 210.128906 126.484375 210.121094 127.058594 C 210.117188 127.613281 210.109375 128.171875 210.105469 128.746094 C 210.097656 129.175781 210.089844 129.605469 210.078125 130.046875 C 209.859375 130.046875 209.636719 130.046875 209.40625 130.046875 C 209.40625 128.269531 209.40625 126.488281 209.40625 124.65625 C 208.015625 124.984375 208.015625 124.984375 206.714844 126.003906 C 206.160156 128.40625 206.160156 128.40625 206.039062 130.722656 C 204.261719 130.722656 202.484375 130.722656 200.652344 130.722656 C 200.652344 128.496094 200.652344 126.273438 200.652344 123.984375 C 200.207031 123.761719 199.765625 123.539062 199.308594 123.308594 C 199.75 123.308594 200.195312 123.308594 200.652344 123.308594 C 200.875 122.640625 201.097656 121.976562 201.328125 121.289062 C 201.328125 121.953125 201.328125 122.621094 201.328125 123.308594 C 201.992188 123.308594 202.660156 123.308594 203.347656 123.308594 C 203.570312 122.195312 203.792969 121.085938 204.019531 119.941406 Z M 204.019531 119.941406 "/>
<path style=" stroke:none;fill-rule:nonzero;fill:rgb(100%,94.901961%,78.039217%);fill-opacity:1;" d="M 125.238281 120.613281 C 129.84375 120.480469 129.84375 120.480469 131.300781 120.613281 C 132.648438 121.960938 132.648438 121.960938 132.6875 124.195312 C 132.675781 125.011719 132.660156 125.832031 132.648438 126.679688 C 132.839844 127.808594 133.050781 128.933594 133.320312 130.046875 C 132.652344 130.046875 131.988281 130.046875 131.300781 130.046875 C 131.300781 128.933594 131.300781 127.824219 131.300781 126.679688 C 129.746094 126.679688 128.1875 126.679688 126.585938 126.679688 C 126.585938 127.789062 126.585938 128.902344 126.585938 130.046875 C 126.140625 130.046875 125.699219 130.046875 125.238281 130.046875 C 125.238281 126.933594 125.238281 123.820312 125.238281 120.613281 Z M 125.238281 120.613281 "/>
<path style=" stroke:none;fill-rule:nonzero;fill:rgb(100%,94.901961%,78.431374%);fill-opacity:1;" d="M 158.277344 123.242188 C 160.613281 123.277344 160.613281 123.277344 162.945312 123.308594 C 162.945312 125.53125 162.945312 127.757812 162.945312 130.046875 C 161.167969 130.269531 159.390625 130.492188 157.558594 130.722656 C 156.507812 129.625 156.507812 129.625 155.539062 128.027344 C 155.90625 123.355469 155.90625 123.355469 158.277344 123.242188 Z M 158.277344 123.242188 "/>
<path style=" stroke:none;fill-rule:nonzero;fill:rgb(90.588236%,92.54902%,95.294118%);fill-opacity:1;" d="M 257.214844 119.941406 C 257.433594 119.941406 257.65625 119.941406 257.886719 119.941406 C 257.886719 123.273438 257.886719 126.609375 257.886719 130.046875 C 256.332031 130.269531 254.777344 130.492188 253.171875 130.722656 C 252.121094 129.582031 252.121094 129.582031 251.152344 128.027344 C 251.328125 126.207031 251.6875 124.9375 252.5 123.308594 C 253.832031 123.308594 255.167969 123.308594 256.539062 123.308594 C 256.761719 122.195312 256.984375 121.085938 257.214844 119.941406 Z M 257.214844 119.941406 "/>
<path style=" stroke:none;fill-rule:nonzero;fill:rgb(69.803923%,72.941178%,80.784315%);fill-opacity:1;" d="M 239.035156 123.140625 C 241.054688 123.308594 241.054688 123.308594 242.398438 124.65625 C 242.625 126.789062 242.734375 128.152344 241.601562 130.003906 C 240.378906 130.722656 240.378906 130.722656 238.65625 130.59375 C 237.011719 130.046875 237.011719 130.046875 235.667969 128.699219 C 235.5 126.679688 235.5 126.679688 235.667969 124.65625 C 237.011719 123.308594 237.011719 123.308594 239.035156 123.140625 Z M 239.035156 123.140625 "/>
<path style=" stroke:none;fill-rule:nonzero;fill:rgb(97.647059%,82.352942%,36.078432%);fill-opacity:1;" d="M 175.738281 115.898438 C 177.074219 116.230469 177.074219 116.230469 178.433594 116.570312 C 178.210938 117.90625 177.988281 119.238281 177.761719 120.613281 C 178.203125 120.613281 178.648438 120.613281 179.105469 120.613281 C 179.105469 123.949219 179.105469 127.285156 179.105469 130.722656 C 177.984375 130.722656 176.863281 130.722656 175.738281 130.722656 C 175.175781 125.660156 175.015625 120.945312 175.738281 115.898438 Z M 175.738281 115.898438 "/>
<path style=" stroke:none;fill-rule:nonzero;fill:rgb(92.156863%,92.54902%,93.725491%);fill-opacity:1;" d="M 222.199219 120.613281 C 222.644531 120.613281 223.089844 120.613281 223.546875 120.613281 C 224.433594 122.613281 225.324219 124.617188 226.238281 126.679688 C 226.90625 125.34375 227.574219 124.011719 228.261719 122.636719 C 229.605469 123.308594 229.605469 123.308594 230.363281 125.371094 C 230.558594 126.027344 230.753906 126.679688 230.953125 127.351562 C 231.84375 125.128906 232.730469 122.90625 233.648438 120.613281 C 234.386719 123.582031 234.179688 124.164062 233.015625 126.847656 C 232.757812 127.449219 232.503906 128.046875 232.238281 128.667969 C 232.039062 129.125 231.835938 129.578125 231.625 130.046875 C 231.183594 130.046875 230.738281 130.046875 230.28125 130.046875 C 229.613281 128.714844 228.945312 127.378906 228.261719 126.003906 C 227.59375 127.339844 226.925781 128.671875 226.238281 130.046875 C 225.796875 130.046875 225.351562 130.046875 224.894531 130.046875 C 224.441406 128.855469 223.992188 127.660156 223.546875 126.46875 C 223.296875 125.804688 223.046875 125.136719 222.789062 124.453125 C 222.199219 122.636719 222.199219 122.636719 222.199219 120.613281 Z M 222.199219 120.613281 "/>
<path style=" stroke:none;fill-rule:nonzero;fill:rgb(68.627453%,75.686276%,87.843138%);fill-opacity:1;" d="M 294.921875 120.613281 C 296.925781 122.296875 297.578125 124.015625 298.414062 126.46875 C 298.644531 127.136719 298.875 127.808594 299.113281 128.496094 C 299.285156 129.007812 299.457031 129.519531 299.632812 130.046875 C 299.1875 130.046875 298.746094 130.046875 298.285156 130.046875 C 298.066406 129.601562 297.84375 129.15625 297.613281 128.699219 C 296.050781 128.425781 294.476562 128.199219 292.898438 128.027344 C 292.679688 128.691406 292.457031 129.359375 292.226562 130.046875 C 291.347656 127.410156 292.007812 126.652344 293.195312 124.195312 C 293.511719 123.523438 293.832031 122.855469 294.160156 122.164062 C 294.410156 121.652344 294.660156 121.140625 294.921875 120.613281 Z M 294.921875 120.613281 "/>
<path style=" stroke:none;fill-rule:nonzero;fill:rgb(100%,95.294118%,79.215688%);fill-opacity:1;" d="M 137.316406 123.183594 C 139.378906 123.308594 139.378906 123.308594 140.726562 124.65625 C 140.726562 125.546875 140.726562 126.433594 140.726562 127.351562 C 138.949219 127.351562 137.171875 127.351562 135.339844 127.351562 C 135.5625 127.796875 135.785156 128.242188 136.011719 128.699219 C 137.570312 128.699219 139.125 128.699219 140.726562 128.699219 C 139.925781 129.753906 139.925781 129.753906 138.707031 130.722656 C 136.457031 130.554688 135.605469 130.3125 133.992188 128.699219 C 134.460938 123.363281 134.460938 123.363281 137.316406 123.183594 Z M 137.316406 123.183594 "/>
<path style=" stroke:none;fill-rule:nonzero;fill:rgb(86.666667%,85.09804%,83.92157%);fill-opacity:1;" d="M 214.75 123.183594 C 216.8125 123.308594 216.8125 123.308594 218.160156 124.65625 C 218.160156 125.546875 218.160156 126.433594 218.160156 127.351562 C 216.382812 127.351562 214.605469 127.351562 212.773438 127.351562 C 212.996094 127.796875 213.21875 128.242188 213.445312 128.699219 C 215.003906 128.699219 216.558594 128.699219 218.160156 128.699219 C 217.359375 129.753906 217.359375 129.753906 216.140625 130.722656 C 213.890625 130.554688 213.039062 130.3125 211.425781 128.699219 C 211.894531 123.363281 211.894531 123.363281 214.75 123.183594 Z M 214.75 123.183594 "/>
<path style=" stroke:none;fill-rule:nonzero;fill:rgb(97.647059%,77.64706%,14.117648%);fill-opacity:1;" d="M 176.414062 123.984375 C 176.636719 123.984375 176.859375 123.984375 177.085938 123.984375 C 177.128906 124.40625 177.167969 124.828125 177.210938 125.261719 C 177.265625 125.8125 177.324219 126.363281 177.382812 126.929688 C 177.464844 127.75 177.464844 127.75 177.546875 128.589844 C 177.6875 130.074219 177.6875 130.074219 178.433594 131.394531 C 178.375 132.4375 178.273438 133.476562 178.140625 134.511719 C 178.070312 135.0625 178 135.613281 177.929688 136.179688 C 177.875 136.601562 177.816406 137.023438 177.761719 137.460938 C 176.648438 137.460938 175.539062 137.460938 174.394531 137.460938 C 174.394531 136.125 174.394531 134.789062 174.394531 133.417969 C 173.28125 133.417969 172.171875 133.417969 171.027344 133.417969 C 171.027344 133.195312 171.027344 132.972656 171.027344 132.742188 C 172.003906 132.617188 172.003906 132.617188 173.003906 132.488281 C 173.683594 132.351562 174.367188 132.210938 175.066406 132.070312 C 175.886719 130.429688 175.957031 129.089844 176.117188 127.269531 C 176.175781 126.65625 176.230469 126.042969 176.289062 125.410156 C 176.332031 124.9375 176.371094 124.46875 176.414062 123.984375 Z M 176.414062 123.984375 "/>
<path style=" stroke:none;fill-rule:nonzero;fill:rgb(96.862745%,91.764706%,78.823531%);fill-opacity:1;" d="M 186.511719 123.308594 C 186.511719 125.753906 186.511719 128.199219 186.511719 130.722656 C 186.070312 130.722656 185.625 130.722656 185.167969 130.722656 C 185.167969 128.71875 185.167969 126.71875 185.167969 124.65625 C 183.832031 125.324219 183.832031 125.324219 182.472656 126.003906 C 181.921875 128.40625 181.921875 128.40625 181.800781 130.722656 C 181.355469 130.722656 180.910156 130.722656 180.453125 130.722656 C 180.453125 128.273438 180.453125 125.828125 180.453125 123.308594 C 183.148438 122.636719 183.148438 122.636719 186.511719 123.308594 Z M 186.511719 123.308594 "/>
<path style=" stroke:none;fill-rule:nonzero;fill:rgb(96.862745%,94.509804%,89.803922%);fill-opacity:1;" d="M 193.921875 124.65625 C 194.140625 124.65625 194.363281 124.65625 194.59375 124.65625 C 194.628906 125.738281 194.65625 126.816406 194.675781 127.898438 C 194.691406 128.5 194.707031 129.101562 194.726562 129.722656 C 194.59375 131.394531 194.59375 131.394531 193.246094 133.417969 C 191.140625 133.542969 191.140625 133.542969 189.207031 133.417969 C 189.207031 132.070312 189.207031 130.722656 189.207031 129.375 C 190.539062 128.929688 191.875 128.484375 193.246094 128.027344 C 193.46875 126.914062 193.691406 125.800781 193.921875 124.65625 Z M 193.921875 124.65625 "/>
<path style=" stroke:none;fill-rule:nonzero;fill:rgb(89.411765%,91.764706%,95.686275%);fill-opacity:1;" d="M 263.273438 123.308594 C 264.621094 124.65625 264.621094 124.65625 265.964844 126.679688 C 266.632812 126.011719 267.300781 125.34375 267.988281 124.65625 C 268.652344 125.324219 269.320312 125.992188 270.007812 126.679688 C 270.449219 125.566406 270.894531 124.453125 271.351562 123.308594 C 272.339844 125.878906 271.644531 127.546875 270.679688 130.046875 C 268.660156 129.375 268.660156 129.375 267.3125 128.027344 C 266.648438 128.691406 265.980469 129.359375 265.292969 130.046875 C 263.921875 127.535156 263.273438 126.226562 263.273438 123.308594 Z M 263.273438 123.308594 "/>
<path style=" stroke:none;fill-rule:nonzero;fill:rgb(99.607843%,80.000001%,11.764706%);fill-opacity:1;" d="M 171.027344 123.984375 C 172.15625 124.175781 173.277344 124.398438 174.394531 124.65625 C 174.8125 126.257812 174.8125 126.257812 175.066406 128.027344 C 174.621094 128.46875 174.179688 128.914062 173.71875 129.375 C 171.953125 129.121094 171.953125 129.121094 170.351562 128.699219 C 170.324219 127.351562 170.324219 126.003906 170.351562 124.65625 C 170.574219 124.433594 170.796875 124.210938 171.027344 123.984375 Z M 171.027344 123.984375 "/>
<path style=" stroke:none;fill-rule:nonzero;fill:rgb(92.54902%,90.980393%,88.235295%);fill-opacity:1;" d="M 204.691406 119.941406 C 204.914062 119.941406 205.136719 119.941406 205.367188 119.941406 C 205.367188 121.273438 205.367188 122.609375 205.367188 123.984375 C 206.019531 123.859375 206.671875 123.734375 207.34375 123.605469 C 208.367188 123.457031 208.367188 123.457031 209.40625 123.308594 C 210.078125 123.984375 210.078125 123.984375 210.144531 125.375 C 210.136719 125.929688 210.128906 126.484375 210.121094 127.058594 C 210.117188 127.613281 210.109375 128.171875 210.105469 128.746094 C 210.097656 129.175781 210.089844 129.605469 210.078125 130.046875 C 209.859375 130.046875 209.636719 130.046875 209.40625 130.046875 C 209.40625 128.269531 209.40625 126.488281 209.40625 124.65625 C 208.015625 124.984375 208.015625 124.984375 206.714844 126.003906 C 206.160156 128.40625 206.160156 128.40625 206.039062 130.722656 C 205.59375 130.722656 205.152344 130.722656 204.691406 130.722656 C 204.691406 127.164062 204.691406 123.605469 204.691406 119.941406 Z M 204.691406 119.941406 "/>
<path style=" stroke:none;fill-rule:nonzero;fill:rgb(38.431373%,49.803922%,71.372551%);fill-opacity:1;" d="M 253.847656 123.984375 C 255.277344 124.234375 255.277344 124.234375 256.539062 124.65625 C 256.960938 126.257812 256.960938 126.257812 257.214844 128.027344 C 256.769531 128.46875 256.324219 128.914062 255.867188 129.375 C 254.976562 129.375 254.089844 129.375 253.171875 129.375 C 252.753906 127.4375 252.753906 127.4375 252.5 125.332031 C 252.945312 124.886719 253.390625 124.441406 253.847656 123.984375 Z M 253.847656 123.984375 "/>
<path style=" stroke:none;fill-rule:nonzero;fill:rgb(100%,79.607844%,9.019608%);fill-opacity:1;" d="M 158.234375 123.984375 C 159.664062 124.234375 159.664062 124.234375 160.925781 124.65625 C 161.347656 126.257812 161.347656 126.257812 161.601562 128.027344 C 161.15625 128.46875 160.710938 128.914062 160.253906 129.375 C 159.363281 129.375 158.476562 129.375 157.558594 129.375 C 157.140625 127.4375 157.140625 127.4375 156.886719 125.332031 C 157.332031 124.886719 157.777344 124.441406 158.234375 123.984375 Z M 158.234375 123.984375 "/>
<path style=" stroke:none;fill-rule:nonzero;fill:rgb(100%,96.470588%,83.92157%);fill-opacity:1;" d="M 148.808594 119.941406 C 149.472656 120.273438 149.472656 120.273438 150.152344 120.613281 C 150.152344 121.503906 150.152344 122.394531 150.152344 123.308594 C 150.695312 123.296875 151.238281 123.28125 151.792969 123.265625 C 153.519531 123.308594 153.519531 123.308594 154.191406 123.984375 C 154.242188 125.007812 154.25 126.03125 154.234375 127.058594 C 154.230469 127.613281 154.222656 128.171875 154.21875 128.746094 C 154.210938 129.175781 154.203125 129.605469 154.191406 130.046875 C 153.972656 130.046875 153.75 130.046875 153.519531 130.046875 C 153.296875 128.269531 153.074219 126.488281 152.847656 124.65625 C 152.179688 124.65625 151.511719 124.65625 150.828125 124.65625 C 150.605469 126.433594 150.382812 128.214844 150.152344 130.046875 C 149.707031 130.046875 149.265625 130.046875 148.808594 130.046875 C 148.808594 126.710938 148.808594 123.375 148.808594 119.941406 Z M 148.808594 119.941406 "/>
<path style=" stroke:none;fill-rule:nonzero;fill:rgb(83.529413%,70.19608%,40.000001%);fill-opacity:1;" d="M 189.207031 124.65625 C 190.539062 124.65625 191.875 124.65625 193.246094 124.65625 C 193.246094 125.992188 193.246094 127.324219 193.246094 128.699219 C 191.648438 129.121094 191.648438 129.121094 189.878906 129.375 C 189.4375 128.929688 188.992188 128.484375 188.535156 128.027344 C 188.785156 126.257812 188.785156 126.257812 189.207031 124.65625 Z M 189.207031 124.65625 "/>
<path style=" stroke:none;fill-rule:nonzero;fill:rgb(100%,95.686275%,81.568629%);fill-opacity:1;" d="M 145.144531 123.265625 C 145.910156 123.28125 146.671875 123.292969 147.460938 123.308594 C 147.460938 123.753906 147.460938 124.199219 147.460938 124.65625 C 146.648438 124.636719 146.648438 124.636719 145.820312 124.613281 C 144.136719 124.457031 144.136719 124.457031 143.421875 125.332031 C 143.394531 126.453125 143.390625 127.578125 143.421875 128.699219 C 144.753906 128.699219 146.085938 128.699219 147.460938 128.699219 C 147.238281 129.367188 147.015625 130.035156 146.785156 130.722656 C 144.949219 130.871094 143.78125 130.925781 142.15625 130.003906 C 140.953125 127.929688 141.570312 126.246094 142.074219 123.984375 C 142.746094 123.308594 142.746094 123.308594 145.144531 123.265625 Z M 145.144531 123.265625 "/>
<path style=" stroke:none;fill-rule:nonzero;fill:rgb(100%,79.215688%,8.235294%);fill-opacity:1;" d="M 126.585938 121.960938 C 128.140625 121.960938 129.699219 121.960938 131.300781 121.960938 C 131.078125 123.074219 130.855469 124.183594 130.625 125.332031 C 129.292969 125.332031 127.960938 125.332031 126.585938 125.332031 C 126.585938 124.21875 126.585938 123.105469 126.585938 121.960938 Z M 126.585938 121.960938 "/>
<path style=" stroke:none;fill-rule:nonzero;fill:rgb(85.882354%,89.019608%,94.509804%);fill-opacity:1;" d="M 276.738281 121.289062 C 277.183594 121.289062 277.628906 121.289062 278.085938 121.289062 C 278.085938 121.953125 278.085938 122.621094 278.085938 123.308594 C 278.53125 123.53125 278.976562 123.753906 279.433594 123.984375 C 278.988281 123.984375 278.542969 123.984375 278.085938 123.984375 C 278.085938 125.761719 278.085938 127.539062 278.085938 129.375 C 278.53125 129.597656 278.976562 129.816406 279.433594 130.046875 C 278.542969 130.046875 277.65625 130.046875 276.738281 130.046875 C 276.738281 128.046875 276.738281 126.042969 276.738281 123.984375 C 276.296875 123.761719 275.851562 123.539062 275.394531 123.308594 C 275.835938 123.308594 276.28125 123.308594 276.738281 123.308594 C 276.738281 122.640625 276.738281 121.976562 276.738281 121.289062 Z M 276.738281 121.289062 "/>
<path style=" stroke:none;fill-rule:nonzero;fill:rgb(89.803922%,92.156863%,96.078432%);fill-opacity:1;" d="M 280.78125 119.941406 C 281.222656 119.941406 281.667969 119.941406 282.125 119.941406 C 282.800781 123.542969 282.699219 126.425781 282.125 130.046875 C 281.683594 130.046875 281.238281 130.046875 280.78125 130.046875 C 280.78125 126.710938 280.78125 123.375 280.78125 119.941406 Z M 280.78125 119.941406 "/>
<path style=" stroke:none;fill-rule:nonzero;fill:rgb(100%,88.627452%,49.019608%);fill-opacity:1;" d="M 137.402344 123.265625 C 138.382812 123.289062 138.382812 123.289062 139.378906 123.308594 C 139.824219 124.199219 140.269531 125.089844 140.726562 126.003906 C 138.949219 126.003906 137.171875 126.003906 135.339844 126.003906 C 135.117188 125.335938 134.894531 124.671875 134.667969 123.984375 C 135.339844 123.308594 135.339844 123.308594 137.402344 123.265625 Z M 137.402344 123.265625 "/>
<path style=" stroke:none;fill-rule:nonzero;fill:rgb(91.37255%,93.333334%,96.470588%);fill-opacity:1;" d="M 294.921875 120.613281 C 295.363281 120.835938 295.808594 121.058594 296.265625 121.289062 C 295.703125 122.972656 295.058594 124.433594 294.246094 126.003906 C 294.914062 126.449219 295.578125 126.894531 296.265625 127.351562 C 295.15625 127.351562 294.042969 127.351562 292.898438 127.351562 C 292.679688 128.242188 292.457031 129.128906 292.226562 130.046875 C 291.347656 127.410156 292.007812 126.652344 293.195312 124.195312 C 293.511719 123.523438 293.832031 122.855469 294.160156 122.164062 C 294.410156 121.652344 294.660156 121.140625 294.921875 120.613281 Z M 294.921875 120.613281 "/>
<path style=" stroke:none;fill-rule:nonzero;fill:rgb(89.411765%,80.784315%,61.960787%);fill-opacity:1;" d="M 193.246094 130.046875 C 193.246094 131.160156 193.246094 132.269531 193.246094 133.417969 C 191.914062 133.417969 190.582031 133.417969 189.207031 133.417969 C 188.984375 132.75 188.761719 132.082031 188.535156 131.394531 C 191.730469 130.046875 191.730469 130.046875 193.246094 130.046875 Z M 193.246094 130.046875 "/>
<path style=" stroke:none;fill-rule:nonzero;fill:rgb(99.607843%,98.431373%,92.941177%);fill-opacity:1;" d="M 175.738281 123.308594 C 175.757812 124.753906 175.769531 126.199219 175.78125 127.648438 C 175.789062 128.453125 175.796875 129.257812 175.804688 130.085938 C 175.738281 132.070312 175.738281 132.070312 175.066406 132.742188 C 173.496094 132.769531 171.925781 132.769531 170.351562 132.742188 C 170.351562 132.519531 170.351562 132.296875 170.351562 132.070312 C 171.6875 131.625 173.019531 131.179688 174.394531 130.722656 C 174.40625 129.859375 174.421875 128.996094 174.433594 128.109375 C 174.441406 127.625 174.449219 127.140625 174.460938 126.640625 C 174.476562 125.273438 174.476562 125.273438 173.71875 123.984375 C 175.066406 123.308594 175.066406 123.308594 175.738281 123.308594 Z M 175.738281 123.308594 "/>
<path style=" stroke:none;fill-rule:nonzero;fill:rgb(90.196079%,90.196079%,90.980393%);fill-opacity:1;" d="M 222.199219 120.613281 C 222.644531 120.613281 223.089844 120.613281 223.546875 120.613281 C 224.214844 122.835938 224.878906 125.0625 225.566406 127.351562 C 224.898438 127.683594 224.898438 127.683594 224.21875 128.027344 C 223.878906 127.171875 223.542969 126.3125 223.210938 125.457031 C 223.023438 124.980469 222.835938 124.503906 222.640625 124.011719 C 222.199219 122.636719 222.199219 122.636719 222.199219 120.613281 Z M 222.199219 120.613281 "/>
<path style=" stroke:none;fill-rule:nonzero;fill:rgb(92.941177%,94.117647%,96.078432%);fill-opacity:1;" d="M 243.746094 123.308594 C 244.414062 123.53125 245.078125 123.753906 245.765625 123.984375 C 245.542969 125.984375 245.324219 127.984375 245.09375 130.046875 C 244.648438 130.046875 244.203125 130.046875 243.746094 130.046875 C 243.746094 127.824219 243.746094 125.601562 243.746094 123.308594 Z M 243.746094 123.308594 "/>
<path style=" stroke:none;fill-rule:nonzero;fill:rgb(100%,97.254902%,89.019608%);fill-opacity:1;" d="M 164.292969 123.308594 C 164.960938 123.53125 165.625 123.753906 166.3125 123.984375 C 166.089844 125.984375 165.867188 127.984375 165.640625 130.046875 C 165.195312 130.046875 164.75 130.046875 164.292969 130.046875 C 164.292969 127.824219 164.292969 125.601562 164.292969 123.308594 Z M 164.292969 123.308594 "/>
<path style=" stroke:none;fill-rule:nonzero;fill:rgb(63.921571%,60.000002%,57.254905%);fill-opacity:1;" d="M 212.773438 127.351562 C 214.328125 127.351562 215.882812 127.351562 217.488281 127.351562 C 217.707031 127.796875 217.929688 128.242188 218.160156 128.699219 C 216.605469 128.921875 215.050781 129.144531 213.445312 129.375 C 213.222656 128.707031 213.003906 128.039062 212.773438 127.351562 Z M 212.773438 127.351562 "/>
<path style=" stroke:none;fill-rule:nonzero;fill:rgb(99.215686%,98.823529%,98.431373%);fill-opacity:1;" d="M 200.652344 121.289062 C 200.875 121.953125 201.097656 122.621094 201.328125 123.308594 C 201.992188 123.53125 202.660156 123.753906 203.347656 123.984375 C 202.679688 123.984375 202.011719 123.984375 201.328125 123.984375 C 201.328125 125.761719 201.328125 127.539062 201.328125 129.375 C 201.769531 129.597656 202.214844 129.816406 202.671875 130.046875 C 202.007812 130.046875 201.339844 130.046875 200.652344 130.046875 C 200.652344 128.046875 200.652344 126.042969 200.652344 123.984375 C 200.207031 123.761719 199.765625 123.539062 199.308594 123.308594 C 199.75 123.308594 200.195312 123.308594 200.652344 123.308594 C 200.652344 122.640625 200.652344 121.976562 200.652344 121.289062 Z M 200.652344 121.289062 "/>
<path style=" stroke:none;fill-rule:nonzero;fill:rgb(100%,79.607844%,10.196079%);fill-opacity:1;" d="M 135.339844 127.351562 C 137.277344 127.269531 137.277344 127.269531 139.378906 127.351562 C 139.824219 127.796875 140.269531 128.242188 140.726562 128.699219 C 139.171875 128.921875 137.617188 129.144531 136.011719 129.375 C 135.792969 128.707031 135.570312 128.039062 135.339844 127.351562 Z M 135.339844 127.351562 "/>
<path style=" stroke:none;fill-rule:nonzero;fill:rgb(92.54902%,94.117647%,96.862745%);fill-opacity:1;" d="M 263.273438 123.308594 C 265.105469 125.144531 265.824219 126.925781 266.640625 129.375 C 265.972656 129.375 265.308594 129.375 264.621094 129.375 C 263.609375 127.101562 263.273438 125.867188 263.273438 123.308594 Z M 263.273438 123.308594 "/>
<path style=" stroke:none;fill-rule:nonzero;fill:rgb(93.333334%,85.882354%,68.235296%);fill-opacity:1;" d="M 186.511719 125.332031 C 187.179688 125.332031 187.847656 125.332031 188.535156 125.332031 C 188.976562 126.664062 189.421875 128 189.878906 129.375 C 189.214844 129.375 188.546875 129.375 187.859375 129.375 C 187.859375 128.929688 187.859375 128.484375 187.859375 128.027344 C 187.414062 128.027344 186.972656 128.027344 186.511719 128.027344 C 186.511719 127.136719 186.511719 126.246094 186.511719 125.332031 Z M 186.511719 125.332031 "/>
</g>
</svg>
