<?xml version="1.0" standalone="no"?>
<!DOCTYPE svg PUBLIC "-//W3C//DTD SVG 20010904//EN"
 "http://www.w3.org/TR/2001/REC-SVG-20010904/DTD/svg10.dtd">
<svg version="1.0" xmlns="http://www.w3.org/2000/svg"
 width="600.000000pt" height="233.000000pt" viewBox="0 0 600.000000 233.000000"
 preserveAspectRatio="xMidYMid meet">

<g transform="translate(0.000000,233.000000) scale(0.100000,-0.100000)"
fill="#000000" stroke="none">
<path d="M4310 1905 c-106 -33 -158 -112 -167 -254 l-6 -91 -62 0 c-51 0 -65
-4 -83 -23 -26 -27 -28 -64 -6 -95 13 -19 24 -22 84 -22 l69 0 3 -326 3 -326
29 -25 c35 -29 80 -26 109 8 15 19 17 51 17 345 l0 324 98 0 c103 0 113 3 131
37 17 33 14 51 -14 78 -22 23 -31 25 -121 25 l-96 0 4 81 c3 77 5 82 37 111
32 28 36 29 119 26 84 -3 86 -2 101 24 21 37 6 78 -39 100 -43 22 -145 23
-210 3z"/>
<path d="M3627 1842 c-18 -20 -23 -97 -9 -120 12 -19 72 -33 110 -26 41 8 62
37 62 86 0 56 -27 78 -93 78 -40 0 -58 -5 -70 -18z"/>
<path d="M2373 1770 c-33 -13 -43 -42 -43 -123 l0 -74 -67 -6 c-53 -4 -71 -10
-85 -27 -25 -31 -22 -66 7 -95 20 -21 34 -25 84 -25 l60 0 3 -294 c3 -281 4
-296 24 -323 33 -44 79 -70 138 -77 102 -13 176 24 176 88 0 47 -19 59 -80 51
-39 -5 -56 -3 -75 9 l-25 16 0 265 0 265 78 0 c65 0 82 3 100 20 27 25 29 70
4 100 -16 20 -31 24 -99 28 l-81 4 -4 81 c-4 72 -8 83 -32 104 -29 24 -47 27
-83 13z"/>
<path d="M3237 1576 c-50 -18 -102 -59 -138 -109 l-29 -40 0 45 c0 62 -29 98
-78 98 -82 0 -82 0 -82 -427 0 -401 0 -403 56 -417 32 -8 79 9 91 32 4 10 10
132 13 272 l5 255 31 55 c57 100 108 122 245 105 52 -7 58 -5 73 16 25 36 21
84 -10 108 -32 25 -117 28 -177 7z"/>
<path d="M3645 1555 l-25 -24 0 -378 c0 -318 2 -382 15 -400 32 -45 113 -36
135 16 7 19 10 141 8 400 l-3 373 -24 19 c-32 26 -77 24 -106 -6z"/>
<path d="M4739 1561 c-24 -19 -24 -19 -27 -288 -4 -344 8 -412 89 -491 56 -55
93 -67 204 -67 113 0 161 16 230 76 l38 34 -6 -67 c-11 -118 -64 -184 -167
-207 -71 -16 -116 -13 -196 15 -96 33 -124 30 -147 -17 -14 -30 -15 -41 -6
-63 37 -81 303 -114 453 -56 74 28 147 95 181 164 40 83 46 161 43 569 l-3
379 -24 19 c-31 26 -83 25 -107 -2 -17 -19 -19 -44 -24 -293 -5 -266 -5 -272
-30 -314 -45 -79 -151 -118 -245 -92 -53 15 -99 62 -114 117 -6 22 -11 147
-11 296 l0 258 -25 24 c-29 30 -74 32 -106 6z"/>
<path d="M3570 551 c0 -32 5 -51 14 -54 25 -10 29 -58 7 -88 -13 -18 -21 -43
-21 -69 l0 -40 493 0 c373 0 498 3 517 13 89 45 96 220 11 270 -26 15 -76 17
-525 17 l-496 0 0 -49z m150 -81 c0 -47 -4 -80 -10 -80 -6 0 -10 33 -10 80 0
47 4 80 10 80 6 0 10 -33 10 -80z m118 4 l-3 -77 -34 -3 c-42 -5 -71 18 -71
57 0 32 39 65 65 55 10 -3 15 1 15 13 0 10 3 21 7 24 18 19 24 0 21 -69z m352
50 c0 -20 4 -25 16 -20 33 13 54 -12 54 -64 0 -61 -18 -67 -22 -7 -2 34 -7 42
-23 42 -16 0 -21 -8 -23 -42 -5 -75 -22 -46 -22 37 0 47 4 80 10 80 6 0 10
-12 10 -26z m-110 -59 c0 -43 -4 -75 -10 -75 -6 0 -10 32 -10 75 0 43 4 75 10
75 6 0 10 -32 10 -75z m343 7 c15 -37 27 -71 27 -75 0 -16 -19 -6 -25 13 -5
15 -15 20 -40 20 -24 0 -34 -5 -38 -20 -3 -11 -11 -20 -17 -20 -7 0 -10 7 -6
18 37 98 53 132 62 132 6 0 23 -30 37 -68z m65 -4 c-2 -40 -7 -73 -13 -73 -5
0 -11 33 -13 73 -2 60 0 72 13 72 13 0 15 -12 13 -72z m-358 47 c0 -8 8 -15
18 -15 16 -1 16 -1 0 -14 -21 -15 -24 -72 -5 -79 6 -2 9 -8 5 -12 -17 -18 -38
6 -38 44 0 22 -6 42 -12 45 -10 5 -10 7 0 12 6 3 12 12 12 20 0 8 5 14 10 14
6 0 10 -7 10 -15z m-442 -24 c3 -9 0 -12 -10 -8 -23 8 -38 -13 -38 -55 0 -21
-4 -38 -10 -38 -5 0 -10 24 -10 54 0 44 4 55 18 59 27 8 45 3 50 -12z m247
-23 l7 -32 15 27 c17 33 19 33 37 0 8 -16 15 -23 16 -16 1 28 21 66 30 57 11
-11 -15 -100 -31 -110 -6 -3 -15 8 -22 25 l-11 30 -13 -30 c-7 -17 -17 -28
-22 -25 -13 8 -42 97 -35 107 9 15 22 1 29 -33z"/>
<path d="M3756 464 c-8 -20 10 -54 29 -54 19 0 34 28 28 51 -6 23 -48 25 -57
3z"/>
<path d="M4376 485 c-10 -26 -7 -35 9 -35 17 0 19 18 6 38 -7 11 -10 10 -15
-3z"/>
<path d="M3572 450 c0 -14 2 -19 5 -12 2 6 2 18 0 25 -3 6 -5 1 -5 -13z"/>
</g>
</svg>
