<?xml version="1.0" encoding="UTF-8"?>
<svg version="1.1" xmlns="http://www.w3.org/2000/svg" width="600" height="233">
<path d="M0 0 C1.14343339 -0.00538554 2.28686678 -0.01077108 3.46494967 -0.01631981 C7.30499403 -0.0306529 11.14469628 -0.02348225 14.98475647 -0.01637268 C17.73435361 -0.02042917 20.48393314 -0.02893565 23.23352051 -0.03717041 C29.9318712 -0.05437093 36.63012815 -0.05519585 43.3284952 -0.04995751 C48.77265193 -0.04591693 54.21678095 -0.04735803 59.66093636 -0.05270576 C60.43562772 -0.05345419 61.21031908 -0.05420261 62.00848593 -0.05497371 C63.58224388 -0.05650518 65.15600182 -0.05804353 66.72975976 -0.05958868 C81.4898202 -0.07331823 96.24982764 -0.06787282 111.00988687 -0.05640347 C124.51414208 -0.04647041 138.01826029 -0.05941216 151.52249437 -0.08333766 C165.38794806 -0.1077181 179.25333792 -0.11733914 193.11881262 -0.11068493 C200.90351792 -0.10719038 208.68811783 -0.10944029 216.47280693 -0.12693596 C223.09970521 -0.14164477 229.72642391 -0.14231079 236.35331862 -0.12486505 C239.73445304 -0.11634147 243.11500245 -0.11639838 246.49616241 -0.1295166 C250.1615652 -0.14265375 253.82609054 -0.13124216 257.49145508 -0.11352539 C259.09432189 -0.1279329 259.09432189 -0.1279329 260.72956985 -0.14263147 C266.73854901 -0.08271168 270.24304778 0.36134553 274.80921936 4.38768005 C278.79291815 9.69927843 278.6127095 16.02089405 277.80921936 22.38768005 C275.99671936 25.95018005 275.99671936 25.95018005 273.80921936 28.38768005 C273.29359436 28.98580505 272.77796936 29.58393005 272.24671936 30.20018005 C269.4318887 32.52547495 266.59608265 32.51449041 263.11520672 32.52190113 C261.65922133 32.5285879 261.65922133 32.5285879 260.1738221 32.53540975 C259.10496972 32.53522539 258.03611734 32.53504102 256.93487549 32.53485107 C255.23453933 32.54036611 255.23453933 32.54036611 253.49985296 32.54599255 C249.68133971 32.55705234 245.86285366 32.5608771 242.04432678 32.56468201 C239.31473557 32.57041166 236.58514846 32.57757846 233.8555603 32.58459473 C225.65056093 32.60435701 217.44556032 32.61442441 209.2405431 32.62332252 C205.3775682 32.62770524 201.51459468 32.63307203 197.65162086 32.63831139 C184.81228387 32.65532236 171.97294773 32.66981737 159.13360119 32.67706013 C155.80175971 32.67897004 152.46991824 32.68089038 149.13807678 32.68284607 C148.30995624 32.68332981 147.4818357 32.68381355 146.6286206 32.68431195 C133.20831315 32.69261541 119.78809474 32.71795822 106.36782619 32.75042675 C92.59284928 32.7834821 78.81791765 32.80150745 65.04290086 32.80470437 C57.30733455 32.80687073 49.57189815 32.8156379 41.83637047 32.84116554 C35.24969907 32.86285165 28.66318913 32.87093328 22.07648607 32.86119876 C18.71560334 32.85664799 15.35532454 32.86075754 11.99444199 32.87796021 C8.35084908 32.89556927 4.70810663 32.88862616 1.06451416 32.87542725 C-0.52872617 32.89188112 -0.52872617 32.89188112 -2.15415317 32.90866739 C-8.16048665 32.85599416 -11.60806504 32.3782064 -16.19078064 28.38768005 C-20.1146133 23.92262909 -20.53941365 19.78955222 -20.47203064 14.02830505 C-19.94153213 9.04751352 -18.1618267 5.04066899 -14.30499935 1.80619717 C-9.59572313 -0.33886377 -5.11728052 -0.02872137 0 0 Z " fill="#7C899F" transform="translate(188.19078063964844,171.61231994628906)"/>
<path d="M0 0 C2.57836603 0.85945534 3.64991167 1.44037067 5.09341431 3.74786377 C6.16514683 6.41025703 6.25147386 8.41650273 6.25537109 11.28417969 C6.26233002 12.33917664 6.26928894 13.39417358 6.27645874 14.48114014 C6.27546173 15.61658264 6.27446472 16.75202515 6.2734375 17.921875 C6.29373127 20.33333793 6.31458215 22.74479623 6.3359375 25.15625 C6.35851094 28.95251373 6.37499783 32.74859418 6.38085938 36.54492188 C6.39040558 40.21257571 6.42421578 43.8794064 6.4609375 47.546875 C6.45589203 48.67422058 6.45084656 49.80156616 6.44564819 50.96307373 C6.53019375 57.76844515 7.37071316 62.19890317 11 68 C15.38203715 72.24509849 20.5448054 72.35031941 26.3984375 72.28125 C31.79456354 71.69788502 35.63366323 69.402293 39.375 65.5625 C42.07992069 61.29704814 43.24620686 57.77463545 43.28710938 52.72241211 C43.30723083 51.18072609 43.30723083 51.18072609 43.32775879 49.6078949 C43.33303589 48.50881302 43.33831299 47.40973114 43.34375 46.27734375 C43.3583728 45.13971085 43.37299561 44.00207794 43.38806152 42.82997131 C43.45027159 37.96805881 43.48995917 33.10602054 43.53173828 28.24389648 C43.56545117 24.69240991 43.61056357 21.14119317 43.65625 17.58984375 C43.6615271 16.48873764 43.6668042 15.38763153 43.67224121 14.25315857 C43.69236267 12.71620079 43.69236267 12.71620079 43.71289062 11.14819336 C43.72018188 10.24838242 43.72747314 9.34857147 43.73498535 8.42149353 C44.01908537 5.82561307 44.62769204 4.20835907 46 2 C49.22293286 -0.3020949 52.11996324 -0.47510654 56 0 C58.6529541 1.51156616 58.6529541 1.51156616 61 4 C61.49405979 6.92449721 61.66530798 9.26753616 61.61523438 12.18994141 C61.62078339 13.01326965 61.6263324 13.8365979 61.63204956 14.68487549 C61.64386189 17.40769634 61.61954329 20.12885781 61.59375 22.8515625 C61.59203827 24.75002975 61.59210521 26.64849936 61.59387207 28.54696655 C61.59221757 32.5300757 61.5735054 36.51262294 61.54199219 40.49560547 C61.50247628 45.57958008 61.49792747 50.66281313 61.50545502 55.746912 C61.50853961 59.67111904 61.49634881 63.59516215 61.47932434 67.51932907 C61.47233168 69.39224593 61.46916524 71.26518139 61.47001648 73.13811111 C61.46072999 86.59391633 61.09921623 98.2501323 52 109 C41.7660864 118.88177894 29.14846522 120.39917749 15.60546875 120.21875 C7.3372924 119.94704981 -0.5509431 118.40326389 -7 113 C-8.55024464 109.89951072 -8.28992015 107.42105782 -8 104 C-6.4375 101.0625 -6.4375 101.0625 -4 99 C0.6525334 98.14545305 3.92625717 99.2869067 8.1875 101 C16.4151859 104.17143997 24.85061136 104.19001889 33.09765625 100.96875 C38.31641266 98.3111492 40.69685875 94.42178256 42.5078125 89.0703125 C43.2481702 85.95610947 43.19926548 83.18824761 43 80 C42.236875 80.7425 41.47375 81.485 40.6875 82.25 C32.03263536 89.31478486 21.77291621 89.96741265 11 89 C4.49552969 87.86593529 -0.74370856 85.10331461 -5 80 C-8.74357483 73.77363979 -11.10754449 68.24106859 -11.19287109 60.93969727 C-11.20893402 59.69152725 -11.22499695 58.44335724 -11.24154663 57.15736389 C-11.2530315 55.79371827 -11.26364047 54.43006504 -11.2734375 53.06640625 C-11.27876118 52.37909864 -11.28408485 51.69179104 -11.28956985 50.98365593 C-11.31626265 47.34808341 -11.33565279 43.71254483 -11.35009766 40.0769043 C-11.3634555 37.06878373 -11.39134531 34.06133857 -11.43212891 31.0534668 C-11.48140525 27.41893306 -11.50621139 23.78501337 -11.51332474 20.15015984 C-11.52004116 18.76622751 -11.53527385 17.3823091 -11.55921555 15.99856758 C-11.5908117 14.06251837 -11.58790625 12.12599926 -11.58349609 10.18969727 C-11.59158295 9.08844009 -11.5996698 7.98718292 -11.60800171 6.85255432 C-11 4 -11 4 -8.65493774 1.63658142 C-5.4372506 -0.34689522 -3.72051719 -0.47495964 0 0 Z " fill="#4A73B9" transform="translate(482,74)"/>
<path d="M0 0 C3.30253301 0.99014491 4.8331876 3.07153514 7.09765625 5.62890625 C8.35304847 8.03563412 9.41592145 10.30843351 10.41796875 12.8125 C10.71453369 13.52418839 11.01109863 14.23587677 11.31665039 14.96913147 C12.29713237 17.33019626 13.25979599 19.69810681 14.22265625 22.06640625 C14.91276386 23.73744871 15.60403323 25.40801181 16.29638672 27.078125 C17.7828261 30.67013225 19.26152591 34.26519216 20.734375 37.86279297 C23.19620546 43.87503327 25.67686758 49.87940911 28.16015625 55.8828125 C30.65264947 61.90906589 33.14432761 67.93562279 35.62548828 73.96655273 C36.00868225 74.89732132 36.39187622 75.8280899 36.78668213 76.7870636 C37.53073697 78.59450267 38.27420269 80.40218439 39.01702881 82.21012878 C40.62924155 86.12259409 42.25768555 90.02435654 43.96142578 93.89794922 C44.24307587 94.54010376 44.52472595 95.1822583 44.81491089 95.84387207 C45.54872111 97.50610186 46.29197687 99.16415337 47.03613281 100.82177734 C48.66472131 105.12847251 48.83113829 108.08131757 48.09765625 112.62890625 C46.53515625 115.19140625 46.53515625 115.19140625 44.09765625 116.62890625 C40.66015625 117.19140625 40.66015625 117.19140625 37.09765625 116.62890625 C31.43351306 112.37154372 29.42096566 106.2060717 26.78515625 99.81640625 C25.23828125 96.12453125 23.69140625 92.43265625 22.09765625 88.62890625 C-2.15734375 88.13390625 -2.15734375 88.13390625 -26.90234375 87.62890625 C-27.23234375 89.27890625 -27.56234375 90.92890625 -27.90234375 92.62890625 C-29.1919778 96.23154516 -30.71615576 99.73378789 -32.21484375 103.25390625 C-32.60607422 104.2078125 -32.99730469 105.16171875 -33.40039062 106.14453125 C-33.98336914 107.51738281 -33.98336914 107.51738281 -34.578125 108.91796875 C-34.92786377 109.75021973 -35.27760254 110.5824707 -35.63793945 111.43994141 C-37.09525251 113.96287418 -38.40307121 115.15031441 -40.90234375 116.62890625 C-46.80573801 117.25031617 -46.80573801 117.25031617 -49.77734375 115.56640625 C-51.49384353 112.61021218 -51.65814043 110.02713105 -51.90234375 106.62890625 C-50.95629883 103.19946289 -50.95629883 103.19946289 -49.421875 99.5390625 C-49.14184128 98.85804977 -48.86180756 98.17703705 -48.57328796 97.47538757 C-47.63604404 95.20723347 -46.6755616 92.94970631 -45.71484375 90.69140625 C-45.04407842 89.08102533 -44.37484511 87.47000555 -43.70703125 85.85839844 C-42.24979676 82.35031677 -40.78224704 78.8467901 -39.30712891 75.34619141 C-36.75005166 69.27545619 -34.22157405 63.19298554 -31.6953125 57.109375 C-29.09187659 50.84308849 -26.48696337 44.57745271 -23.87036133 38.31665039 C-23.46425125 37.34478287 -23.05814117 36.37291534 -22.63972473 35.37159729 C-21.84456171 33.47072057 -21.04819248 31.57034791 -20.25053406 29.67051697 C-18.42659018 25.31885798 -16.62716257 20.96116731 -14.89453125 16.57226562 C-14.58253784 15.78934143 -14.27054443 15.00641724 -13.94909668 14.19976807 C-13.37690171 12.7586917 -12.81279721 11.31436204 -12.25891113 9.8661499 C-9.62369933 3.25761454 -7.35821371 0.24868714 0 0 Z M-2.90234375 30.62890625 C-5.32568427 36.30624108 -7.74670012 41.98455917 -10.16552734 47.66381836 C-10.989426 49.59736182 -11.81396935 51.53063069 -12.63916016 53.46362305 C-13.82231873 56.23545253 -15.00318664 59.00824787 -16.18359375 61.78125 C-16.555448 62.65103989 -16.92730225 63.52082977 -17.3104248 64.41697693 C-17.65077759 65.21773148 -17.99113037 66.01848602 -18.34179688 66.84350586 C-18.64380005 67.55188095 -18.94580322 68.26025604 -19.25695801 68.99009705 C-19.96341431 70.49042903 -19.96341431 70.49042903 -19.90234375 71.62890625 C-8.35234375 71.62890625 3.19765625 71.62890625 15.09765625 71.62890625 C13.21161122 65.97077115 11.32122055 60.484625 9.03125 55.00390625 C8.61190941 53.99444946 8.61190941 53.99444946 8.18409729 52.96459961 C7.60011098 51.56243673 7.01440219 50.16099004 6.42700195 48.76025391 C5.52672279 46.60875182 4.63726986 44.4529663 3.74804688 42.296875 C3.17643319 40.92811298 2.60419084 39.55961328 2.03125 38.19140625 C1.7666246 37.54671387 1.50199921 36.90202148 1.22935486 36.23779297 C-0.07672559 32.78130935 -0.07672559 32.78130935 -2.90234375 30.62890625 Z " fill="#FFC80A" transform="translate(109.90234375,45.37109375)"/>
<path d="M0 0 C1.28856651 -0.00065712 1.28856651 -0.00065712 2.60316467 -0.00132751 C5.43318675 0.00075696 8.26261113 0.02407189 11.0925293 0.04760742 C13.05836158 0.05320459 15.02419805 0.05747412 16.99003601 0.06047058 C22.15715138 0.07190982 27.32401266 0.1013692 32.49102783 0.13458252 C37.76636315 0.16530318 43.04173963 0.17898019 48.31713867 0.1940918 C58.66295326 0.22623968 69.0085795 0.27742501 79.35424805 0.34057617 C79.02424805 2.65057617 78.69424805 4.96057617 78.35424805 7.34057617 C79.01424805 7.34057617 79.67424805 7.34057617 80.35424805 7.34057617 C80.381099 9.81981418 80.40101352 12.29876457 80.41674805 14.77807617 C80.42512695 15.48512695 80.43350586 16.19217773 80.44213867 16.9206543 C80.45078392 18.72751177 80.40644816 20.5344522 80.35424805 22.34057617 C79.85924805 22.83557617 79.85924805 22.83557617 79.35424805 23.34057617 C79.1223194 24.85527066 78.94209566 26.37812179 78.79174805 27.90307617 C78.66606445 29.14250977 78.66606445 29.14250977 78.5378418 30.40698242 C78.47725586 31.04506836 78.41666992 31.6831543 78.35424805 32.34057617 C67.24493683 32.4333106 56.13571789 32.5043588 45.02609825 32.54782486 C39.8672759 32.56868784 34.70871863 32.59698214 29.55004883 32.64233398 C24.57039413 32.68583741 19.59099418 32.70972298 14.61116409 32.72008514 C12.71256119 32.72746842 10.81397202 32.74188631 8.91547775 32.7634964 C6.25332402 32.79259025 3.59221912 32.79652969 0.92993164 32.79467773 C0.14733978 32.80905884 -0.63525208 32.82343994 -1.44155884 32.83825684 C-6.62767077 32.79929249 -9.50284738 31.71708289 -13.64575195 28.34057617 C-17.56958462 23.87552521 -17.99438496 19.74244834 -17.92700195 13.98120117 C-17.49650991 9.93935919 -16.20418959 6.51479823 -13.64575195 3.34057617 C-9.30145465 -0.02555645 -5.28660227 -0.07084257 0 0 Z " fill="#FEC80D" transform="translate(185.645751953125,171.659423828125)"/>
<path d="M0 0 C2 1.75 2 1.75 3 4 C2.7908265 9.96144472 2.7908265 9.96144472 0.703125 12.703125 C-1.43047878 14.32779577 -2.47315545 14.31581506 -5.125 14.1875 C-6.30835938 14.15269531 -6.30835938 14.15269531 -7.515625 14.1171875 C-9.171875 14.0390625 -10.828125 13.9609375 -12.484375 13.8828125 C-13.66773438 13.84800781 -13.66773438 13.84800781 -14.875 13.8125 C-15.59429687 13.77769531 -16.31359375 13.74289063 -17.0546875 13.70703125 C-19.61955003 14.09330573 -20.42603977 14.97835648 -22 17 C-23.10514766 20.31544299 -23.32107631 23.20410111 -23.5625 26.6875 C-23.64628906 27.86699219 -23.73007812 29.04648438 -23.81640625 30.26171875 C-23.90728516 31.61716797 -23.90728516 31.61716797 -24 33 C-22.75863281 32.95359375 -21.51726562 32.9071875 -20.23828125 32.859375 C-18.59637829 32.82184579 -16.95444923 32.78544686 -15.3125 32.75 C-14.49587891 32.71648437 -13.67925781 32.68296875 -12.83789062 32.6484375 C-8.79600579 32.58298188 -6.53539333 32.69592405 -2.953125 34.73046875 C-0.77276402 37.26404821 -0.34277749 38.2694997 -0.4375 41.5625 C-0.43556641 42.70912109 -0.43556641 42.70912109 -0.43359375 43.87890625 C-1 46 -1 46 -2.42602539 47.62084961 C-6.41828194 49.75992361 -10.30065634 49.31565687 -14.75 49.1875 C-16.08224609 49.16719727 -16.08224609 49.16719727 -17.44140625 49.14648438 C-19.62822578 49.11121309 -21.81379966 49.06192752 -24 49 C-23.99111755 49.79069382 -23.98223511 50.58138763 -23.9730835 51.39604187 C-23.89286273 58.85553498 -23.83199798 66.31481831 -23.79275131 73.77463055 C-23.77189562 77.60962547 -23.74361585 81.44426331 -23.69824219 85.27905273 C-23.65471092 88.98139253 -23.63084771 92.68338934 -23.62049103 96.38596535 C-23.61311258 97.79696869 -23.59870386 99.20795372 -23.57707977 100.61881065 C-23.54795521 102.59814448 -23.54636533 104.57782502 -23.54589844 106.55737305 C-23.53701599 107.68322311 -23.52813354 108.80907318 -23.51898193 109.96903992 C-24.10873707 113.68516705 -25.38051685 115.34780646 -28 118 C-30.21875 118.62890625 -30.21875 118.62890625 -32.5 118.5625 C-33.2528125 118.56378906 -34.005625 118.56507813 -34.78125 118.56640625 C-37.8825817 117.77469305 -39.01001835 116.49144596 -41 114 C-41.48101807 111.05133057 -41.48101807 111.05133057 -41.45410156 107.57910156 C-41.45364838 105.62753143 -41.45364838 105.62753143 -41.45318604 103.63653564 C-41.43276086 102.22122585 -41.4118969 100.80592232 -41.390625 99.390625 C-41.38316145 97.93903381 -41.37746905 96.48743252 -41.37347412 95.03582764 C-41.35822643 91.22153742 -41.31895309 87.40785979 -41.2746582 83.59381104 C-41.23368623 79.69934373 -41.21545906 75.80477711 -41.1953125 71.91015625 C-41.15245713 64.27315871 -41.08421739 56.6366653 -41 49 C-41.96421875 49.05800781 -42.9284375 49.11601563 -43.921875 49.17578125 C-45.18515625 49.22089844 -46.4484375 49.26601562 -47.75 49.3125 C-49.00296875 49.37050781 -50.2559375 49.42851563 -51.546875 49.48828125 C-55 49 -55 49 -57.43139648 46.61376953 C-59.03779787 43.93701728 -59.49608698 42.90416934 -59.0625 39.875 C-58.99160156 39.21242187 -58.92070312 38.54984375 -58.84765625 37.8671875 C-57.54306924 34.99348893 -55.83779248 34.27387093 -53 33 C-49.88671875 32.70703125 -49.88671875 32.70703125 -46.6875 32.8125 C-45.08455078 32.85310547 -45.08455078 32.85310547 -43.44921875 32.89453125 C-42.64097656 32.92933594 -41.83273437 32.96414062 -41 33 C-41.03480469 31.85402344 -41.06960938 30.70804688 -41.10546875 29.52734375 C-41.13362703 27.99741061 -41.16092499 26.46746146 -41.1875 24.9375 C-41.21263672 24.18533203 -41.23777344 23.43316406 -41.26367188 22.65820312 C-41.36442405 14.90028596 -38.96449255 9.35512857 -33.7421875 3.57421875 C-25.07977944 -4.25302441 -9.99610158 -5.95512434 0 0 Z " fill="#4A73B9" transform="translate(455,43)"/>
<path d="M0 0 C0.7528125 -0.00128906 1.505625 -0.00257812 2.28125 -0.00390625 C5.50283976 0.81850663 6.60390261 1.81657517 8.5 4.5625 C8.97728171 7.49740963 8.87777063 10.34920428 8.75 13.3125 C8.73195312 14.10527344 8.71390625 14.89804688 8.6953125 15.71484375 C8.64833082 17.66458348 8.57659044 19.61369878 8.5 21.5625 C9.68078125 21.50449219 10.8615625 21.44648437 12.078125 21.38671875 C13.63537711 21.33981357 15.19267201 21.29431421 16.75 21.25 C17.52730469 21.20810547 18.30460937 21.16621094 19.10546875 21.12304688 C24.89063962 20.99943211 24.89063962 20.99943211 28.01953125 23.890625 C29.81261858 27.12669818 30.04332504 28.91446045 29.5 32.5625 C27.72015595 35.6984157 26.97691793 36.40352736 23.5 37.5625 C20.92734182 37.63279121 18.38358569 37.65620832 15.8125 37.625 C14.7596582 37.61823242 14.7596582 37.61823242 13.68554688 37.61132812 C11.95699462 37.59956927 10.22848635 37.58163454 8.5 37.5625 C8.61752733 44.48604847 8.74236017 51.40943737 8.87231445 58.33276367 C8.91567208 60.68885295 8.95734654 63.04497383 8.99731445 65.40112305 C9.05499676 68.78443938 9.11869731 72.16759657 9.18359375 75.55078125 C9.20030624 76.60711258 9.21701874 77.66344391 9.23423767 78.75178528 C9.2641555 80.22297066 9.2641555 80.22297066 9.29467773 81.72387695 C9.31799416 83.01960381 9.31799416 83.01960381 9.34178162 84.34150696 C9.42009739 86.73615425 9.42009739 86.73615425 10.5 89.5625 C13.94061422 91.28280711 17.87162769 90.46087747 21.65234375 90.3046875 C24.5 90.5625 24.5 90.5625 26.34765625 91.82421875 C27.99136381 94.30370981 28.02620255 96.70810084 27.9296875 99.625 C27.5 101.5625 27.5 101.5625 25.125 104 C18.51717983 107.93322629 9.24693342 107.76643239 1.8046875 105.87890625 C-2.7344703 103.79917805 -5.16949128 101.03707674 -7.5 96.5625 C-8.52764621 93.35447438 -8.62122787 90.41785032 -8.61352539 87.05957031 C-8.61344986 85.95873108 -8.61337433 84.85789185 -8.61329651 83.72369385 C-8.60813522 82.54128113 -8.60297394 81.35886841 -8.59765625 80.140625 C-8.5962413 78.92550232 -8.59482635 77.71037964 -8.59336853 76.45843506 C-8.58776988 72.57643169 -8.5752176 68.69448594 -8.5625 64.8125 C-8.55748483 62.18099042 -8.55292195 59.54947993 -8.54882812 56.91796875 C-8.53780089 50.46612617 -8.52106408 44.0143172 -8.5 37.5625 C-9.25780762 37.58135254 -10.01561523 37.60020508 -10.79638672 37.61962891 C-12.28549561 37.64162354 -12.28549561 37.64162354 -13.8046875 37.6640625 C-14.78937012 37.68291504 -15.77405273 37.70176758 -16.78857422 37.72119141 C-19.5 37.5625 -19.5 37.5625 -22.625 35.9375 C-24.94450558 32.9994596 -25.5 31.3043377 -25.5 27.5625 C-24.36220128 25.23518444 -23.33159286 23.39409286 -21.5 21.5625 C-19.31360547 21.48991054 -17.12499611 21.47876217 -14.9375 21.5 C-13.14119141 21.51353516 -13.14119141 21.51353516 -11.30859375 21.52734375 C-10.38175781 21.53894531 -9.45492187 21.55054687 -8.5 21.5625 C-8.54640625 20.46550781 -8.5928125 19.36851563 -8.640625 18.23828125 C-8.6781579 16.7838815 -8.71455643 15.32945217 -8.75 13.875 C-8.80027344 12.7931543 -8.80027344 12.7931543 -8.8515625 11.68945312 C-8.92113338 7.88044751 -8.72613109 5.95160846 -6.765625 2.578125 C-4.24982499 0.33993051 -3.31031932 -0.09636204 0 0 Z " fill="#4A73B9" transform="translate(240.5,54.4375)"/>
<path d="M0 0 C3.06877017 2.18577498 3.87702607 3.95353346 4.53125 7.6171875 C3.79540865 11.73789905 3.14497519 13.44523921 -0.09375 16.1171875 C-3.75587776 16.48960727 -6.78753858 16.31389277 -10.40234375 15.76953125 C-15.60920351 15.00562434 -18.5992732 14.92111511 -23.09375 18.1171875 C-28.83372423 23.57579044 -32.17431732 29.33817507 -32.47851562 37.33056641 C-32.49953043 39.33486357 -32.50593702 41.33935147 -32.5 43.34375 C-32.51083618 44.4095932 -32.52167236 45.4754364 -32.53283691 46.57357788 C-32.57855314 51.11215975 -32.5901941 55.65068221 -32.60498047 60.18945312 C-32.62067045 63.51192563 -32.6536619 66.83392082 -32.6875 70.15625 C-32.68447876 71.18029938 -32.68145752 72.20434875 -32.67834473 73.25942993 C-32.77290873 82.21955787 -32.77290873 82.21955787 -36.09375 86.1171875 C-38.42061453 87.28061977 -39.94096413 87.31614738 -42.53125 87.3671875 C-43.70494141 87.40585938 -43.70494141 87.40585938 -44.90234375 87.4453125 C-47.63052498 87.03681478 -48.4379111 86.28446289 -50.09375 84.1171875 C-51.26877806 80.59210332 -51.23522913 77.78434569 -51.25488281 74.06298828 C-51.26233017 72.99173203 -51.26233017 72.99173203 -51.26992798 71.89883423 C-51.28453048 69.53671301 -51.2913482 67.17465894 -51.296875 64.8125 C-51.30262779 63.16966754 -51.30838551 61.52683511 -51.31414795 59.88400269 C-51.32465233 56.43910408 -51.33049875 52.99422877 -51.33398438 49.54931641 C-51.33946957 45.13861366 -51.36350033 40.72821955 -51.39195633 36.3176136 C-51.41059414 32.92380884 -51.4157889 29.53007827 -51.41732025 26.13622665 C-51.42034446 24.51034736 -51.42836522 22.8844693 -51.44150543 21.25864029 C-51.4585911 18.9822475 -51.45667996 16.70660696 -51.45019531 14.43017578 C-51.45384094 13.1357254 -51.45748657 11.84127502 -51.46124268 10.50759888 C-51.06824667 6.88189908 -50.28675372 4.99805729 -48.09375 2.1171875 C-44.89154471 0.51608486 -41.56874602 0.62765433 -38.09375 1.1171875 C-34.28995125 3.71978664 -33.28251803 6.7583714 -32.09375 11.1171875 C-31.63226563 10.58609375 -31.17078125 10.055 -30.6953125 9.5078125 C-23.01750676 1.19271853 -11.44528005 -4.82580838 0 0 Z " fill="#4A73B9" transform="translate(341.09375,73.8828125)"/>
<path d="M0 0 C3.10501256 1.84622368 3.83621763 2.50865288 5 6 C5.0942738 7.39741699 5.13483397 8.79885023 5.14044189 10.19943237 C5.14900711 11.48214523 5.14900711 11.48214523 5.15774536 12.79077148 C5.15886322 13.72590576 5.15998108 14.66104004 5.16113281 15.62451172 C5.16609772 16.61178253 5.17106262 17.59905334 5.17617798 18.61624146 C5.19080203 21.88739718 5.19760171 25.15850443 5.203125 28.4296875 C5.20887585 30.70028688 5.21463359 32.97088625 5.22039795 35.2414856 C5.23090835 40.00457994 5.2367509 44.7676574 5.24023438 49.53076172 C5.24572193 55.63638331 5.26975556 61.74178221 5.29820633 67.84733391 C5.31682144 72.53818415 5.32203769 77.2289806 5.32357025 81.91986465 C5.32659939 84.17094262 5.33463666 86.42201959 5.34775543 88.67306137 C5.36479352 91.82111359 5.36294108 94.96861971 5.35644531 98.11669922 C5.3656601 99.04778503 5.37487488 99.97887085 5.3843689 100.93817139 C5.35316238 105.76152529 5.20252452 109.11395559 2 113 C-0.29986731 114.14993366 -1.81469088 114.2316929 -4.375 114.3125 C-5.14585937 114.34988281 -5.91671875 114.38726562 -6.7109375 114.42578125 C-10.07981843 113.7991464 -10.97820501 112.7887368 -13 110 C-13.61039317 106.6323438 -13.54606593 103.29351005 -13.51757812 99.87890625 C-13.5245874 98.85086884 -13.53159668 97.82283142 -13.53881836 96.76364136 C-13.5564339 93.36298673 -13.54476243 89.9631632 -13.53125 86.5625 C-13.53394388 84.20125163 -13.53782542 81.84000434 -13.54284668 79.47875977 C-13.54874658 74.52902672 -13.5401626 69.57958232 -13.52148438 64.62988281 C-13.49869498 58.28079758 -13.51181537 51.93238866 -13.53577423 45.58332825 C-13.55021867 40.70718273 -13.54563234 35.83119793 -13.53526306 30.95504761 C-13.53259205 28.61383993 -13.53587862 26.27261772 -13.54518127 23.931427 C-13.55532416 20.66092195 -13.53987625 17.39151674 -13.51757812 14.12109375 C-13.52567505 13.15058075 -13.53377197 12.18006775 -13.54211426 11.18014526 C-13.45937857 4.6399627 -13.45937857 4.6399627 -11.15515137 1.42993164 C-7.14686719 -1.22954391 -4.56486981 -1.1179273 0 0 Z " fill="#FFC80A" transform="translate(190,47)"/>
<path d="M0 0 C2.65977478 1.54187012 2.65977478 1.54187012 5 4 C5.5007045 6.7524457 5.67588835 8.89224547 5.63110352 11.64257812 C5.63825882 12.40726913 5.64541412 13.17196014 5.65278625 13.95982361 C5.66967718 16.48424258 5.65027025 19.00688651 5.62890625 21.53125 C5.62973492 23.28715156 5.63219424 25.04305304 5.63621521 26.7989502 C5.63907346 30.47769541 5.6243698 34.15583187 5.59692383 37.83447266 C5.56284063 42.54924736 5.56885878 47.2629335 5.5875864 51.97776031 C5.59815655 55.60322131 5.58921851 59.22842912 5.57420158 62.85386658 C5.5690194 64.59219104 5.56950203 66.33054194 5.57574654 68.06886292 C5.5811991 70.49896056 5.56082453 72.92750163 5.53344727 75.35742188 C5.53997314 76.07546494 5.54649902 76.793508 5.55322266 77.53330994 C5.48788152 80.94524455 5.22382673 82.71148345 3.10533142 85.44226074 C0.6971033 87.22411392 -0.52959882 87.5675863 -3.5 87.5625 C-4.2528125 87.58441406 -5.005625 87.60632813 -5.78125 87.62890625 C-9.14861905 86.67442312 -10.12164796 84.90355714 -12 82 C-12.38702943 79.36901838 -12.54860551 77.1594013 -12.51757812 74.53515625 C-12.5245874 73.80118622 -12.53159668 73.06721619 -12.53881836 72.31100464 C-12.55636647 69.89444703 -12.54478791 67.47906869 -12.53125 65.0625 C-12.53394585 63.37768327 -12.53782905 61.69286806 -12.54284668 60.00805664 C-12.54873738 56.48080602 -12.54019286 52.95396118 -12.52148438 49.42675781 C-12.49869474 44.91054483 -12.51182017 40.39528272 -12.53577423 35.87910461 C-12.55024398 32.40117253 -12.54562089 28.92346505 -12.53526306 25.44552612 C-12.53259901 23.78058763 -12.53585422 22.11562861 -12.54518127 20.45071411 C-12.55536673 18.12154302 -12.53982019 15.79390123 -12.51757812 13.46484375 C-12.52567505 12.78001923 -12.53377197 12.0951947 -12.54211426 11.38961792 C-12.45906532 6.68378352 -11.30763942 4.31284891 -8 1 C-5.14675563 -0.42662219 -3.16545451 -0.31033868 0 0 Z " fill="#4A73B9" transform="translate(373,74)"/>
<path d="M0 0 C2.28125 1.15625 2.28125 1.15625 4 3 C4.49609375 5.8125 4.49609375 5.8125 4.4375 9 C4.43621094 10.051875 4.43492187 11.10375 4.43359375 12.1875 C4 15 4 15 2.84375 16.84765625 C0.2102485 18.49359469 -1.85200325 18.43368604 -4.9375 18.4375 C-5.97777344 18.45683594 -7.01804687 18.47617188 -8.08984375 18.49609375 C-11.69400045 17.88169388 -12.85017175 16.92052139 -15 14 C-15.8013411 10.9106919 -15.61624412 8.12008282 -15 5 C-11.44374903 -0.80854325 -6.30628769 -1.23049516 0 0 Z " fill="#4A73B9" transform="translate(375,46)"/>
<path d="M0 0 C0 0.99 0 1.98 0 3 C0.66 3 1.32 3 2 3 C2.33 2.01 2.66 1.02 3 0 C7.455 -0.495 7.455 -0.495 12 -1 C12.05402274 1.10388569 12.09280256 3.20816714 12.125 5.3125 C12.14820313 6.48425781 12.17140625 7.65601563 12.1953125 8.86328125 C12 12 12 12 10 15 C6.875 15.1875 6.875 15.1875 4 15 C3.855625 14.236875 3.71125 13.47375 3.5625 12.6875 C3.0367406 9.91827092 3.0367406 9.91827092 2 7 C1.34 7 0.68 7 0 7 C0 8.32 0 9.64 0 11 C-0.66 11 -1.32 11 -2 11 C-2 8.03 -2 5.06 -2 2 C-3.98 2.99 -3.98 2.99 -6 4 C-6.81870185 7.56206661 -6.81870185 7.56206661 -7 11 C-7.66 11 -8.32 11 -9 11 C-9 7.37 -9 3.74 -9 0 C-5.16380575 -0.95904856 -3.67568464 -0.91892116 0 0 Z " fill="#EFE3CA" transform="translate(277,183)"/>
<path d="M0 0 C1.32 0.33 2.64 0.66 4 1 C3.67 2.98 3.34 4.96 3 7 C3.66 7 4.32 7 5 7 C5 11.95 5 16.9 5 22 C3.68 22 2.36 22 1 22 C0.34 22.99 -0.32 23.98 -1 25 C-4.625 25.1875 -4.625 25.1875 -8 25 C-8 24.67 -8 24.34 -8 24 C-6.02 23.34 -4.04 22.68 -2 22 C-2.33 22 -2.66 22 -3 22 C-7.72727273 21.27272727 -7.72727273 21.27272727 -10 19 C-10.25 16 -10.25 16 -10 13 C-9.34 12.34 -8.68 11.68 -8 11 C-4.375 11.375 -4.375 11.375 -1 12 C-0.67 8.04 -0.34 4.08 0 0 Z " fill="#FFF5D5" transform="translate(261,172)"/>
<path d="M0 0 C0.66 0.33 1.32 0.66 2 1 C2 2.32 2 3.64 2 5 C2.804375 4.979375 3.60875 4.95875 4.4375 4.9375 C7 5 7 5 8 6 C8.07179964 7.51928038 8.08392007 9.04167482 8.0625 10.5625 C8.05347656 11.38878906 8.04445312 12.21507812 8.03515625 13.06640625 C8.02355469 13.70449219 8.01195312 14.34257812 8 15 C7.67 15 7.34 15 7 15 C6.67 12.36 6.34 9.72 6 7 C5.01 7 4.02 7 3 7 C2.67 9.64 2.34 12.28 2 15 C0.39884424 15.2493357 -1.20620159 15.47378648 -2.8125 15.6875 C-3.70582031 15.81511719 -4.59914062 15.94273437 -5.51953125 16.07421875 C-8 16 -8 16 -9.83984375 14.74609375 C-11 13 -11 13 -10.75 9.375 C-10 6 -10 6 -9 5 C-6.66702567 4.95907063 -4.33294775 4.95758277 -2 5 C-1.34 3.35 -0.68 1.7 0 0 Z " fill="#FFCC1D" transform="translate(221,178)"/>
<path d="M0 0 C0.66 0 1.32 0 2 0 C2 1.98 2 3.96 2 6 C2.969375 5.814375 3.93875 5.62875 4.9375 5.4375 C6.4534375 5.2209375 6.4534375 5.2209375 8 5 C9 6 9 6 9.09765625 8.06640625 C9.08605469 8.89011719 9.07445312 9.71382812 9.0625 10.5625 C9.05347656 11.38878906 9.04445313 12.21507812 9.03515625 13.06640625 C9.02355469 13.70449219 9.01195312 14.34257812 9 15 C8.67 15 8.34 15 8 15 C8 12.36 8 9.72 8 7 C5.93597032 7.48705712 5.93597032 7.48705712 4 9 C3.18129815 12.56206661 3.18129815 12.56206661 3 16 C0.36 16 -2.28 16 -5 16 C-5 12.7 -5 9.4 -5 6 C-5.66 5.67 -6.32 5.34 -7 5 C-6.34 5 -5.68 5 -5 5 C-4.67 4.01 -4.34 3.02 -4 2 C-4 2.99 -4 3.98 -4 5 C-3.01 5 -2.02 5 -1 5 C-0.67 3.35 -0.34 1.7 0 0 Z " fill="#C1AF8E" transform="translate(303,178)"/>
<path d="M0 0 C6.8359375 -0.1953125 6.8359375 -0.1953125 9 0 C11 2 11 2 11.0625 5.3125 C11.041875 6.529375 11.02125 7.74625 11 9 C11.28520405 10.67557379 11.59955696 12.34817245 12 14 C11.01 14 10.02 14 9 14 C9 12.35 9 10.7 9 9 C6.69 9 4.38 9 2 9 C2 10.65 2 12.3 2 14 C1.34 14 0.68 14 0 14 C0 9.38 0 4.76 0 0 Z " fill="#FFF2C7" transform="translate(186,179)"/>
<path d="M0 0 C3.46679688 0.04882812 3.46679688 0.04882812 6.93359375 0.09765625 C6.93359375 3.39765625 6.93359375 6.69765625 6.93359375 10.09765625 C4.29359375 10.42765625 1.65359375 10.75765625 -1.06640625 11.09765625 C-2.62890625 9.47265625 -2.62890625 9.47265625 -4.06640625 7.09765625 C-3.52278484 0.16648322 -3.52278484 0.16648322 0 0 Z " fill="#FFF2C8" transform="translate(235.06640625,182.90234375)"/>
<path d="M0 0 C0.33 0 0.66 0 1 0 C1 4.95 1 9.9 1 15 C-1.31 15.33 -3.62 15.66 -6 16 C-7.5625 14.3125 -7.5625 14.3125 -9 12 C-8.74303831 9.30190224 -8.20824654 7.41649307 -7 5 C-5.02 5 -3.04 5 -1 5 C-0.67 3.35 -0.34 1.7 0 0 Z " fill="#E7ECF3" transform="translate(382,178)"/>
<path d="M0 0 C3 0.25 3 0.25 5 2.25 C5.33661952 5.4142235 5.49943411 7.43513382 3.8125 10.1875 C2 11.25 2 11.25 -0.5625 11.0625 C-3 10.25 -3 10.25 -5 8.25 C-5.25 5.25 -5.25 5.25 -5 2.25 C-3 0.25 -3 0.25 0 0 Z " fill="#B2BACE" transform="translate(355,182.75)"/>
<path d="M0 0 C1.98 0.495 1.98 0.495 4 1 C3.67 2.98 3.34 4.96 3 7 C3.66 7 4.32 7 5 7 C5 11.95 5 16.9 5 22 C3.33333333 22 1.66666667 22 0 22 C-0.8388516 14.48905184 -1.0773541 7.49175465 0 0 Z " fill="#F9D25C" transform="translate(261,172)"/>
<path d="M0 0 C0.66 0 1.32 0 2 0 C3.32 2.97 4.64 5.94 6 9 C6.99 7.02 7.98 5.04 9 3 C11 4 11 4 12.125 7.0625 C12.41375 8.031875 12.7025 9.00125 13 10 C14.32 6.7 15.64 3.4 17 0 C18.10084497 4.40337988 17.7915332 5.26798414 16.0625 9.25 C15.68222656 10.14203125 15.30195313 11.0340625 14.91015625 11.953125 C14.60980469 12.62859375 14.30945313 13.3040625 14 14 C13.34 14 12.68 14 12 14 C11.01 12.02 10.02 10.04 9 8 C8.01 9.98 7.02 11.96 6 14 C5.34 14 4.68 14 4 14 C3.32739649 12.23141309 2.66211605 10.46003984 2 8.6875 C1.62875 7.70136719 1.2575 6.71523437 0.875 5.69921875 C0 3 0 3 0 0 Z " fill="#EBECEF" transform="translate(330,179)"/>
<path d="M0 0 C2.9777759 2.49996659 3.94548483 5.04711071 5.1875 8.6875 C5.53167969 9.68136719 5.87585938 10.67523438 6.23046875 11.69921875 C6.48441406 12.45847656 6.73835938 13.21773437 7 14 C6.34 14 5.68 14 5 14 C4.67 13.34 4.34 12.68 4 12 C1.67843403 11.59270772 -0.6568787 11.25561323 -3 11 C-3.33 11.99 -3.66 12.98 -4 14 C-5.305239 10.08428299 -4.32239848 8.96107003 -2.5625 5.3125 C-2.08941406 4.31863281 -1.61632812 3.32476562 -1.12890625 2.30078125 C-0.75636719 1.54152344 -0.38382812 0.78226563 0 0 Z " fill="#AFC1E0" transform="translate(438,179)"/>
<path d="M0 0 C3.0625 0.1875 3.0625 0.1875 5.0625 2.1875 C5.0625 3.5075 5.0625 4.8275 5.0625 6.1875 C2.4225 6.1875 -0.2175 6.1875 -2.9375 6.1875 C-2.6075 6.8475 -2.2775 7.5075 -1.9375 8.1875 C0.3725 8.1875 2.6825 8.1875 5.0625 8.1875 C3.875 9.75 3.875 9.75 2.0625 11.1875 C-1.27942692 10.94296876 -2.54293557 10.58206443 -4.9375 8.1875 C-4.24305556 0.27083333 -4.24305556 0.27083333 0 0 Z " fill="#FFF3CA" transform="translate(203.9375,182.8125)"/>
<path d="M0 0 C3.0625 0.1875 3.0625 0.1875 5.0625 2.1875 C5.0625 3.5075 5.0625 4.8275 5.0625 6.1875 C2.4225 6.1875 -0.2175 6.1875 -2.9375 6.1875 C-2.6075 6.8475 -2.2775 7.5075 -1.9375 8.1875 C0.3725 8.1875 2.6825 8.1875 5.0625 8.1875 C3.875 9.75 3.875 9.75 2.0625 11.1875 C-1.27942692 10.94296876 -2.54293557 10.58206443 -4.9375 8.1875 C-4.24305556 0.27083333 -4.24305556 0.27083333 0 0 Z " fill="#DDD9D6" transform="translate(318.9375,182.8125)"/>
<path d="M0 0 C0.33 0 0.66 0 1 0 C1.06058594 0.62648437 1.12117188 1.25296875 1.18359375 1.8984375 C1.26738281 2.71570313 1.35117187 3.53296875 1.4375 4.375 C1.55931641 5.59316406 1.55931641 5.59316406 1.68359375 6.8359375 C1.89090114 9.04272805 1.89090114 9.04272805 3 11 C2.91348369 12.54613014 2.75997364 14.08909387 2.5625 15.625 C2.46066406 16.44226563 2.35882813 17.25953125 2.25390625 18.1015625 C2.17011719 18.72804687 2.08632813 19.35453125 2 20 C0.35 20 -1.3 20 -3 20 C-3 18.02 -3 16.04 -3 14 C-4.65 14 -6.3 14 -8 14 C-8 13.67 -8 13.34 -8 13 C-6.5459375 12.814375 -6.5459375 12.814375 -5.0625 12.625 C-4.051875 12.41875 -3.04125 12.2125 -2 12 C-0.78306124 9.56612247 -0.68040104 7.58161154 -0.4375 4.875 C-0.35371094 3.96492187 -0.26992188 3.05484375 -0.18359375 2.1171875 C-0.12300781 1.41851562 -0.06242187 0.71984375 0 0 Z " fill="#F9C624" transform="translate(262,184)"/>
<path d="M0 0 C0 3.63 0 7.26 0 11 C-0.66 11 -1.32 11 -2 11 C-2 8.03 -2 5.06 -2 2 C-3.98 2.99 -3.98 2.99 -6 4 C-6.81870185 7.56206661 -6.81870185 7.56206661 -7 11 C-7.66 11 -8.32 11 -9 11 C-9 7.37 -9 3.74 -9 0 C-5 -1 -5 -1 0 0 Z " fill="#F7EAC9" transform="translate(277,183)"/>
<path d="M0 0 C0.33 0 0.66 0 1 0 C1.05416188 1.60379341 1.09286638 3.20811406 1.125 4.8125 C1.14820313 5.70582031 1.17140625 6.59914062 1.1953125 7.51953125 C1 10 1 10 -1 13 C-4.125 13.1875 -4.125 13.1875 -7 13 C-7 11 -7 9 -7 7 C-5.02 6.34 -3.04 5.68 -1 5 C-0.67 3.35 -0.34 1.7 0 0 Z " fill="#F7F1E5" transform="translate(288,185)"/>
<path d="M0 0 C2 2 2 2 4 5 C4.99 4.01 5.98 3.02 7 2 C7.99 2.99 8.98 3.98 10 5 C10.66 3.35 11.32 1.7 12 0 C13.46726798 3.81489674 12.43336419 6.29011622 11 10 C8 9 8 9 6 7 C5.01 7.99 4.02 8.98 3 10 C0.96564469 6.27034861 0 4.33094958 0 0 Z " fill="#E4EAF4" transform="translate(391,183)"/>
<path d="M0 0 C1.67542976 0.28604898 3.34385343 0.61781233 5 1 C5.625 3.375 5.625 3.375 6 6 C5.34 6.66 4.68 7.32 4 8 C1.375 7.625 1.375 7.625 -1 7 C-1.04254356 5.00045254 -1.04080783 2.99958364 -1 1 C-0.67 0.67 -0.34 0.34 0 0 Z " fill="#FECC1E" transform="translate(254,184)"/>
<path d="M0 0 C0.33 0 0.66 0 1 0 C1 1.98 1 3.96 1 6 C1.969375 5.814375 2.93875 5.62875 3.9375 5.4375 C5.4534375 5.2209375 5.4534375 5.2209375 7 5 C8 6 8 6 8.09765625 8.06640625 C8.08605469 8.89011719 8.07445312 9.71382812 8.0625 10.5625 C8.05347656 11.38878906 8.04445313 12.21507812 8.03515625 13.06640625 C8.02355469 13.70449219 8.01195312 14.34257812 8 15 C7.67 15 7.34 15 7 15 C7 12.36 7 9.72 7 7 C4.93597032 7.48705712 4.93597032 7.48705712 3 9 C2.18129815 12.56206661 2.18129815 12.56206661 2 16 C1.34 16 0.68 16 0 16 C0 10.72 0 5.44 0 0 Z " fill="#ECE8E1" transform="translate(304,178)"/>
<path d="M0 0 C2.125 0.375 2.125 0.375 4 1 C4.625 3.375 4.625 3.375 5 6 C4.34 6.66 3.68 7.32 3 8 C1.68 8 0.36 8 -1 8 C-1.625 5.125 -1.625 5.125 -2 2 C-1.34 1.34 -0.68 0.68 0 0 Z " fill="#627FB6" transform="translate(377,184)"/>
<path d="M0 0 C2.125 0.375 2.125 0.375 4 1 C4.625 3.375 4.625 3.375 5 6 C4.34 6.66 3.68 7.32 3 8 C1.68 8 0.36 8 -1 8 C-1.625 5.125 -1.625 5.125 -2 2 C-1.34 1.34 -0.68 0.68 0 0 Z " fill="#FFCB17" transform="translate(235,184)"/>
<path d="M0 0 C0.99 0.495 0.99 0.495 2 1 C2 2.32 2 3.64 2 5 C2.804375 4.979375 3.60875 4.95875 4.4375 4.9375 C7 5 7 5 8 6 C8.07179964 7.51928038 8.08392007 9.04167482 8.0625 10.5625 C8.05347656 11.38878906 8.04445312 12.21507812 8.03515625 13.06640625 C8.02355469 13.70449219 8.01195312 14.34257812 8 15 C7.67 15 7.34 15 7 15 C6.67 12.36 6.34 9.72 6 7 C5.01 7 4.02 7 3 7 C2.67 9.64 2.34 12.28 2 15 C1.34 15 0.68 15 0 15 C0 10.05 0 5.1 0 0 Z " fill="#FFF6D6" transform="translate(221,178)"/>
<path d="M0 0 C1.98 0 3.96 0 6 0 C6 1.98 6 3.96 6 6 C3.625 6.625 3.625 6.625 1 7 C0.34 6.34 -0.32 5.68 -1 5 C-0.625 2.375 -0.625 2.375 0 0 Z " fill="#D5B366" transform="translate(281,185)"/>
<path d="M0 0 C1.134375 0.020625 2.26875 0.04125 3.4375 0.0625 C3.4375 0.7225 3.4375 1.3825 3.4375 2.0625 C2.2309375 2.0315625 2.2309375 2.0315625 1 2 C-1.49604885 1.76616379 -1.49604885 1.76616379 -2.5625 3.0625 C-2.60313832 4.72867115 -2.605221 6.39638095 -2.5625 8.0625 C-0.5825 8.0625 1.3975 8.0625 3.4375 8.0625 C3.1075 9.0525 2.7775 10.0425 2.4375 11.0625 C-0.28955554 11.28361261 -2.02670662 11.36611625 -4.4375 10 C-6.22560335 6.92048867 -5.30842606 4.41916727 -4.5625 1.0625 C-3.5625 0.0625 -3.5625 0.0625 0 0 Z " fill="#FFF4D0" transform="translate(215.5625,182.9375)"/>
<path d="M0 0 C2.31 0 4.62 0 7 0 C6.67 1.65 6.34 3.3 6 5 C4.02 5 2.04 5 0 5 C0 3.35 0 1.7 0 0 Z " fill="#FFCA15" transform="translate(188,181)"/>
<path d="M0 0 C0.66 0 1.32 0 2 0 C2 0.99 2 1.98 2 3 C2.66 3.33 3.32 3.66 4 4 C3.34 4 2.68 4 2 4 C2 6.64 2 9.28 2 12 C2.66 12.33 3.32 12.66 4 13 C2.68 13 1.36 13 0 13 C0 10.03 0 7.06 0 4 C-0.66 3.67 -1.32 3.34 -2 3 C-1.34 3 -0.68 3 0 3 C0 2.01 0 1.02 0 0 Z " fill="#DBE3F1" transform="translate(411,180)"/>
<path d="M0 0 C0.66 0 1.32 0 2 0 C3.0024305 5.34629602 2.84888195 9.62374766 2 15 C1.34 15 0.68 15 0 15 C0 10.05 0 5.1 0 0 Z " fill="#E5EBF5" transform="translate(417,178)"/>
<path d="M0 0 C1.4540625 0.0309375 1.4540625 0.0309375 2.9375 0.0625 C3.5975 1.3825 4.2575 2.7025 4.9375 4.0625 C2.2975 4.0625 -0.3425 4.0625 -3.0625 4.0625 C-3.3925 3.0725 -3.7225 2.0825 -4.0625 1.0625 C-3.0625 0.0625 -3.0625 0.0625 0 0 Z " fill="#FFE27D" transform="translate(204.0625,182.9375)"/>
<path d="M0 0 C0.66 0.33 1.32 0.66 2 1 C1.1654738 3.50357861 0.20628008 5.66785852 -1 8 C-0.01 8.66 0.98 9.32 2 10 C0.35 10 -1.3 10 -3 10 C-3.33 11.32 -3.66 12.64 -4 14 C-5.305239 10.08428299 -4.32239848 8.96107003 -2.5625 5.3125 C-2.08941406 4.31863281 -1.61632812 3.32476562 -1.12890625 2.30078125 C-0.75636719 1.54152344 -0.38382812 0.78226563 0 0 Z " fill="#E9EEF6" transform="translate(438,179)"/>
<path d="M0 0 C0 1.65 0 3.3 0 5 C-1.98 5 -3.96 5 -6 5 C-6.33 4.01 -6.66 3.02 -7 2 C-2.25 0 -2.25 0 0 0 Z " fill="#E4CE9E" transform="translate(287,193)"/>
<path d="M0 0 C0.02685938 2.14576637 0.04633088 4.29162645 0.0625 6.4375 C0.07410156 7.63246094 0.08570313 8.82742187 0.09765625 10.05859375 C0 13 0 13 -1 14 C-3.33297433 14.04092937 -5.66705225 14.04241723 -8 14 C-8 13.67 -8 13.34 -8 13 C-6.02 12.34 -4.04 11.68 -2 11 C-1.979375 9.72125 -1.95875 8.4425 -1.9375 7.125 C-1.92589844 6.40570313 -1.91429687 5.68640625 -1.90234375 4.9453125 C-1.87350758 2.91814596 -1.87350758 2.91814596 -3 1 C-1 0 -1 0 0 0 Z " fill="#FEFBED" transform="translate(261,183)"/>
<path d="M0 0 C0.66 0 1.32 0 2 0 C2.99 3.3 3.98 6.6 5 10 C4.01 10.495 4.01 10.495 3 11 C2.49384702 9.73160474 1.99530901 8.46016898 1.5 7.1875 C1.2215625 6.47980469 0.943125 5.77210938 0.65625 5.04296875 C0 3 0 3 0 0 Z " fill="#E6E6E8" transform="translate(330,179)"/>
<path d="M0 0 C0.99 0.33 1.98 0.66 3 1 C2.67 3.97 2.34 6.94 2 10 C1.34 10 0.68 10 0 10 C0 6.7 0 3.4 0 0 Z " fill="#EDF0F5" transform="translate(362,183)"/>
<path d="M0 0 C0.99 0.33 1.98 0.66 3 1 C2.67 3.97 2.34 6.94 2 10 C1.34 10 0.68 10 0 10 C0 6.7 0 3.4 0 0 Z " fill="#FFF8E3" transform="translate(244,183)"/>
<path d="M0 0 C2.31 0 4.62 0 7 0 C7.33 0.66 7.66 1.32 8 2 C5.69 2.33 3.38 2.66 1 3 C0.67 2.01 0.34 1.02 0 0 Z " fill="#A39992" transform="translate(316,189)"/>
<path d="M0 0 C0.33 0.99 0.66 1.98 1 3 C1.99 3.33 2.98 3.66 4 4 C3.01 4 2.02 4 1 4 C1 6.64 1 9.28 1 12 C1.66 12.33 2.32 12.66 3 13 C2.01 13 1.02 13 0 13 C0 10.03 0 7.06 0 4 C-0.66 3.67 -1.32 3.34 -2 3 C-1.34 3 -0.68 3 0 3 C0 2.01 0 1.02 0 0 Z " fill="#FDFCFB" transform="translate(298,180)"/>
<path d="M0 0 C2.875 -0.125 2.875 -0.125 6 0 C6.66 0.66 7.32 1.32 8 2 C5.69 2.33 3.38 2.66 1 3 C0.67 2.01 0.34 1.02 0 0 Z " fill="#FFCB1A" transform="translate(201,189)"/>
<path d="M0 0 C2.72226766 2.72226766 3.78896139 5.36688418 5 9 C4.01 9 3.02 9 2 9 C0.50178941 5.62902617 0 3.79557881 0 0 Z " fill="#ECF0F7" transform="translate(391,183)"/>
<path d="M0 0 C0.99 0 1.98 0 3 0 C3.66 1.98 4.32 3.96 5 6 C4.01 6 3.02 6 2 6 C2 5.34 2 4.68 2 4 C1.34 4 0.68 4 0 4 C0 2.68 0 1.36 0 0 Z " fill="#EEDBAE" transform="translate(277,186)"/>
</svg>
